M48
; DRILL file {KiCad 9.0.5} date 2025-10-25T18:26:08+0200
; FORMAT={-:-/ absolute / metric / decimal}
; #@! TF.CreationDate,2025-10-25T18:26:08+02:00
; #@! TF.GenerationSoftware,Kicad,Pcbnew,9.0.5
; #@! TF.FileFunction,Plated,1,2,PTH
FMAT,2
METRIC
; #@! TA.AperFunction,Plated,PTH,ViaDrill
T1C0.300
; #@! TA.AperFunction,Plated,PTH,ComponentDrill
T2C0.750
; #@! TA.AperFunction,Plated,PTH,ComponentDrill
T3C0.800
; #@! TA.AperFunction,Plated,PTH,ComponentDrill
T4C0.900
; #@! TA.AperFunction,Plated,PTH,ComponentDrill
T5C1.000
; #@! TA.AperFunction,Plated,PTH,ComponentDrill
T6C1.200
%
G90
G05
T1
X85.0Y-112.0
X85.5Y-104.0
X85.5Y-127.0
X86.0Y-98.5
X86.5Y-131.0
X87.5Y-118.5
X89.0Y-125.5
X89.5Y-95.5
X90.5Y-107.5
X93.5Y-117.5
X93.5Y-127.0
X94.0Y-98.0
X94.5Y-130.5
X96.5Y-106.5
X96.5Y-124.0
X97.5Y-102.0
X98.0Y-118.0
X99.0Y-97.0
X100.5Y-127.0
X101.5Y-122.5
X102.0Y-104.5
X103.5Y-112.0
X108.0Y-107.5
X110.0Y-103.5
X111.5Y-109.5
X114.5Y-124.5
X115.0Y-115.5
X115.0Y-131.5
X115.5Y-118.5
X116.0Y-110.0
X117.0Y-96.0
X121.5Y-125.5
X122.0Y-105.5
T2
X90.876Y-116.406
X90.876Y-118.406
X90.876Y-120.406
X90.876Y-122.406
T3
X119.926Y-111.826
X119.926Y-114.366
X119.926Y-116.906
X119.926Y-119.446
T4
X102.958Y-99.457
X106.958Y-99.457
X110.958Y-99.457
T5
X86.725Y-107.46
X86.725Y-110.0
X99.854Y-129.629
X102.394Y-129.629
X104.934Y-129.629
X107.474Y-129.629
T6
X100.958Y-95.207
X100.958Y-101.207
X112.958Y-95.207
X112.958Y-101.207
M30
