%TF.GenerationSoftware,KiCad,Pcbnew,9.0.5*%
%TF.CreationDate,2025-10-25T18:26:15+02:00*%
%TF.ProjectId,humidity_sensor,68756d69-6469-4747-995f-73656e736f72,rev?*%
%TF.SameCoordinates,Original*%
%TF.FileFunction,Legend,Top*%
%TF.FilePolarity,Positive*%
%FSLAX46Y46*%
G04 Gerber Fmt 4.6, Leading zero omitted, Abs format (unit mm)*
G04 Created by KiCad (PCBNEW 9.0.5) date 2025-10-25 18:26:15*
%MOMM*%
%LPD*%
G01*
G04 APERTURE LIST*
%ADD10C,0.150000*%
%ADD11C,0.120000*%
G04 APERTURE END LIST*
D10*
X113350252Y-109484566D02*
X113350252Y-109960757D01*
X113016919Y-108960757D02*
X113350252Y-109484566D01*
X113350252Y-109484566D02*
X113683585Y-108960757D01*
X114540728Y-109960757D02*
X113969300Y-109960757D01*
X114255014Y-109960757D02*
X114255014Y-108960757D01*
X114255014Y-108960757D02*
X114159776Y-109103614D01*
X114159776Y-109103614D02*
X114064538Y-109198852D01*
X114064538Y-109198852D02*
X113969300Y-109246471D01*
X104374807Y-108779060D02*
X104139105Y-108543358D01*
X103768716Y-108913747D02*
X104475823Y-108206640D01*
X104475823Y-108206640D02*
X104812540Y-108543358D01*
X104980899Y-109385152D02*
X105048243Y-109519839D01*
X105048243Y-109519839D02*
X105048243Y-109587182D01*
X105048243Y-109587182D02*
X105014571Y-109688198D01*
X105014571Y-109688198D02*
X104913556Y-109789213D01*
X104913556Y-109789213D02*
X104812540Y-109822885D01*
X104812540Y-109822885D02*
X104745197Y-109822885D01*
X104745197Y-109822885D02*
X104644182Y-109789213D01*
X104644182Y-109789213D02*
X104374808Y-109519839D01*
X104374808Y-109519839D02*
X105081914Y-108812732D01*
X105081914Y-108812732D02*
X105317617Y-109048434D01*
X105317617Y-109048434D02*
X105351288Y-109149450D01*
X105351288Y-109149450D02*
X105351288Y-109216793D01*
X105351288Y-109216793D02*
X105317617Y-109317808D01*
X105317617Y-109317808D02*
X105250273Y-109385152D01*
X105250273Y-109385152D02*
X105149258Y-109418824D01*
X105149258Y-109418824D02*
X105081914Y-109418824D01*
X105081914Y-109418824D02*
X104980899Y-109385152D01*
X104980899Y-109385152D02*
X104745197Y-109149450D01*
X105452304Y-110597335D02*
X105048243Y-110193274D01*
X105250273Y-110395304D02*
X105957380Y-109688198D01*
X105957380Y-109688198D02*
X105789021Y-109721869D01*
X105789021Y-109721869D02*
X105654334Y-109721869D01*
X105654334Y-109721869D02*
X105553319Y-109688198D01*
X109686023Y-107698794D02*
X109733643Y-107746413D01*
X109733643Y-107746413D02*
X109781262Y-107889270D01*
X109781262Y-107889270D02*
X109781262Y-107984508D01*
X109781262Y-107984508D02*
X109733643Y-108127365D01*
X109733643Y-108127365D02*
X109638404Y-108222603D01*
X109638404Y-108222603D02*
X109543166Y-108270222D01*
X109543166Y-108270222D02*
X109352690Y-108317841D01*
X109352690Y-108317841D02*
X109209833Y-108317841D01*
X109209833Y-108317841D02*
X109019357Y-108270222D01*
X109019357Y-108270222D02*
X108924119Y-108222603D01*
X108924119Y-108222603D02*
X108828881Y-108127365D01*
X108828881Y-108127365D02*
X108781262Y-107984508D01*
X108781262Y-107984508D02*
X108781262Y-107889270D01*
X108781262Y-107889270D02*
X108828881Y-107746413D01*
X108828881Y-107746413D02*
X108876500Y-107698794D01*
X109781262Y-106746413D02*
X109781262Y-107317841D01*
X109781262Y-107032127D02*
X108781262Y-107032127D01*
X108781262Y-107032127D02*
X108924119Y-107127365D01*
X108924119Y-107127365D02*
X109019357Y-107222603D01*
X109019357Y-107222603D02*
X109066976Y-107317841D01*
X109781262Y-105794032D02*
X109781262Y-106365460D01*
X109781262Y-106079746D02*
X108781262Y-106079746D01*
X108781262Y-106079746D02*
X108924119Y-106174984D01*
X108924119Y-106174984D02*
X109019357Y-106270222D01*
X109019357Y-106270222D02*
X109066976Y-106365460D01*
X120664538Y-107860756D02*
X120664538Y-108670279D01*
X120664538Y-108670279D02*
X120712157Y-108765517D01*
X120712157Y-108765517D02*
X120759776Y-108813137D01*
X120759776Y-108813137D02*
X120855014Y-108860756D01*
X120855014Y-108860756D02*
X121045490Y-108860756D01*
X121045490Y-108860756D02*
X121140728Y-108813137D01*
X121140728Y-108813137D02*
X121188347Y-108765517D01*
X121188347Y-108765517D02*
X121235966Y-108670279D01*
X121235966Y-108670279D02*
X121235966Y-107860756D01*
X121664538Y-107955994D02*
X121712157Y-107908375D01*
X121712157Y-107908375D02*
X121807395Y-107860756D01*
X121807395Y-107860756D02*
X122045490Y-107860756D01*
X122045490Y-107860756D02*
X122140728Y-107908375D01*
X122140728Y-107908375D02*
X122188347Y-107955994D01*
X122188347Y-107955994D02*
X122235966Y-108051232D01*
X122235966Y-108051232D02*
X122235966Y-108146470D01*
X122235966Y-108146470D02*
X122188347Y-108289327D01*
X122188347Y-108289327D02*
X121616919Y-108860756D01*
X121616919Y-108860756D02*
X122235966Y-108860756D01*
X93891169Y-116599692D02*
X93823825Y-116599692D01*
X93823825Y-116599692D02*
X93689138Y-116532348D01*
X93689138Y-116532348D02*
X93621795Y-116465005D01*
X93621795Y-116465005D02*
X93554451Y-116330318D01*
X93554451Y-116330318D02*
X93554451Y-116195631D01*
X93554451Y-116195631D02*
X93588123Y-116094616D01*
X93588123Y-116094616D02*
X93689138Y-115926257D01*
X93689138Y-115926257D02*
X93790153Y-115825242D01*
X93790153Y-115825242D02*
X93958512Y-115724226D01*
X93958512Y-115724226D02*
X94059527Y-115690555D01*
X94059527Y-115690555D02*
X94194214Y-115690555D01*
X94194214Y-115690555D02*
X94328901Y-115757898D01*
X94328901Y-115757898D02*
X94396245Y-115825242D01*
X94396245Y-115825242D02*
X94463588Y-115959929D01*
X94463588Y-115959929D02*
X94463588Y-116027272D01*
X94497260Y-117340470D02*
X94093199Y-116936409D01*
X94295230Y-117138440D02*
X95002336Y-116431333D01*
X95002336Y-116431333D02*
X94833978Y-116465005D01*
X94833978Y-116465005D02*
X94699291Y-116465005D01*
X94699291Y-116465005D02*
X94598275Y-116431333D01*
X95406398Y-116970081D02*
X95473741Y-116970081D01*
X95473741Y-116970081D02*
X95574756Y-117003753D01*
X95574756Y-117003753D02*
X95743115Y-117172112D01*
X95743115Y-117172112D02*
X95776787Y-117273127D01*
X95776787Y-117273127D02*
X95776787Y-117340471D01*
X95776787Y-117340471D02*
X95743115Y-117441486D01*
X95743115Y-117441486D02*
X95675772Y-117508829D01*
X95675772Y-117508829D02*
X95541085Y-117576173D01*
X95541085Y-117576173D02*
X94732963Y-117576173D01*
X94732963Y-117576173D02*
X95170695Y-118013906D01*
X102633333Y-127054819D02*
X102300000Y-126578628D01*
X102061905Y-127054819D02*
X102061905Y-126054819D01*
X102061905Y-126054819D02*
X102442857Y-126054819D01*
X102442857Y-126054819D02*
X102538095Y-126102438D01*
X102538095Y-126102438D02*
X102585714Y-126150057D01*
X102585714Y-126150057D02*
X102633333Y-126245295D01*
X102633333Y-126245295D02*
X102633333Y-126388152D01*
X102633333Y-126388152D02*
X102585714Y-126483390D01*
X102585714Y-126483390D02*
X102538095Y-126531009D01*
X102538095Y-126531009D02*
X102442857Y-126578628D01*
X102442857Y-126578628D02*
X102061905Y-126578628D01*
X102966667Y-126054819D02*
X103585714Y-126054819D01*
X103585714Y-126054819D02*
X103252381Y-126435771D01*
X103252381Y-126435771D02*
X103395238Y-126435771D01*
X103395238Y-126435771D02*
X103490476Y-126483390D01*
X103490476Y-126483390D02*
X103538095Y-126531009D01*
X103538095Y-126531009D02*
X103585714Y-126626247D01*
X103585714Y-126626247D02*
X103585714Y-126864342D01*
X103585714Y-126864342D02*
X103538095Y-126959580D01*
X103538095Y-126959580D02*
X103490476Y-127007200D01*
X103490476Y-127007200D02*
X103395238Y-127054819D01*
X103395238Y-127054819D02*
X103109524Y-127054819D01*
X103109524Y-127054819D02*
X103014286Y-127007200D01*
X103014286Y-127007200D02*
X102966667Y-126959580D01*
X91038095Y-132654819D02*
X91038095Y-131654819D01*
X91038095Y-132131009D02*
X91609523Y-132131009D01*
X91609523Y-132654819D02*
X91609523Y-131654819D01*
X92514285Y-131988152D02*
X92514285Y-132654819D01*
X92276190Y-131607200D02*
X92038095Y-132321485D01*
X92038095Y-132321485D02*
X92657142Y-132321485D01*
X108754330Y-110642348D02*
X108686986Y-110642348D01*
X108686986Y-110642348D02*
X108552299Y-110575004D01*
X108552299Y-110575004D02*
X108484956Y-110507661D01*
X108484956Y-110507661D02*
X108417612Y-110372974D01*
X108417612Y-110372974D02*
X108417612Y-110238287D01*
X108417612Y-110238287D02*
X108451284Y-110137272D01*
X108451284Y-110137272D02*
X108552299Y-109968913D01*
X108552299Y-109968913D02*
X108653314Y-109867898D01*
X108653314Y-109867898D02*
X108821673Y-109766882D01*
X108821673Y-109766882D02*
X108922688Y-109733211D01*
X108922688Y-109733211D02*
X109057375Y-109733211D01*
X109057375Y-109733211D02*
X109192062Y-109800554D01*
X109192062Y-109800554D02*
X109259406Y-109867898D01*
X109259406Y-109867898D02*
X109326749Y-110002585D01*
X109326749Y-110002585D02*
X109326749Y-110069928D01*
X110000184Y-110608676D02*
X109865497Y-110473989D01*
X109865497Y-110473989D02*
X109764482Y-110440317D01*
X109764482Y-110440317D02*
X109697139Y-110440317D01*
X109697139Y-110440317D02*
X109528780Y-110473989D01*
X109528780Y-110473989D02*
X109360421Y-110575004D01*
X109360421Y-110575004D02*
X109091047Y-110844378D01*
X109091047Y-110844378D02*
X109057375Y-110945394D01*
X109057375Y-110945394D02*
X109057375Y-111012737D01*
X109057375Y-111012737D02*
X109091047Y-111113752D01*
X109091047Y-111113752D02*
X109225734Y-111248439D01*
X109225734Y-111248439D02*
X109326749Y-111282111D01*
X109326749Y-111282111D02*
X109394093Y-111282111D01*
X109394093Y-111282111D02*
X109495108Y-111248439D01*
X109495108Y-111248439D02*
X109663467Y-111080081D01*
X109663467Y-111080081D02*
X109697139Y-110979065D01*
X109697139Y-110979065D02*
X109697139Y-110911722D01*
X109697139Y-110911722D02*
X109663467Y-110810707D01*
X109663467Y-110810707D02*
X109528780Y-110676020D01*
X109528780Y-110676020D02*
X109427765Y-110642348D01*
X109427765Y-110642348D02*
X109360421Y-110642348D01*
X109360421Y-110642348D02*
X109259406Y-110676020D01*
X112625243Y-130003754D02*
X113130319Y-130508830D01*
X113130319Y-130508830D02*
X113197662Y-130643517D01*
X113197662Y-130643517D02*
X113197662Y-130778204D01*
X113197662Y-130778204D02*
X113130319Y-130912891D01*
X113130319Y-130912891D02*
X113062975Y-130980235D01*
X113669067Y-130374143D02*
X112961960Y-129667036D01*
X112961960Y-129667036D02*
X113231334Y-129397662D01*
X113231334Y-129397662D02*
X113332350Y-129363991D01*
X113332350Y-129363991D02*
X113399693Y-129363991D01*
X113399693Y-129363991D02*
X113500708Y-129397662D01*
X113500708Y-129397662D02*
X113601724Y-129498678D01*
X113601724Y-129498678D02*
X113635395Y-129599693D01*
X113635395Y-129599693D02*
X113635395Y-129667036D01*
X113635395Y-129667036D02*
X113601724Y-129768052D01*
X113601724Y-129768052D02*
X113332350Y-130037426D01*
X114746563Y-129296647D02*
X114342502Y-129700708D01*
X114544533Y-129498678D02*
X113837426Y-128791571D01*
X113837426Y-128791571D02*
X113871098Y-128959930D01*
X113871098Y-128959930D02*
X113871098Y-129094617D01*
X113871098Y-129094617D02*
X113837426Y-129195632D01*
X96566667Y-95307200D02*
X96709524Y-95354819D01*
X96709524Y-95354819D02*
X96947619Y-95354819D01*
X96947619Y-95354819D02*
X97042857Y-95307200D01*
X97042857Y-95307200D02*
X97090476Y-95259580D01*
X97090476Y-95259580D02*
X97138095Y-95164342D01*
X97138095Y-95164342D02*
X97138095Y-95069104D01*
X97138095Y-95069104D02*
X97090476Y-94973866D01*
X97090476Y-94973866D02*
X97042857Y-94926247D01*
X97042857Y-94926247D02*
X96947619Y-94878628D01*
X96947619Y-94878628D02*
X96757143Y-94831009D01*
X96757143Y-94831009D02*
X96661905Y-94783390D01*
X96661905Y-94783390D02*
X96614286Y-94735771D01*
X96614286Y-94735771D02*
X96566667Y-94640533D01*
X96566667Y-94640533D02*
X96566667Y-94545295D01*
X96566667Y-94545295D02*
X96614286Y-94450057D01*
X96614286Y-94450057D02*
X96661905Y-94402438D01*
X96661905Y-94402438D02*
X96757143Y-94354819D01*
X96757143Y-94354819D02*
X96995238Y-94354819D01*
X96995238Y-94354819D02*
X97138095Y-94402438D01*
X97471429Y-94354819D02*
X97709524Y-95354819D01*
X97709524Y-95354819D02*
X97900000Y-94640533D01*
X97900000Y-94640533D02*
X98090476Y-95354819D01*
X98090476Y-95354819D02*
X98328572Y-94354819D01*
X99233333Y-95354819D02*
X98661905Y-95354819D01*
X98947619Y-95354819D02*
X98947619Y-94354819D01*
X98947619Y-94354819D02*
X98852381Y-94497676D01*
X98852381Y-94497676D02*
X98757143Y-94592914D01*
X98757143Y-94592914D02*
X98661905Y-94640533D01*
X85664538Y-97360756D02*
X85664538Y-96360756D01*
X85664538Y-96836946D02*
X86235966Y-96836946D01*
X86235966Y-97360756D02*
X86235966Y-96360756D01*
X87235966Y-97360756D02*
X86664538Y-97360756D01*
X86950252Y-97360756D02*
X86950252Y-96360756D01*
X86950252Y-96360756D02*
X86855014Y-96503613D01*
X86855014Y-96503613D02*
X86759776Y-96598851D01*
X86759776Y-96598851D02*
X86664538Y-96646470D01*
X89853230Y-111987632D02*
X89785886Y-111987632D01*
X89785886Y-111987632D02*
X89651199Y-111920288D01*
X89651199Y-111920288D02*
X89583856Y-111852945D01*
X89583856Y-111852945D02*
X89516512Y-111718258D01*
X89516512Y-111718258D02*
X89516512Y-111583571D01*
X89516512Y-111583571D02*
X89550184Y-111482556D01*
X89550184Y-111482556D02*
X89651199Y-111314197D01*
X89651199Y-111314197D02*
X89752214Y-111213182D01*
X89752214Y-111213182D02*
X89920573Y-111112166D01*
X89920573Y-111112166D02*
X90021588Y-111078495D01*
X90021588Y-111078495D02*
X90156275Y-111078495D01*
X90156275Y-111078495D02*
X90290962Y-111145838D01*
X90290962Y-111145838D02*
X90358306Y-111213182D01*
X90358306Y-111213182D02*
X90425649Y-111347869D01*
X90425649Y-111347869D02*
X90425649Y-111415212D01*
X90459321Y-112728410D02*
X90055260Y-112324349D01*
X90257291Y-112526380D02*
X90964397Y-111819273D01*
X90964397Y-111819273D02*
X90796039Y-111852945D01*
X90796039Y-111852945D02*
X90661352Y-111852945D01*
X90661352Y-111852945D02*
X90560336Y-111819273D01*
X91402130Y-112257006D02*
X91839863Y-112694739D01*
X91839863Y-112694739D02*
X91334787Y-112728411D01*
X91334787Y-112728411D02*
X91435802Y-112829426D01*
X91435802Y-112829426D02*
X91469474Y-112930441D01*
X91469474Y-112930441D02*
X91469474Y-112997785D01*
X91469474Y-112997785D02*
X91435802Y-113098800D01*
X91435802Y-113098800D02*
X91267443Y-113267159D01*
X91267443Y-113267159D02*
X91166428Y-113300830D01*
X91166428Y-113300830D02*
X91099085Y-113300830D01*
X91099085Y-113300830D02*
X90998069Y-113267159D01*
X90998069Y-113267159D02*
X90796039Y-113065128D01*
X90796039Y-113065128D02*
X90762367Y-112964113D01*
X90762367Y-112964113D02*
X90762367Y-112896769D01*
X113562854Y-114028049D02*
X113562854Y-114095393D01*
X113562854Y-114095393D02*
X113495510Y-114230080D01*
X113495510Y-114230080D02*
X113428167Y-114297423D01*
X113428167Y-114297423D02*
X113293480Y-114364767D01*
X113293480Y-114364767D02*
X113158793Y-114364767D01*
X113158793Y-114364767D02*
X113057778Y-114331095D01*
X113057778Y-114331095D02*
X112889419Y-114230080D01*
X112889419Y-114230080D02*
X112788404Y-114129065D01*
X112788404Y-114129065D02*
X112687388Y-113960706D01*
X112687388Y-113960706D02*
X112653717Y-113859691D01*
X112653717Y-113859691D02*
X112653717Y-113725004D01*
X112653717Y-113725004D02*
X112721060Y-113590317D01*
X112721060Y-113590317D02*
X112788404Y-113522973D01*
X112788404Y-113522973D02*
X112923091Y-113455630D01*
X112923091Y-113455630D02*
X112990434Y-113455630D01*
X113966915Y-113758675D02*
X114101602Y-113623988D01*
X114101602Y-113623988D02*
X114135274Y-113522973D01*
X114135274Y-113522973D02*
X114135274Y-113455630D01*
X114135274Y-113455630D02*
X114101602Y-113287271D01*
X114101602Y-113287271D02*
X114000587Y-113118912D01*
X114000587Y-113118912D02*
X113731213Y-112849538D01*
X113731213Y-112849538D02*
X113630197Y-112815866D01*
X113630197Y-112815866D02*
X113562854Y-112815866D01*
X113562854Y-112815866D02*
X113461839Y-112849538D01*
X113461839Y-112849538D02*
X113327152Y-112984225D01*
X113327152Y-112984225D02*
X113293480Y-113085240D01*
X113293480Y-113085240D02*
X113293480Y-113152584D01*
X113293480Y-113152584D02*
X113327152Y-113253599D01*
X113327152Y-113253599D02*
X113495510Y-113421958D01*
X113495510Y-113421958D02*
X113596526Y-113455630D01*
X113596526Y-113455630D02*
X113663869Y-113455630D01*
X113663869Y-113455630D02*
X113764884Y-113421958D01*
X113764884Y-113421958D02*
X113899571Y-113287271D01*
X113899571Y-113287271D02*
X113933243Y-113186256D01*
X113933243Y-113186256D02*
X113933243Y-113118912D01*
X113933243Y-113118912D02*
X113899571Y-113017897D01*
X93893769Y-105471265D02*
X94466189Y-106043685D01*
X94466189Y-106043685D02*
X94567204Y-106077357D01*
X94567204Y-106077357D02*
X94634548Y-106077357D01*
X94634548Y-106077357D02*
X94735563Y-106043685D01*
X94735563Y-106043685D02*
X94870250Y-105908998D01*
X94870250Y-105908998D02*
X94903922Y-105807983D01*
X94903922Y-105807983D02*
X94903922Y-105740639D01*
X94903922Y-105740639D02*
X94870250Y-105639624D01*
X94870250Y-105639624D02*
X94297830Y-105067204D01*
X95173296Y-104663143D02*
X95644700Y-105134548D01*
X94735563Y-104562128D02*
X95072281Y-105235563D01*
X95072281Y-105235563D02*
X95510013Y-104797830D01*
X109854329Y-109442348D02*
X109786985Y-109442348D01*
X109786985Y-109442348D02*
X109652298Y-109375004D01*
X109652298Y-109375004D02*
X109584955Y-109307661D01*
X109584955Y-109307661D02*
X109517611Y-109172974D01*
X109517611Y-109172974D02*
X109517611Y-109038287D01*
X109517611Y-109038287D02*
X109551283Y-108937272D01*
X109551283Y-108937272D02*
X109652298Y-108768913D01*
X109652298Y-108768913D02*
X109753313Y-108667898D01*
X109753313Y-108667898D02*
X109921672Y-108566882D01*
X109921672Y-108566882D02*
X110022687Y-108533211D01*
X110022687Y-108533211D02*
X110157374Y-108533211D01*
X110157374Y-108533211D02*
X110292061Y-108600554D01*
X110292061Y-108600554D02*
X110359405Y-108667898D01*
X110359405Y-108667898D02*
X110426748Y-108802585D01*
X110426748Y-108802585D02*
X110426748Y-108869928D01*
X110595107Y-109509691D02*
X110561435Y-109408676D01*
X110561435Y-109408676D02*
X110561435Y-109341333D01*
X110561435Y-109341333D02*
X110595107Y-109240317D01*
X110595107Y-109240317D02*
X110628779Y-109206646D01*
X110628779Y-109206646D02*
X110729794Y-109172974D01*
X110729794Y-109172974D02*
X110797138Y-109172974D01*
X110797138Y-109172974D02*
X110898153Y-109206646D01*
X110898153Y-109206646D02*
X111032840Y-109341333D01*
X111032840Y-109341333D02*
X111066512Y-109442348D01*
X111066512Y-109442348D02*
X111066512Y-109509691D01*
X111066512Y-109509691D02*
X111032840Y-109610707D01*
X111032840Y-109610707D02*
X110999168Y-109644378D01*
X110999168Y-109644378D02*
X110898153Y-109678050D01*
X110898153Y-109678050D02*
X110830809Y-109678050D01*
X110830809Y-109678050D02*
X110729794Y-109644378D01*
X110729794Y-109644378D02*
X110595107Y-109509691D01*
X110595107Y-109509691D02*
X110494092Y-109476020D01*
X110494092Y-109476020D02*
X110426748Y-109476020D01*
X110426748Y-109476020D02*
X110325733Y-109509691D01*
X110325733Y-109509691D02*
X110191046Y-109644378D01*
X110191046Y-109644378D02*
X110157374Y-109745394D01*
X110157374Y-109745394D02*
X110157374Y-109812737D01*
X110157374Y-109812737D02*
X110191046Y-109913752D01*
X110191046Y-109913752D02*
X110325733Y-110048439D01*
X110325733Y-110048439D02*
X110426748Y-110082111D01*
X110426748Y-110082111D02*
X110494092Y-110082111D01*
X110494092Y-110082111D02*
X110595107Y-110048439D01*
X110595107Y-110048439D02*
X110729794Y-109913752D01*
X110729794Y-109913752D02*
X110763466Y-109812737D01*
X110763466Y-109812737D02*
X110763466Y-109745394D01*
X110763466Y-109745394D02*
X110729794Y-109644378D01*
X111515815Y-124222765D02*
X110943396Y-124121750D01*
X111111754Y-124626826D02*
X110404648Y-123919719D01*
X110404648Y-123919719D02*
X110674022Y-123650345D01*
X110674022Y-123650345D02*
X110775037Y-123616673D01*
X110775037Y-123616673D02*
X110842380Y-123616673D01*
X110842380Y-123616673D02*
X110943396Y-123650345D01*
X110943396Y-123650345D02*
X111044411Y-123751360D01*
X111044411Y-123751360D02*
X111078083Y-123852376D01*
X111078083Y-123852376D02*
X111078083Y-123919719D01*
X111078083Y-123919719D02*
X111044411Y-124020734D01*
X111044411Y-124020734D02*
X110775037Y-124290108D01*
X112189250Y-123549330D02*
X111785189Y-123953391D01*
X111987220Y-123751360D02*
X111280113Y-123044254D01*
X111280113Y-123044254D02*
X111313785Y-123212612D01*
X111313785Y-123212612D02*
X111313785Y-123347299D01*
X111313785Y-123347299D02*
X111280113Y-123448315D01*
X92881262Y-119739270D02*
X93595547Y-119739270D01*
X93595547Y-119739270D02*
X93738404Y-119786889D01*
X93738404Y-119786889D02*
X93833643Y-119882127D01*
X93833643Y-119882127D02*
X93881262Y-120024984D01*
X93881262Y-120024984D02*
X93881262Y-120120222D01*
X93881262Y-118739270D02*
X93881262Y-119310698D01*
X93881262Y-119024984D02*
X92881262Y-119024984D01*
X92881262Y-119024984D02*
X93024119Y-119120222D01*
X93024119Y-119120222D02*
X93119357Y-119215460D01*
X93119357Y-119215460D02*
X93166976Y-119310698D01*
X105259776Y-104265517D02*
X105212157Y-104313137D01*
X105212157Y-104313137D02*
X105069300Y-104360756D01*
X105069300Y-104360756D02*
X104974062Y-104360756D01*
X104974062Y-104360756D02*
X104831205Y-104313137D01*
X104831205Y-104313137D02*
X104735967Y-104217898D01*
X104735967Y-104217898D02*
X104688348Y-104122660D01*
X104688348Y-104122660D02*
X104640729Y-103932184D01*
X104640729Y-103932184D02*
X104640729Y-103789327D01*
X104640729Y-103789327D02*
X104688348Y-103598851D01*
X104688348Y-103598851D02*
X104735967Y-103503613D01*
X104735967Y-103503613D02*
X104831205Y-103408375D01*
X104831205Y-103408375D02*
X104974062Y-103360756D01*
X104974062Y-103360756D02*
X105069300Y-103360756D01*
X105069300Y-103360756D02*
X105212157Y-103408375D01*
X105212157Y-103408375D02*
X105259776Y-103455994D01*
X105593110Y-103360756D02*
X106259776Y-103360756D01*
X106259776Y-103360756D02*
X105831205Y-104360756D01*
X86391666Y-112224819D02*
X86391666Y-112939104D01*
X86391666Y-112939104D02*
X86344047Y-113081961D01*
X86344047Y-113081961D02*
X86248809Y-113177200D01*
X86248809Y-113177200D02*
X86105952Y-113224819D01*
X86105952Y-113224819D02*
X86010714Y-113224819D01*
X86772619Y-112224819D02*
X87391666Y-112224819D01*
X87391666Y-112224819D02*
X87058333Y-112605771D01*
X87058333Y-112605771D02*
X87201190Y-112605771D01*
X87201190Y-112605771D02*
X87296428Y-112653390D01*
X87296428Y-112653390D02*
X87344047Y-112701009D01*
X87344047Y-112701009D02*
X87391666Y-112796247D01*
X87391666Y-112796247D02*
X87391666Y-113034342D01*
X87391666Y-113034342D02*
X87344047Y-113129580D01*
X87344047Y-113129580D02*
X87296428Y-113177200D01*
X87296428Y-113177200D02*
X87201190Y-113224819D01*
X87201190Y-113224819D02*
X86915476Y-113224819D01*
X86915476Y-113224819D02*
X86820238Y-113177200D01*
X86820238Y-113177200D02*
X86772619Y-113129580D01*
X99742610Y-113957805D02*
X99742610Y-114025149D01*
X99742610Y-114025149D02*
X99675266Y-114159836D01*
X99675266Y-114159836D02*
X99607923Y-114227179D01*
X99607923Y-114227179D02*
X99473236Y-114294523D01*
X99473236Y-114294523D02*
X99338549Y-114294523D01*
X99338549Y-114294523D02*
X99237534Y-114260851D01*
X99237534Y-114260851D02*
X99069175Y-114159836D01*
X99069175Y-114159836D02*
X98968160Y-114058821D01*
X98968160Y-114058821D02*
X98867144Y-113890462D01*
X98867144Y-113890462D02*
X98833473Y-113789447D01*
X98833473Y-113789447D02*
X98833473Y-113654760D01*
X98833473Y-113654760D02*
X98900816Y-113520073D01*
X98900816Y-113520073D02*
X98968160Y-113452729D01*
X98968160Y-113452729D02*
X99102847Y-113385386D01*
X99102847Y-113385386D02*
X99170190Y-113385386D01*
X100483388Y-113351714D02*
X100079327Y-113755775D01*
X100281358Y-113553744D02*
X99574251Y-112846638D01*
X99574251Y-112846638D02*
X99607923Y-113014996D01*
X99607923Y-113014996D02*
X99607923Y-113149683D01*
X99607923Y-113149683D02*
X99574251Y-113250699D01*
X120664538Y-97360756D02*
X120664538Y-96360756D01*
X120664538Y-96836946D02*
X121235966Y-96836946D01*
X121235966Y-97360756D02*
X121235966Y-96360756D01*
X121664538Y-96455994D02*
X121712157Y-96408375D01*
X121712157Y-96408375D02*
X121807395Y-96360756D01*
X121807395Y-96360756D02*
X122045490Y-96360756D01*
X122045490Y-96360756D02*
X122140728Y-96408375D01*
X122140728Y-96408375D02*
X122188347Y-96455994D01*
X122188347Y-96455994D02*
X122235966Y-96551232D01*
X122235966Y-96551232D02*
X122235966Y-96646470D01*
X122235966Y-96646470D02*
X122188347Y-96789327D01*
X122188347Y-96789327D02*
X121616919Y-97360756D01*
X121616919Y-97360756D02*
X122235966Y-97360756D01*
X118686023Y-107198794D02*
X118733643Y-107246413D01*
X118733643Y-107246413D02*
X118781262Y-107389270D01*
X118781262Y-107389270D02*
X118781262Y-107484508D01*
X118781262Y-107484508D02*
X118733643Y-107627365D01*
X118733643Y-107627365D02*
X118638404Y-107722603D01*
X118638404Y-107722603D02*
X118543166Y-107770222D01*
X118543166Y-107770222D02*
X118352690Y-107817841D01*
X118352690Y-107817841D02*
X118209833Y-107817841D01*
X118209833Y-107817841D02*
X118019357Y-107770222D01*
X118019357Y-107770222D02*
X117924119Y-107722603D01*
X117924119Y-107722603D02*
X117828881Y-107627365D01*
X117828881Y-107627365D02*
X117781262Y-107484508D01*
X117781262Y-107484508D02*
X117781262Y-107389270D01*
X117781262Y-107389270D02*
X117828881Y-107246413D01*
X117828881Y-107246413D02*
X117876500Y-107198794D01*
X118781262Y-106246413D02*
X118781262Y-106817841D01*
X118781262Y-106532127D02*
X117781262Y-106532127D01*
X117781262Y-106532127D02*
X117924119Y-106627365D01*
X117924119Y-106627365D02*
X118019357Y-106722603D01*
X118019357Y-106722603D02*
X118066976Y-106817841D01*
X117781262Y-105627365D02*
X117781262Y-105532127D01*
X117781262Y-105532127D02*
X117828881Y-105436889D01*
X117828881Y-105436889D02*
X117876500Y-105389270D01*
X117876500Y-105389270D02*
X117971738Y-105341651D01*
X117971738Y-105341651D02*
X118162214Y-105294032D01*
X118162214Y-105294032D02*
X118400309Y-105294032D01*
X118400309Y-105294032D02*
X118590785Y-105341651D01*
X118590785Y-105341651D02*
X118686023Y-105389270D01*
X118686023Y-105389270D02*
X118733643Y-105436889D01*
X118733643Y-105436889D02*
X118781262Y-105532127D01*
X118781262Y-105532127D02*
X118781262Y-105627365D01*
X118781262Y-105627365D02*
X118733643Y-105722603D01*
X118733643Y-105722603D02*
X118686023Y-105770222D01*
X118686023Y-105770222D02*
X118590785Y-105817841D01*
X118590785Y-105817841D02*
X118400309Y-105865460D01*
X118400309Y-105865460D02*
X118162214Y-105865460D01*
X118162214Y-105865460D02*
X117971738Y-105817841D01*
X117971738Y-105817841D02*
X117876500Y-105770222D01*
X117876500Y-105770222D02*
X117828881Y-105722603D01*
X117828881Y-105722603D02*
X117781262Y-105627365D01*
X114206655Y-121692356D02*
X114206655Y-121759700D01*
X114206655Y-121759700D02*
X114139311Y-121894387D01*
X114139311Y-121894387D02*
X114071968Y-121961730D01*
X114071968Y-121961730D02*
X113937281Y-122029074D01*
X113937281Y-122029074D02*
X113802594Y-122029074D01*
X113802594Y-122029074D02*
X113701579Y-121995402D01*
X113701579Y-121995402D02*
X113533220Y-121894387D01*
X113533220Y-121894387D02*
X113432205Y-121793372D01*
X113432205Y-121793372D02*
X113331189Y-121625013D01*
X113331189Y-121625013D02*
X113297518Y-121523998D01*
X113297518Y-121523998D02*
X113297518Y-121389311D01*
X113297518Y-121389311D02*
X113364861Y-121254624D01*
X113364861Y-121254624D02*
X113432205Y-121187280D01*
X113432205Y-121187280D02*
X113566892Y-121119937D01*
X113566892Y-121119937D02*
X113634235Y-121119937D01*
X113903609Y-120850563D02*
X113903609Y-120783219D01*
X113903609Y-120783219D02*
X113937281Y-120682204D01*
X113937281Y-120682204D02*
X114105640Y-120513845D01*
X114105640Y-120513845D02*
X114206655Y-120480173D01*
X114206655Y-120480173D02*
X114273998Y-120480173D01*
X114273998Y-120480173D02*
X114375014Y-120513845D01*
X114375014Y-120513845D02*
X114442357Y-120581189D01*
X114442357Y-120581189D02*
X114509701Y-120715876D01*
X114509701Y-120715876D02*
X114509701Y-121523998D01*
X114509701Y-121523998D02*
X114947433Y-121086265D01*
X113959580Y-118166666D02*
X114007200Y-118214285D01*
X114007200Y-118214285D02*
X114054819Y-118357142D01*
X114054819Y-118357142D02*
X114054819Y-118452380D01*
X114054819Y-118452380D02*
X114007200Y-118595237D01*
X114007200Y-118595237D02*
X113911961Y-118690475D01*
X113911961Y-118690475D02*
X113816723Y-118738094D01*
X113816723Y-118738094D02*
X113626247Y-118785713D01*
X113626247Y-118785713D02*
X113483390Y-118785713D01*
X113483390Y-118785713D02*
X113292914Y-118738094D01*
X113292914Y-118738094D02*
X113197676Y-118690475D01*
X113197676Y-118690475D02*
X113102438Y-118595237D01*
X113102438Y-118595237D02*
X113054819Y-118452380D01*
X113054819Y-118452380D02*
X113054819Y-118357142D01*
X113054819Y-118357142D02*
X113102438Y-118214285D01*
X113102438Y-118214285D02*
X113150057Y-118166666D01*
X113388152Y-117309523D02*
X114054819Y-117309523D01*
X113007200Y-117547618D02*
X113721485Y-117785713D01*
X113721485Y-117785713D02*
X113721485Y-117166666D01*
X114938095Y-133154819D02*
X114938095Y-132154819D01*
X114938095Y-132631009D02*
X115509523Y-132631009D01*
X115509523Y-133154819D02*
X115509523Y-132154819D01*
X115890476Y-132154819D02*
X116509523Y-132154819D01*
X116509523Y-132154819D02*
X116176190Y-132535771D01*
X116176190Y-132535771D02*
X116319047Y-132535771D01*
X116319047Y-132535771D02*
X116414285Y-132583390D01*
X116414285Y-132583390D02*
X116461904Y-132631009D01*
X116461904Y-132631009D02*
X116509523Y-132726247D01*
X116509523Y-132726247D02*
X116509523Y-132964342D01*
X116509523Y-132964342D02*
X116461904Y-133059580D01*
X116461904Y-133059580D02*
X116414285Y-133107200D01*
X116414285Y-133107200D02*
X116319047Y-133154819D01*
X116319047Y-133154819D02*
X116033333Y-133154819D01*
X116033333Y-133154819D02*
X115938095Y-133107200D01*
X115938095Y-133107200D02*
X115890476Y-133059580D01*
X116454142Y-123968128D02*
X116454142Y-124035472D01*
X116454142Y-124035472D02*
X116386798Y-124170159D01*
X116386798Y-124170159D02*
X116319455Y-124237502D01*
X116319455Y-124237502D02*
X116184768Y-124304846D01*
X116184768Y-124304846D02*
X116050081Y-124304846D01*
X116050081Y-124304846D02*
X115949066Y-124271174D01*
X115949066Y-124271174D02*
X115780707Y-124170159D01*
X115780707Y-124170159D02*
X115679692Y-124069144D01*
X115679692Y-124069144D02*
X115578676Y-123900785D01*
X115578676Y-123900785D02*
X115545005Y-123799770D01*
X115545005Y-123799770D02*
X115545005Y-123665083D01*
X115545005Y-123665083D02*
X115612348Y-123530396D01*
X115612348Y-123530396D02*
X115679692Y-123463052D01*
X115679692Y-123463052D02*
X115814379Y-123395709D01*
X115814379Y-123395709D02*
X115881722Y-123395709D01*
X116454142Y-122688602D02*
X116117424Y-123025319D01*
X116117424Y-123025319D02*
X116420470Y-123395709D01*
X116420470Y-123395709D02*
X116420470Y-123328365D01*
X116420470Y-123328365D02*
X116454142Y-123227350D01*
X116454142Y-123227350D02*
X116622501Y-123058991D01*
X116622501Y-123058991D02*
X116723516Y-123025319D01*
X116723516Y-123025319D02*
X116790859Y-123025319D01*
X116790859Y-123025319D02*
X116891875Y-123058991D01*
X116891875Y-123058991D02*
X117060233Y-123227350D01*
X117060233Y-123227350D02*
X117093905Y-123328365D01*
X117093905Y-123328365D02*
X117093905Y-123395709D01*
X117093905Y-123395709D02*
X117060233Y-123496724D01*
X117060233Y-123496724D02*
X116891875Y-123665083D01*
X116891875Y-123665083D02*
X116790859Y-123698754D01*
X116790859Y-123698754D02*
X116723516Y-123698754D01*
X102054330Y-124542348D02*
X101986986Y-124542348D01*
X101986986Y-124542348D02*
X101852299Y-124475004D01*
X101852299Y-124475004D02*
X101784956Y-124407661D01*
X101784956Y-124407661D02*
X101717612Y-124272974D01*
X101717612Y-124272974D02*
X101717612Y-124138287D01*
X101717612Y-124138287D02*
X101751284Y-124037272D01*
X101751284Y-124037272D02*
X101852299Y-123868913D01*
X101852299Y-123868913D02*
X101953314Y-123767898D01*
X101953314Y-123767898D02*
X102121673Y-123666882D01*
X102121673Y-123666882D02*
X102222688Y-123633211D01*
X102222688Y-123633211D02*
X102357375Y-123633211D01*
X102357375Y-123633211D02*
X102492062Y-123700554D01*
X102492062Y-123700554D02*
X102559406Y-123767898D01*
X102559406Y-123767898D02*
X102626749Y-123902585D01*
X102626749Y-123902585D02*
X102626749Y-123969928D01*
X102929795Y-124138287D02*
X103367528Y-124576020D01*
X103367528Y-124576020D02*
X102862452Y-124609691D01*
X102862452Y-124609691D02*
X102963467Y-124710707D01*
X102963467Y-124710707D02*
X102997139Y-124811722D01*
X102997139Y-124811722D02*
X102997139Y-124879065D01*
X102997139Y-124879065D02*
X102963467Y-124980081D01*
X102963467Y-124980081D02*
X102795108Y-125148439D01*
X102795108Y-125148439D02*
X102694093Y-125182111D01*
X102694093Y-125182111D02*
X102626749Y-125182111D01*
X102626749Y-125182111D02*
X102525734Y-125148439D01*
X102525734Y-125148439D02*
X102323704Y-124946409D01*
X102323704Y-124946409D02*
X102290032Y-124845394D01*
X102290032Y-124845394D02*
X102290032Y-124778050D01*
X110138768Y-121695758D02*
X110711188Y-122268178D01*
X110711188Y-122268178D02*
X110812203Y-122301850D01*
X110812203Y-122301850D02*
X110879547Y-122301850D01*
X110879547Y-122301850D02*
X110980562Y-122268178D01*
X110980562Y-122268178D02*
X111115249Y-122133491D01*
X111115249Y-122133491D02*
X111148921Y-122032476D01*
X111148921Y-122032476D02*
X111148921Y-121965132D01*
X111148921Y-121965132D02*
X111115249Y-121864117D01*
X111115249Y-121864117D02*
X110542829Y-121291697D01*
X111957043Y-121291697D02*
X111552982Y-121695758D01*
X111755012Y-121493728D02*
X111047906Y-120786621D01*
X111047906Y-120786621D02*
X111081577Y-120954980D01*
X111081577Y-120954980D02*
X111081577Y-121089667D01*
X111081577Y-121089667D02*
X111047906Y-121190682D01*
X107833333Y-128374819D02*
X107500000Y-127898628D01*
X107261905Y-128374819D02*
X107261905Y-127374819D01*
X107261905Y-127374819D02*
X107642857Y-127374819D01*
X107642857Y-127374819D02*
X107738095Y-127422438D01*
X107738095Y-127422438D02*
X107785714Y-127470057D01*
X107785714Y-127470057D02*
X107833333Y-127565295D01*
X107833333Y-127565295D02*
X107833333Y-127708152D01*
X107833333Y-127708152D02*
X107785714Y-127803390D01*
X107785714Y-127803390D02*
X107738095Y-127851009D01*
X107738095Y-127851009D02*
X107642857Y-127898628D01*
X107642857Y-127898628D02*
X107261905Y-127898628D01*
X108214286Y-127470057D02*
X108261905Y-127422438D01*
X108261905Y-127422438D02*
X108357143Y-127374819D01*
X108357143Y-127374819D02*
X108595238Y-127374819D01*
X108595238Y-127374819D02*
X108690476Y-127422438D01*
X108690476Y-127422438D02*
X108738095Y-127470057D01*
X108738095Y-127470057D02*
X108785714Y-127565295D01*
X108785714Y-127565295D02*
X108785714Y-127660533D01*
X108785714Y-127660533D02*
X108738095Y-127803390D01*
X108738095Y-127803390D02*
X108166667Y-128374819D01*
X108166667Y-128374819D02*
X108785714Y-128374819D01*
D11*
%TO.C,Y1*%
X115886443Y-105345936D02*
X111766443Y-105345936D01*
X115886443Y-108765938D02*
X115886443Y-105345936D01*
%TO.C,FB1*%
X105680921Y-108881664D02*
X105450716Y-108651459D01*
X106402170Y-108160415D02*
X106171965Y-107930210D01*
%TO.C,C11*%
X110466443Y-106968101D02*
X110466443Y-107183773D01*
X111186443Y-106968101D02*
X111186443Y-107183773D01*
%TO.C,U2*%
X116766443Y-109225937D02*
X116766443Y-111225937D01*
X116766443Y-109225937D02*
X118376443Y-109225937D01*
X117046443Y-121765937D02*
X117046443Y-109515937D01*
X117056443Y-109505937D02*
X122796443Y-109505937D01*
X122806443Y-109505937D02*
X122806443Y-121765937D01*
X122806443Y-121765937D02*
X117046443Y-121765937D01*
%TO.C,C12*%
X94915010Y-115454457D02*
X94545543Y-115084990D01*
X95954457Y-114415010D02*
X95584990Y-114045543D01*
%TO.C,R3*%
X104846359Y-126370000D02*
X105153641Y-126370000D01*
X104846359Y-127130000D02*
X105153641Y-127130000D01*
%TO.C,C6*%
X110095633Y-112334244D02*
X110248136Y-112486747D01*
X110604750Y-111825127D02*
X110757253Y-111977630D01*
%TO.C,JP1*%
X111302944Y-127532843D02*
X113282843Y-125552944D01*
X111762563Y-128911701D02*
X111338299Y-128487437D01*
X113000000Y-125128680D02*
X112575736Y-125552944D01*
X113000000Y-125552944D02*
X112575736Y-125552944D01*
X113000000Y-125552944D02*
X113000000Y-125128680D01*
X114237437Y-125588299D02*
X114661701Y-126012563D01*
X114697056Y-126967157D02*
X112717157Y-128947056D01*
X111338299Y-128487437D02*
G75*
G02*
X111338299Y-127497487I494975J494975D01*
G01*
X112752513Y-128911701D02*
G75*
G02*
X111762563Y-128911701I-494975J494975D01*
G01*
X113247487Y-125588299D02*
G75*
G02*
X114237437Y-125588299I494975J-494973D01*
G01*
X114661701Y-126012563D02*
G75*
G02*
X114661701Y-127002513I-494973J-494975D01*
G01*
%TO.C,SW1*%
X99957501Y-100807500D02*
X99957501Y-95607499D01*
X102007501Y-94857500D02*
X111907501Y-94857500D01*
X111907501Y-101557500D02*
X102007501Y-101557500D01*
X113957501Y-95607500D02*
X113957501Y-100807500D01*
X114257501Y-101207499D02*
X114257501Y-102507500D01*
X114257501Y-102507500D02*
X112957501Y-102507500D01*
%TO.C,C13*%
X91415010Y-111704457D02*
X91045543Y-111334990D01*
X92454457Y-110665010D02*
X92084990Y-110295543D01*
%TO.C,C9*%
X112248136Y-112325127D02*
X112095633Y-112477630D01*
X112757253Y-112834244D02*
X112604750Y-112986747D01*
%TO.C,U4*%
X94280618Y-107396913D02*
X96939340Y-104738192D01*
X96939340Y-104738192D02*
X97830294Y-105629146D01*
X99103087Y-112219382D02*
X101761808Y-109560660D01*
X101761808Y-109560660D02*
X100870854Y-108669706D01*
X93446232Y-108372721D02*
X93043181Y-108309081D01*
X93382593Y-107969670D01*
X93446232Y-108372721D01*
G36*
X93446232Y-108372721D02*
G01*
X93043181Y-108309081D01*
X93382593Y-107969670D01*
X93446232Y-108372721D01*
G37*
%TO.C,C8*%
X111095633Y-111334244D02*
X111248136Y-111486747D01*
X111604750Y-110825127D02*
X111757253Y-110977630D01*
%TO.C,R1*%
X111762035Y-124450564D02*
X111979316Y-124233283D01*
X112299436Y-124987965D02*
X112516717Y-124770684D01*
%TO.C,J1*%
X84516442Y-116905937D02*
X88876443Y-116905937D01*
X84516443Y-114345937D02*
X84516443Y-124465937D01*
X84516443Y-124465937D02*
X92336443Y-124465937D01*
X86776443Y-115105937D02*
X86776443Y-116105937D01*
X86776443Y-115605937D02*
X84516442Y-115605937D01*
X86776443Y-116105937D02*
X84516443Y-116105937D01*
X86776443Y-116105937D02*
X88376443Y-116105937D01*
X86776443Y-122705937D02*
X88376443Y-122705937D01*
X86776443Y-123705937D02*
X86776443Y-122705937D01*
X88376443Y-115105937D02*
X86776443Y-115105937D01*
X88376443Y-116105937D02*
X88376443Y-115105937D01*
X88376443Y-122705937D02*
X88376444Y-123705937D01*
X88376444Y-123705937D02*
X86776443Y-123705937D01*
X88876443Y-116905937D02*
X88876443Y-121905937D01*
X88876443Y-121905937D02*
X84516443Y-121905937D01*
X90736443Y-114345937D02*
X90736443Y-115265937D01*
X90736443Y-115265937D02*
X92336443Y-115265937D01*
X90736443Y-115545937D02*
X90736443Y-115265937D01*
X90736443Y-115545937D02*
X91951443Y-115545937D01*
X90736443Y-123545936D02*
X90736444Y-123265937D01*
X90736443Y-124465937D02*
X90736443Y-123545936D01*
X92336442Y-123545937D02*
X90736443Y-123545936D01*
X92336443Y-114345937D02*
X84516443Y-114345937D01*
X92336443Y-115265937D02*
X92336443Y-114345937D01*
X92336443Y-124465937D02*
X92336442Y-123545937D01*
%TO.C,C7*%
X106068607Y-105545937D02*
X106284279Y-105545937D01*
X106068607Y-106265937D02*
X106284279Y-106265937D01*
%TO.C,J3*%
X85395000Y-108729999D02*
X85395000Y-106130000D01*
X85395000Y-111330000D02*
X85395000Y-110000000D01*
X86725000Y-111330000D02*
X85395000Y-111330000D01*
X88055000Y-106130000D02*
X85395000Y-106130000D01*
X88055000Y-108729999D02*
X85395000Y-108729999D01*
X88055000Y-108729999D02*
X88055000Y-106130000D01*
%TO.C,C1*%
X100095633Y-114227630D02*
X100248136Y-114075127D01*
X100604750Y-114736747D02*
X100757253Y-114584244D01*
%TO.C,C10*%
X116466443Y-106663773D02*
X116466443Y-106448101D01*
X117186443Y-106663773D02*
X117186443Y-106448101D01*
%TO.C,C2*%
X113071693Y-120169190D02*
X112919190Y-120321693D01*
X113580810Y-120678307D02*
X113428307Y-120830810D01*
%TO.C,C4*%
X113140000Y-115642164D02*
X113140000Y-115857836D01*
X113860000Y-115642164D02*
X113860000Y-115857836D01*
%TO.C,C5*%
X115071693Y-122169190D02*
X114919190Y-122321693D01*
X115580810Y-122678307D02*
X115428307Y-122830810D01*
%TO.C,C3*%
X103748136Y-124236747D02*
X103595633Y-124084244D01*
X104257253Y-123727630D02*
X104104750Y-123575127D01*
%TO.C,U1*%
X101821132Y-117405937D02*
X102139330Y-117087739D01*
X102139330Y-117724135D02*
X101821132Y-117405937D01*
X106608245Y-112618824D02*
X106926443Y-112300626D01*
X106926443Y-112300626D02*
X107244641Y-112618824D01*
X106926443Y-122511248D02*
X106608245Y-122193050D01*
X107244641Y-122193050D02*
X106926443Y-122511248D01*
X111713556Y-117087739D02*
X112031754Y-117405937D01*
X112031754Y-117405937D02*
X111713556Y-117724135D01*
X112738861Y-116727114D02*
X112258028Y-117207947D01*
X112166104Y-116635191D01*
X112738861Y-116727114D01*
G36*
X112738861Y-116727114D02*
G01*
X112258028Y-117207947D01*
X112166104Y-116635191D01*
X112738861Y-116727114D01*
G37*
%TO.C,R2*%
X108153641Y-126370000D02*
X107846359Y-126370000D01*
X108153641Y-127130000D02*
X107846359Y-127130000D01*
%TD*%
M02*
