%TF.GenerationSoftware,KiCad,Pcbnew,9.0.5*%
%TF.CreationDate,2025-10-25T18:26:15+02:00*%
%TF.ProjectId,humidity_sensor,68756d69-6469-4747-995f-73656e736f72,rev?*%
%TF.SameCoordinates,Original*%
%TF.FileFunction,Copper,L1,Top*%
%TF.FilePolarity,Positive*%
%FSLAX46Y46*%
G04 Gerber Fmt 4.6, Leading zero omitted, Abs format (unit mm)*
G04 Created by KiCad (PCBNEW 9.0.5) date 2025-10-25 18:26:15*
%MOMM*%
%LPD*%
G01*
G04 APERTURE LIST*
G04 Aperture macros list*
%AMRoundRect*
0 Rectangle with rounded corners*
0 $1 Rounding radius*
0 $2 $3 $4 $5 $6 $7 $8 $9 X,Y pos of 4 corners*
0 Add a 4 corners polygon primitive as box body*
4,1,4,$2,$3,$4,$5,$6,$7,$8,$9,$2,$3,0*
0 Add four circle primitives for the rounded corners*
1,1,$1+$1,$2,$3*
1,1,$1+$1,$4,$5*
1,1,$1+$1,$6,$7*
1,1,$1+$1,$8,$9*
0 Add four rect primitives between the rounded corners*
20,1,$1+$1,$2,$3,$4,$5,0*
20,1,$1+$1,$4,$5,$6,$7,0*
20,1,$1+$1,$6,$7,$8,$9,0*
20,1,$1+$1,$8,$9,$2,$3,0*%
%AMRotRect*
0 Rectangle, with rotation*
0 The origin of the aperture is its center*
0 $1 length*
0 $2 width*
0 $3 Rotation angle, in degrees counterclockwise*
0 Add horizontal line*
21,1,$1,$2,0,0,$3*%
%AMFreePoly0*
4,1,23,0.550000,-0.750000,0.000000,-0.750000,0.000000,-0.745722,-0.065263,-0.745722,-0.191342,-0.711940,-0.304381,-0.646677,-0.396677,-0.554382,-0.461940,-0.441342,-0.495722,-0.315263,-0.495722,-0.250000,-0.500000,-0.250000,-0.500000,0.250000,-0.495722,0.250000,-0.495722,0.315263,-0.461940,0.441342,-0.396677,0.554382,-0.304381,0.646677,-0.191342,0.711940,-0.065263,0.745722,0.000000,0.745722,
0.000000,0.750000,0.550000,0.750000,0.550000,-0.750000,0.550000,-0.750000,$1*%
%AMFreePoly1*
4,1,23,0.000000,0.745722,0.065263,0.745722,0.191342,0.711940,0.304381,0.646677,0.396677,0.554382,0.461940,0.441342,0.495722,0.315263,0.495722,0.250000,0.500000,0.250000,0.500000,-0.250000,0.495722,-0.250000,0.495722,-0.315263,0.461940,-0.441342,0.396677,-0.554382,0.304381,-0.646677,0.191342,-0.711940,0.065263,-0.745722,0.000000,-0.745722,0.000000,-0.750000,-0.550000,-0.750000,
-0.550000,0.750000,0.000000,0.750000,0.000000,0.745722,0.000000,0.745722,$1*%
G04 Aperture macros list end*
%TA.AperFunction,SMDPad,CuDef*%
%ADD10RoundRect,0.250000X0.450000X0.350000X-0.450000X0.350000X-0.450000X-0.350000X0.450000X-0.350000X0*%
%TD*%
%TA.AperFunction,SMDPad,CuDef*%
%ADD11RoundRect,0.218750X0.335876X0.026517X0.026517X0.335876X-0.335876X-0.026517X-0.026517X-0.335876X0*%
%TD*%
%TA.AperFunction,SMDPad,CuDef*%
%ADD12RoundRect,0.140000X-0.170000X0.140000X-0.170000X-0.140000X0.170000X-0.140000X0.170000X0.140000X0*%
%TD*%
%TA.AperFunction,ComponentPad*%
%ADD13R,1.500000X1.500000*%
%TD*%
%TA.AperFunction,ComponentPad*%
%ADD14C,1.500000*%
%TD*%
%TA.AperFunction,SMDPad,CuDef*%
%ADD15RoundRect,0.250000X0.512652X0.159099X0.159099X0.512652X-0.512652X-0.159099X-0.159099X-0.512652X0*%
%TD*%
%TA.AperFunction,SMDPad,CuDef*%
%ADD16RoundRect,0.135000X-0.135000X-0.185000X0.135000X-0.185000X0.135000X0.185000X-0.135000X0.185000X0*%
%TD*%
%TA.AperFunction,SMDPad,CuDef*%
%ADD17RoundRect,0.140000X-0.219203X-0.021213X-0.021213X-0.219203X0.219203X0.021213X0.021213X0.219203X0*%
%TD*%
%TA.AperFunction,SMDPad,CuDef*%
%ADD18FreePoly0,225.000000*%
%TD*%
%TA.AperFunction,SMDPad,CuDef*%
%ADD19RotRect,1.000000X1.500000X225.000000*%
%TD*%
%TA.AperFunction,SMDPad,CuDef*%
%ADD20FreePoly1,225.000000*%
%TD*%
%TA.AperFunction,ComponentPad*%
%ADD21C,2.000000*%
%TD*%
%TA.AperFunction,ComponentPad*%
%ADD22C,1.700000*%
%TD*%
%TA.AperFunction,SMDPad,CuDef*%
%ADD23RoundRect,0.140000X-0.021213X0.219203X-0.219203X0.021213X0.021213X-0.219203X0.219203X-0.021213X0*%
%TD*%
%TA.AperFunction,SMDPad,CuDef*%
%ADD24RoundRect,0.375000X-0.176777X-0.707107X0.707107X0.176777X0.176777X0.707107X-0.707107X-0.176777X0*%
%TD*%
%TA.AperFunction,SMDPad,CuDef*%
%ADD25RoundRect,0.500000X0.636396X-1.343503X1.343503X-0.636396X-0.636396X1.343503X-1.343503X0.636396X0*%
%TD*%
%TA.AperFunction,SMDPad,CuDef*%
%ADD26RoundRect,0.135000X0.035355X-0.226274X0.226274X-0.035355X-0.035355X0.226274X-0.226274X0.035355X0*%
%TD*%
%TA.AperFunction,ComponentPad*%
%ADD27RoundRect,0.250000X-0.625000X0.350000X-0.625000X-0.350000X0.625000X-0.350000X0.625000X0.350000X0*%
%TD*%
%TA.AperFunction,ComponentPad*%
%ADD28O,1.750000X1.200000*%
%TD*%
%TA.AperFunction,SMDPad,CuDef*%
%ADD29RoundRect,0.140000X-0.140000X-0.170000X0.140000X-0.170000X0.140000X0.170000X-0.140000X0.170000X0*%
%TD*%
%TA.AperFunction,ComponentPad*%
%ADD30R,1.700000X1.700000*%
%TD*%
%TA.AperFunction,SMDPad,CuDef*%
%ADD31RoundRect,0.140000X0.021213X-0.219203X0.219203X-0.021213X-0.021213X0.219203X-0.219203X0.021213X0*%
%TD*%
%TA.AperFunction,SMDPad,CuDef*%
%ADD32RoundRect,0.140000X0.170000X-0.140000X0.170000X0.140000X-0.170000X0.140000X-0.170000X-0.140000X0*%
%TD*%
%TA.AperFunction,SMDPad,CuDef*%
%ADD33RoundRect,0.140000X0.219203X0.021213X0.021213X0.219203X-0.219203X-0.021213X-0.021213X-0.219203X0*%
%TD*%
%TA.AperFunction,SMDPad,CuDef*%
%ADD34RoundRect,0.075000X0.415425X0.521491X-0.521491X-0.415425X-0.415425X-0.521491X0.521491X0.415425X0*%
%TD*%
%TA.AperFunction,SMDPad,CuDef*%
%ADD35RoundRect,0.075000X-0.415425X0.521491X-0.521491X0.415425X0.415425X-0.521491X0.521491X-0.415425X0*%
%TD*%
%TA.AperFunction,SMDPad,CuDef*%
%ADD36RoundRect,0.135000X0.135000X0.185000X-0.135000X0.185000X-0.135000X-0.185000X0.135000X-0.185000X0*%
%TD*%
%TA.AperFunction,ViaPad*%
%ADD37C,0.600000*%
%TD*%
%TA.AperFunction,Conductor*%
%ADD38C,0.200000*%
%TD*%
%TA.AperFunction,Conductor*%
%ADD39C,0.500000*%
%TD*%
%TA.AperFunction,Conductor*%
%ADD40C,0.300000*%
%TD*%
G04 APERTURE END LIST*
D10*
%TO.P,Y1,1,1*%
%TO.N,Net-(U1-PD0)*%
X114926443Y-106205937D03*
%TO.P,Y1,2,2*%
%TO.N,GND*%
X112726443Y-106205937D03*
%TO.P,Y1,3,3*%
%TO.N,Net-(U1-PD1)*%
X112726443Y-107905937D03*
%TO.P,Y1,4,4*%
%TO.N,GND*%
X114926443Y-107905937D03*
%TD*%
D11*
%TO.P,FB1,1*%
%TO.N,+3.3VA*%
X106483290Y-108962784D03*
%TO.P,FB1,2*%
%TO.N,+3.3V*%
X105369596Y-107849090D03*
%TD*%
D12*
%TO.P,C11,1*%
%TO.N,GND*%
X110826443Y-106595937D03*
%TO.P,C11,2*%
%TO.N,Net-(U1-PD1)*%
X110826443Y-107555937D03*
%TD*%
D13*
%TO.P,U2,1,VDD*%
%TO.N,+3.3V*%
X119926443Y-111825937D03*
D14*
%TO.P,U2,2,DATA*%
%TO.N,/CZUJNIK*%
X119926443Y-114365937D03*
%TO.P,U2,3,NC*%
%TO.N,unconnected-(U2-NC-Pad3)*%
X119926443Y-116905937D03*
%TO.P,U2,4,GND*%
%TO.N,GND*%
X119926443Y-119445937D03*
%TD*%
D15*
%TO.P,C12,1*%
%TO.N,Net-(SW1-B)*%
X95921751Y-115421751D03*
%TO.P,C12,2*%
%TO.N,GND*%
X94578249Y-114078249D03*
%TD*%
D16*
%TO.P,R3,1*%
%TO.N,/SCK*%
X104490001Y-126750000D03*
%TO.P,R3,2*%
%TO.N,+3.3V*%
X105509999Y-126750000D03*
%TD*%
D17*
%TO.P,C6,1*%
%TO.N,+3.3VA*%
X110087032Y-111816526D03*
%TO.P,C6,2*%
%TO.N,GND*%
X110765854Y-112495348D03*
%TD*%
D18*
%TO.P,JP1,1,A*%
%TO.N,GND*%
X113919239Y-126330761D03*
D19*
%TO.P,JP1,2,C*%
%TO.N,Net-(JP1-C)*%
X113000000Y-127250000D03*
D20*
%TO.P,JP1,3,B*%
%TO.N,+3.3V*%
X112080761Y-128169239D03*
%TD*%
D21*
%TO.P,SW1,*%
%TO.N,*%
X112957501Y-101207499D03*
X112957501Y-95207500D03*
X100957501Y-101207500D03*
X100957501Y-95207500D03*
D22*
%TO.P,SW1,1,A*%
%TO.N,unconnected-(SW1-A-Pad1)*%
X110957501Y-99457500D03*
%TO.P,SW1,2,B*%
%TO.N,Net-(SW1-B)*%
X106957501Y-99457500D03*
%TO.P,SW1,3,C*%
%TO.N,Net-(J3-Pin_2)*%
X102957501Y-99457500D03*
%TD*%
D15*
%TO.P,C13,1*%
%TO.N,+3.3V*%
X92421751Y-111671751D03*
%TO.P,C13,2*%
%TO.N,GND*%
X91078249Y-110328249D03*
%TD*%
D23*
%TO.P,C9,1*%
%TO.N,GND*%
X112765854Y-112316526D03*
%TO.P,C9,2*%
%TO.N,Net-(U1-NRST)*%
X112087032Y-112995348D03*
%TD*%
D24*
%TO.P,U4,1,GND*%
%TO.N,GND*%
X94146268Y-109101041D03*
%TO.P,U4,2,VO*%
%TO.N,+3.3V*%
X95772614Y-110727386D03*
D25*
X100227386Y-106272614D03*
D24*
%TO.P,U4,3,VI*%
%TO.N,Net-(SW1-B)*%
X97398959Y-112353732D03*
%TD*%
D17*
%TO.P,C8,1*%
%TO.N,+3.3VA*%
X111087032Y-110816526D03*
%TO.P,C8,2*%
%TO.N,GND*%
X111765854Y-111495348D03*
%TD*%
D26*
%TO.P,R1,1*%
%TO.N,Net-(JP1-C)*%
X111778752Y-124971248D03*
%TO.P,R1,2*%
%TO.N,Net-(U1-BOOT0)*%
X112500000Y-124250000D03*
%TD*%
D27*
%TO.P,J1,1,Pin_1*%
%TO.N,GND*%
X90876443Y-116405937D03*
D28*
%TO.P,J1,2,Pin_2*%
%TO.N,/SWCLK*%
X90876443Y-118405938D03*
%TO.P,J1,3,Pin_3*%
%TO.N,/SWDIO*%
X90876443Y-120405937D03*
%TO.P,J1,4,Pin_4*%
%TO.N,+3.3V*%
X90876443Y-122405937D03*
%TD*%
D29*
%TO.P,C7,1*%
%TO.N,+3.3V*%
X105696443Y-105905937D03*
%TO.P,C7,2*%
%TO.N,GND*%
X106656443Y-105905937D03*
%TD*%
D30*
%TO.P,J3,1,Pin_1*%
%TO.N,GND*%
X86725000Y-110000000D03*
D22*
%TO.P,J3,2,Pin_2*%
%TO.N,Net-(J3-Pin_2)*%
X86725000Y-107460000D03*
%TD*%
D31*
%TO.P,C1,1*%
%TO.N,+3.3V*%
X100087032Y-114745348D03*
%TO.P,C1,2*%
%TO.N,GND*%
X100765854Y-114066526D03*
%TD*%
D32*
%TO.P,C10,1*%
%TO.N,GND*%
X116826443Y-107035937D03*
%TO.P,C10,2*%
%TO.N,Net-(U1-PD0)*%
X116826443Y-106075937D03*
%TD*%
D23*
%TO.P,C2,1*%
%TO.N,+3.3V*%
X113589411Y-120160589D03*
%TO.P,C2,2*%
%TO.N,GND*%
X112910589Y-120839411D03*
%TD*%
D12*
%TO.P,C4,1*%
%TO.N,+3.3V*%
X113500000Y-115270000D03*
%TO.P,C4,2*%
%TO.N,GND*%
X113500000Y-116230000D03*
%TD*%
D23*
%TO.P,C5,1*%
%TO.N,+3.3V*%
X115589411Y-122160589D03*
%TO.P,C5,2*%
%TO.N,GND*%
X114910589Y-122839411D03*
%TD*%
D33*
%TO.P,C3,1*%
%TO.N,+3.3V*%
X104265854Y-124245348D03*
%TO.P,C3,2*%
%TO.N,GND*%
X103587032Y-123566526D03*
%TD*%
D34*
%TO.P,U1,1,VBAT*%
%TO.N,+3.3V*%
X111814319Y-116407149D03*
%TO.P,U1,2,PC13*%
%TO.N,unconnected-(U1-PC13-Pad2)*%
X111460765Y-116053595D03*
%TO.P,U1,3,PC14*%
%TO.N,unconnected-(U1-PC14-Pad3)*%
X111107212Y-115700042D03*
%TO.P,U1,4,PC15*%
%TO.N,unconnected-(U1-PC15-Pad4)*%
X110753658Y-115346488D03*
%TO.P,U1,5,PD0*%
%TO.N,Net-(U1-PD0)*%
X110400105Y-114992935D03*
%TO.P,U1,6,PD1*%
%TO.N,Net-(U1-PD1)*%
X110046552Y-114639382D03*
%TO.P,U1,7,NRST*%
%TO.N,Net-(U1-NRST)*%
X109692998Y-114285828D03*
%TO.P,U1,8,VSSA*%
%TO.N,GND*%
X109339445Y-113932275D03*
%TO.P,U1,9,VDDA*%
%TO.N,+3.3VA*%
X108985892Y-113578722D03*
%TO.P,U1,10,PA0*%
%TO.N,unconnected-(U1-PA0-Pad10)*%
X108632338Y-113225168D03*
%TO.P,U1,11,PA1*%
%TO.N,unconnected-(U1-PA1-Pad11)*%
X108278785Y-112871615D03*
%TO.P,U1,12,PA2*%
%TO.N,unconnected-(U1-PA2-Pad12)*%
X107925231Y-112518061D03*
D35*
%TO.P,U1,13,PA3*%
%TO.N,unconnected-(U1-PA3-Pad13)*%
X105927655Y-112518061D03*
%TO.P,U1,14,PA4*%
%TO.N,unconnected-(U1-PA4-Pad14)*%
X105574101Y-112871615D03*
%TO.P,U1,15,PA5*%
%TO.N,unconnected-(U1-PA5-Pad15)*%
X105220548Y-113225168D03*
%TO.P,U1,16,PA6*%
%TO.N,unconnected-(U1-PA6-Pad16)*%
X104866994Y-113578722D03*
%TO.P,U1,17,PA7*%
%TO.N,unconnected-(U1-PA7-Pad17)*%
X104513441Y-113932275D03*
%TO.P,U1,18,PB0*%
%TO.N,unconnected-(U1-PB0-Pad18)*%
X104159888Y-114285828D03*
%TO.P,U1,19,PB1*%
%TO.N,unconnected-(U1-PB1-Pad19)*%
X103806334Y-114639382D03*
%TO.P,U1,20,PB2*%
%TO.N,unconnected-(U1-PB2-Pad20)*%
X103452781Y-114992935D03*
%TO.P,U1,21,PB10*%
%TO.N,unconnected-(U1-PB10-Pad21)*%
X103099228Y-115346488D03*
%TO.P,U1,22,PB11*%
%TO.N,unconnected-(U1-PB11-Pad22)*%
X102745674Y-115700042D03*
%TO.P,U1,23,VSS*%
%TO.N,GND*%
X102392121Y-116053595D03*
%TO.P,U1,24,VDD*%
%TO.N,+3.3V*%
X102038567Y-116407149D03*
D34*
%TO.P,U1,25,PB12*%
%TO.N,unconnected-(U1-PB12-Pad25)*%
X102038567Y-118404725D03*
%TO.P,U1,26,PB13*%
%TO.N,unconnected-(U1-PB13-Pad26)*%
X102392121Y-118758279D03*
%TO.P,U1,27,PB14*%
%TO.N,unconnected-(U1-PB14-Pad27)*%
X102745674Y-119111832D03*
%TO.P,U1,28,PB15*%
%TO.N,unconnected-(U1-PB15-Pad28)*%
X103099228Y-119465386D03*
%TO.P,U1,29,PA8*%
%TO.N,/CZUJNIK*%
X103452781Y-119818939D03*
%TO.P,U1,30,PA9*%
%TO.N,unconnected-(U1-PA9-Pad30)*%
X103806334Y-120172492D03*
%TO.P,U1,31,PA10*%
%TO.N,unconnected-(U1-PA10-Pad31)*%
X104159888Y-120526046D03*
%TO.P,U1,32,PA11*%
%TO.N,unconnected-(U1-PA11-Pad32)*%
X104513441Y-120879599D03*
%TO.P,U1,33,PA12*%
%TO.N,unconnected-(U1-PA12-Pad33)*%
X104866994Y-121233152D03*
%TO.P,U1,34,PA13*%
%TO.N,/SWDIO*%
X105220548Y-121586706D03*
%TO.P,U1,35,VSS*%
%TO.N,GND*%
X105574101Y-121940259D03*
%TO.P,U1,36,VDD*%
%TO.N,+3.3V*%
X105927655Y-122293813D03*
D35*
%TO.P,U1,37,PA14*%
%TO.N,/SWCLK*%
X107925231Y-122293813D03*
%TO.P,U1,38,PA15*%
%TO.N,unconnected-(U1-PA15-Pad38)*%
X108278785Y-121940259D03*
%TO.P,U1,39,PB3*%
%TO.N,unconnected-(U1-PB3-Pad39)*%
X108632338Y-121586706D03*
%TO.P,U1,40,PB4*%
%TO.N,unconnected-(U1-PB4-Pad40)*%
X108985892Y-121233152D03*
%TO.P,U1,41,PB5*%
%TO.N,unconnected-(U1-PB5-Pad41)*%
X109339445Y-120879599D03*
%TO.P,U1,42,PB6*%
%TO.N,/SCK*%
X109692998Y-120526046D03*
%TO.P,U1,43,PB7*%
%TO.N,/SDA*%
X110046552Y-120172492D03*
%TO.P,U1,44,BOOT0*%
%TO.N,Net-(U1-BOOT0)*%
X110400105Y-119818939D03*
%TO.P,U1,45,PB8*%
%TO.N,unconnected-(U1-PB8-Pad45)*%
X110753658Y-119465386D03*
%TO.P,U1,46,PB9*%
%TO.N,unconnected-(U1-PB9-Pad46)*%
X111107212Y-119111832D03*
%TO.P,U1,47,VSS*%
%TO.N,GND*%
X111460765Y-118758279D03*
%TO.P,U1,48,VDD*%
%TO.N,+3.3V*%
X111814319Y-118404725D03*
%TD*%
D36*
%TO.P,R2,1*%
%TO.N,/SDA*%
X108509999Y-126750000D03*
%TO.P,R2,2*%
%TO.N,+3.3V*%
X107490001Y-126750000D03*
%TD*%
D30*
%TO.P,J2,1,Pin_1*%
%TO.N,/SDA*%
X107473742Y-129628699D03*
D22*
%TO.P,J2,2,Pin_2*%
%TO.N,/SCK*%
X104933742Y-129628699D03*
%TO.P,J2,3,Pin_3*%
%TO.N,GND*%
X102393743Y-129628699D03*
%TO.P,J2,4,Pin_4*%
%TO.N,+3.3V*%
X99853742Y-129628699D03*
%TD*%
D37*
%TO.N,GND*%
X122000000Y-105500000D03*
X86500000Y-131000000D03*
X94000000Y-98000000D03*
X85500000Y-104000000D03*
X108000000Y-107500000D03*
X87500000Y-118500000D03*
X103500000Y-112000000D03*
X115500000Y-118500000D03*
X96500000Y-106500000D03*
X114500000Y-124500000D03*
X96500000Y-124000000D03*
X85000000Y-112000000D03*
X89500000Y-95500000D03*
X121500000Y-125500000D03*
X93500000Y-117500000D03*
X115000000Y-131500000D03*
X110000000Y-103500000D03*
X116000000Y-110000000D03*
X100500000Y-127000000D03*
X101500000Y-122500000D03*
X115000000Y-115500000D03*
X117000000Y-96000000D03*
X90500000Y-107500000D03*
X102000000Y-104500000D03*
X93500000Y-127000000D03*
X94500000Y-130500000D03*
X99000000Y-97000000D03*
X89000000Y-125500000D03*
X86000000Y-98500000D03*
X85500000Y-127000000D03*
X97500000Y-102000000D03*
X111500000Y-109500000D03*
X98000000Y-118000000D03*
%TD*%
D38*
%TO.N,+3.3V*%
X112951468Y-115270000D02*
X111814319Y-116407149D01*
X119839411Y-122160589D02*
X122000000Y-120000000D01*
X105926443Y-106905937D02*
X105696443Y-106675937D01*
D39*
X87405937Y-122405937D02*
X90876443Y-122405937D01*
D38*
X113500000Y-129000000D02*
X116000000Y-126500000D01*
X99500000Y-114158316D02*
X100087032Y-114745348D01*
D39*
X89375000Y-111671751D02*
X85500000Y-115546751D01*
D38*
X105926443Y-107292243D02*
X105926443Y-106905937D01*
D39*
X93000000Y-112250000D02*
X92421751Y-111671751D01*
D40*
X100087032Y-114745348D02*
X100747621Y-115405937D01*
D39*
X92421751Y-111671751D02*
X89375000Y-111671751D01*
D38*
X122000000Y-120000000D02*
X122000000Y-112500000D01*
X119926443Y-107426443D02*
X117500000Y-105000000D01*
X115589411Y-122160589D02*
X119839411Y-122160589D01*
X101725043Y-131500000D02*
X99853742Y-129628699D01*
X105696443Y-106675937D02*
X105696443Y-105905937D01*
X119926443Y-111825937D02*
X119926443Y-107426443D01*
X105369596Y-107849090D02*
X99500000Y-113718686D01*
X112911522Y-129000000D02*
X113500000Y-129000000D01*
X99500000Y-113718686D02*
X99500000Y-114158316D01*
X112080761Y-128169239D02*
X112911522Y-129000000D01*
X108750000Y-131500000D02*
X105500000Y-131500000D01*
D39*
X95772614Y-110727386D02*
X94250000Y-112250000D01*
D40*
X104926443Y-123295025D02*
X105927655Y-122293813D01*
D38*
X117674063Y-111825937D02*
X114230000Y-115270000D01*
X115573536Y-122176464D02*
X115589411Y-122160589D01*
X119926443Y-111825937D02*
X117674063Y-111825937D01*
D39*
X100227386Y-106272614D02*
X95772614Y-110727386D01*
D38*
X116000000Y-126500000D02*
X116000000Y-123500000D01*
X106084742Y-127324743D02*
X106084742Y-130915258D01*
D40*
X104265854Y-124245348D02*
X104926443Y-123584759D01*
D38*
X110362150Y-117859318D02*
X105927655Y-122293813D01*
X106602380Y-105000000D02*
X105696443Y-105905937D01*
X115573536Y-123073536D02*
X115573536Y-122176464D01*
X122000000Y-112500000D02*
X121325937Y-111825937D01*
D39*
X85500000Y-115546751D02*
X85500000Y-120500000D01*
D38*
X111833547Y-118404725D02*
X111814319Y-118404725D01*
X115589411Y-122160589D02*
X115589411Y-122089411D01*
X106084742Y-130915258D02*
X105500000Y-131500000D01*
X105696443Y-105858437D02*
X105696443Y-105905937D01*
X117500000Y-105000000D02*
X106602380Y-105000000D01*
D39*
X94250000Y-112250000D02*
X93000000Y-112250000D01*
D40*
X104926443Y-123584759D02*
X104926443Y-123295025D01*
X100747621Y-115405937D02*
X101037355Y-115405937D01*
D38*
X90876443Y-122405937D02*
X92630980Y-122405937D01*
X121325937Y-111825937D02*
X119926443Y-111825937D01*
D40*
X101037355Y-115405937D02*
X102038567Y-116407149D01*
D39*
X85500000Y-120500000D02*
X87405937Y-122405937D01*
D38*
X105369596Y-107849090D02*
X105926443Y-107292243D01*
X92630980Y-122405937D02*
X99853742Y-129628699D01*
X105500000Y-131500000D02*
X101725043Y-131500000D01*
X116000000Y-123500000D02*
X115573536Y-123073536D01*
X107490001Y-126750000D02*
X105509999Y-126750000D01*
X112080761Y-128169239D02*
X108750000Y-131500000D01*
X105509999Y-126750000D02*
X106084742Y-127324743D01*
X113500000Y-115270000D02*
X112951468Y-115270000D01*
X111268912Y-117859318D02*
X110362150Y-117859318D01*
X111814319Y-118404725D02*
X111268912Y-117859318D01*
X113589411Y-120160589D02*
X115589411Y-122160589D01*
X114230000Y-115270000D02*
X113500000Y-115270000D01*
X113589411Y-120160589D02*
X111833547Y-118404725D01*
%TO.N,GND*%
X114910589Y-122839411D02*
X112910589Y-120839411D01*
X115956443Y-107905937D02*
X116826443Y-107035937D01*
D39*
X92656498Y-116000000D02*
X91282380Y-116000000D01*
D40*
X104247621Y-122905937D02*
X104608423Y-122905937D01*
D38*
X112765854Y-112316526D02*
X112587032Y-112316526D01*
D40*
X103587032Y-123566526D02*
X104247621Y-122905937D01*
D39*
X94578249Y-114078249D02*
X92656498Y-116000000D01*
D38*
X110765854Y-112495348D02*
X111765854Y-111495348D01*
D39*
X90750000Y-110000000D02*
X91078249Y-110328249D01*
D38*
X110826443Y-106505937D02*
X111126443Y-106205937D01*
D39*
X91282380Y-116000000D02*
X90876443Y-116405937D01*
D38*
X112071178Y-120000000D02*
X112071178Y-119368692D01*
X110826443Y-106595937D02*
X110826443Y-106505937D01*
X111765854Y-109765854D02*
X111500000Y-109500000D01*
D39*
X91078249Y-110328249D02*
X91906498Y-109500000D01*
D38*
X112587032Y-112316526D02*
X111765854Y-111495348D01*
D40*
X104608423Y-122905937D02*
X105574101Y-121940259D01*
D39*
X93747309Y-109500000D02*
X94146268Y-109101041D01*
D38*
X112910589Y-120839411D02*
X112071178Y-120000000D01*
X113500000Y-116230000D02*
X114270000Y-116230000D01*
X109339445Y-113921757D02*
X109339445Y-113932275D01*
D40*
X100765854Y-114066526D02*
X101426443Y-114727115D01*
D38*
X114926443Y-107905937D02*
X115956443Y-107905937D01*
X114270000Y-116230000D02*
X115000000Y-115500000D01*
X111126443Y-106205937D02*
X112726443Y-106205937D01*
D39*
X86725000Y-110000000D02*
X90750000Y-110000000D01*
D40*
X101426443Y-114727115D02*
X101426443Y-115087917D01*
D38*
X112071178Y-119368692D02*
X111460765Y-118758279D01*
D40*
X101426443Y-115087917D02*
X102392121Y-116053595D01*
D38*
X110765854Y-112495348D02*
X109339445Y-113921757D01*
X111765854Y-111495348D02*
X111765854Y-109765854D01*
D39*
X91906498Y-109500000D02*
X93747309Y-109500000D01*
D38*
%TO.N,+3.3VA*%
X109337032Y-111816526D02*
X106483290Y-108962784D01*
X109531299Y-113033315D02*
X109531299Y-112372259D01*
X108985892Y-113578722D02*
X109531299Y-113033315D01*
X111087032Y-110816526D02*
X110087032Y-111816526D01*
X110087032Y-111816526D02*
X109337032Y-111816526D01*
X109531299Y-112372259D02*
X110087032Y-111816526D01*
%TO.N,Net-(U1-NRST)*%
X111676443Y-113405937D02*
X110572889Y-113405937D01*
X112087032Y-112995348D02*
X111676443Y-113405937D01*
X110572889Y-113405937D02*
X109692998Y-114285828D01*
%TO.N,Net-(U1-PD0)*%
X114327443Y-113004937D02*
X114327443Y-111739837D01*
X113926443Y-106405937D02*
X114126443Y-106205937D01*
X113926443Y-111338837D02*
X113926443Y-106405937D01*
X110330811Y-114992935D02*
X110172126Y-115151620D01*
X112926443Y-114405937D02*
X114327443Y-113004937D01*
X116826443Y-106075937D02*
X115056443Y-106075937D01*
X110987103Y-114405937D02*
X112926443Y-114405937D01*
X114126443Y-106205937D02*
X114926443Y-106205937D01*
X114327443Y-111739837D02*
X113926443Y-111338837D01*
X110400105Y-114992935D02*
X110987103Y-114405937D01*
X115056443Y-106075937D02*
X114926443Y-106205937D01*
%TO.N,Net-(U1-PD1)*%
X112426443Y-113905937D02*
X113926443Y-112405937D01*
X112926443Y-110905937D02*
X112926443Y-110305937D01*
X110779997Y-113905937D02*
X112426443Y-113905937D01*
X110826443Y-107555937D02*
X112376443Y-107555937D01*
X112926443Y-110305937D02*
X112726443Y-110105937D01*
X113926443Y-111905937D02*
X112926443Y-110905937D01*
X112376443Y-107555937D02*
X112726443Y-107905937D01*
X112726443Y-110105937D02*
X112726443Y-107905937D01*
X113926443Y-112405937D02*
X113926443Y-111905937D01*
X110046552Y-114639382D02*
X110779997Y-113905937D01*
D39*
%TO.N,Net-(SW1-B)*%
X95921751Y-115421751D02*
X96500000Y-114843502D01*
X104000000Y-107000000D02*
X100000000Y-111000000D01*
X104000000Y-102415001D02*
X104000000Y-107000000D01*
X96500000Y-113252691D02*
X97398959Y-112353732D01*
X96500000Y-114843502D02*
X96500000Y-113252691D01*
X98752691Y-111000000D02*
X97398959Y-112353732D01*
D38*
X98146268Y-112353732D02*
X97398959Y-112353732D01*
D39*
X100000000Y-111000000D02*
X98752691Y-111000000D01*
X106957501Y-99457500D02*
X104000000Y-102415001D01*
D38*
%TO.N,/SWCLK*%
X97504937Y-121504937D02*
X101500000Y-125500000D01*
X105000000Y-125500000D02*
X107925231Y-122574769D01*
X90876443Y-118405938D02*
X89700443Y-119581938D01*
X90228237Y-121504937D02*
X97504937Y-121504937D01*
X101500000Y-125500000D02*
X105000000Y-125500000D01*
X107925231Y-122574769D02*
X107925231Y-122293813D01*
X89700443Y-119581938D02*
X89700443Y-120977143D01*
X89700443Y-120977143D02*
X90228237Y-121504937D01*
%TO.N,/SWDIO*%
X103614480Y-121449298D02*
X103943742Y-121778560D01*
X103260927Y-121095745D02*
X103590189Y-121425007D01*
X102665182Y-120500000D02*
X102883082Y-120717900D01*
X102883082Y-120717900D02*
X102907373Y-120717900D01*
X103590189Y-121425007D02*
X103614480Y-121425007D01*
X104605845Y-122132113D02*
X105185900Y-121552058D01*
X102907373Y-120742191D02*
X103236635Y-121071453D01*
X105185900Y-121552058D02*
X105220548Y-121586706D01*
X90876443Y-120405937D02*
X90970506Y-120500000D01*
X103236635Y-121071453D02*
X103260927Y-121071453D01*
X102907373Y-120717900D02*
X102907373Y-120742191D01*
X103260927Y-121071453D02*
X103260927Y-121095745D01*
X103968033Y-121778560D02*
X103968033Y-121802851D01*
X103968033Y-121802851D02*
X104297295Y-122132113D01*
X103614480Y-121425007D02*
X103614480Y-121449298D01*
X90970506Y-120500000D02*
X102665182Y-120500000D01*
X104297295Y-122132113D02*
X104605845Y-122132113D01*
X103943742Y-121778560D02*
X103968033Y-121778560D01*
%TO.N,/SCK*%
X110238406Y-121071454D02*
X109692998Y-120526046D01*
X108000000Y-124000000D02*
X110238406Y-121761594D01*
X104490001Y-126750000D02*
X107240001Y-124000000D01*
X104490001Y-129184958D02*
X104933742Y-129628699D01*
X107240001Y-124000000D02*
X108000000Y-124000000D01*
X104490001Y-126750000D02*
X104490001Y-129184958D01*
X110238406Y-121761594D02*
X110238406Y-121071454D01*
%TO.N,/SDA*%
X111500000Y-122000000D02*
X111500000Y-121625940D01*
X108509999Y-124990001D02*
X111500000Y-122000000D01*
X111500000Y-121625940D02*
X110046552Y-120172492D01*
X108509999Y-127990001D02*
X108509999Y-126750000D01*
X107473742Y-129628699D02*
X108500000Y-128602441D01*
X108509999Y-126750000D02*
X108509999Y-124990001D01*
X108500000Y-128000000D02*
X108509999Y-127990001D01*
X108500000Y-128602441D02*
X108500000Y-128000000D01*
D39*
%TO.N,Net-(J3-Pin_2)*%
X97042500Y-99457500D02*
X102957501Y-99457500D01*
X91000000Y-105500000D02*
X97042500Y-99457500D01*
X88685000Y-105500000D02*
X91000000Y-105500000D01*
X86725000Y-107460000D02*
X88685000Y-105500000D01*
D38*
%TO.N,Net-(JP1-C)*%
X111778752Y-126028752D02*
X111778752Y-124971248D01*
X113000000Y-127250000D02*
X111778752Y-126028752D01*
%TO.N,Net-(U1-BOOT0)*%
X110400105Y-119818939D02*
X112399000Y-121817834D01*
X112399000Y-121817834D02*
X112399000Y-124149000D01*
X112399000Y-124149000D02*
X112500000Y-124250000D01*
%TO.N,/CZUJNIK*%
X119926443Y-114365937D02*
X117134063Y-114365937D01*
X110938510Y-117000000D02*
X106271720Y-117000000D01*
X114500000Y-117000000D02*
X111859280Y-117000000D01*
X106271720Y-117000000D02*
X103452781Y-119818939D01*
X111553170Y-117306110D02*
X111244620Y-117306110D01*
X111244620Y-117306110D02*
X110938510Y-117000000D01*
X111859280Y-117000000D02*
X111553170Y-117306110D01*
X117134063Y-114365937D02*
X114500000Y-117000000D01*
%TD*%
%TA.AperFunction,Conductor*%
%TO.N,GND*%
G36*
X103509013Y-130390416D02*
G01*
X103509013Y-130390415D01*
X103548366Y-130336252D01*
X103552973Y-130327210D01*
X103600944Y-130276411D01*
X103668764Y-130259611D01*
X103734900Y-130282145D01*
X103773944Y-130327200D01*
X103778691Y-130336516D01*
X103903632Y-130508485D01*
X104053953Y-130658806D01*
X104076492Y-130675181D01*
X104119159Y-130730510D01*
X104125139Y-130800124D01*
X104092533Y-130861919D01*
X104031695Y-130896277D01*
X104003608Y-130899500D01*
X103277362Y-130899500D01*
X103210323Y-130879815D01*
X103164568Y-130827011D01*
X103153744Y-130765771D01*
X103155459Y-130743968D01*
X102523151Y-130111661D01*
X102586736Y-130094624D01*
X102700750Y-130028798D01*
X102793842Y-129935706D01*
X102859668Y-129821692D01*
X102876705Y-129758107D01*
X103509013Y-130390416D01*
G37*
%TD.AperFunction*%
%TA.AperFunction,Conductor*%
G36*
X97271879Y-122125122D02*
G01*
X97292521Y-122141756D01*
X101015139Y-125864374D01*
X101015149Y-125864385D01*
X101019479Y-125868715D01*
X101019480Y-125868716D01*
X101131284Y-125980520D01*
X101198767Y-126019481D01*
X101268215Y-126059577D01*
X101420942Y-126100500D01*
X101420943Y-126100500D01*
X103673994Y-126100500D01*
X103741033Y-126120185D01*
X103786788Y-126172989D01*
X103796732Y-126242147D01*
X103780726Y-126287621D01*
X103767132Y-126310606D01*
X103767130Y-126310611D01*
X103722336Y-126464791D01*
X103722335Y-126464797D01*
X103719501Y-126500811D01*
X103719501Y-126999169D01*
X103719502Y-126999191D01*
X103722336Y-127035205D01*
X103767130Y-127189388D01*
X103767132Y-127189393D01*
X103798663Y-127242710D01*
X103848866Y-127327598D01*
X103853179Y-127331911D01*
X103886666Y-127393231D01*
X103889501Y-127419595D01*
X103889501Y-128728075D01*
X103883806Y-128747468D01*
X103883011Y-128767664D01*
X103871106Y-128790720D01*
X103869816Y-128795114D01*
X103867098Y-128799167D01*
X103866465Y-128800070D01*
X103778691Y-128920883D01*
X103770021Y-128937897D01*
X103765058Y-128944991D01*
X103744254Y-128961629D01*
X103725965Y-128980993D01*
X103717392Y-128983115D01*
X103710494Y-128988633D01*
X103684000Y-128991383D01*
X103658144Y-128997785D01*
X103649782Y-128994935D01*
X103640998Y-128995847D01*
X103617225Y-128983838D01*
X103592010Y-128975244D01*
X103585626Y-128967876D01*
X103578634Y-128964344D01*
X103570312Y-128950201D01*
X103552974Y-128930190D01*
X103548367Y-128921148D01*
X103509013Y-128866981D01*
X102876705Y-129499289D01*
X102859668Y-129435706D01*
X102793842Y-129321692D01*
X102700750Y-129228600D01*
X102586736Y-129162774D01*
X102523152Y-129145736D01*
X103155459Y-128513427D01*
X103101293Y-128474074D01*
X102911960Y-128377603D01*
X102709872Y-128311941D01*
X102499989Y-128278699D01*
X102287497Y-128278699D01*
X102077615Y-128311941D01*
X102077612Y-128311941D01*
X101875525Y-128377603D01*
X101686182Y-128474079D01*
X101632025Y-128513426D01*
X101632025Y-128513427D01*
X102264334Y-129145736D01*
X102200750Y-129162774D01*
X102086736Y-129228600D01*
X101993644Y-129321692D01*
X101927818Y-129435706D01*
X101910780Y-129499290D01*
X101278471Y-128866981D01*
X101278470Y-128866981D01*
X101239123Y-128921139D01*
X101234505Y-128930202D01*
X101186527Y-128980995D01*
X101118706Y-128997787D01*
X101052572Y-128975246D01*
X101013538Y-128930195D01*
X101008792Y-128920881D01*
X100883851Y-128748912D01*
X100733528Y-128598589D01*
X100561562Y-128473650D01*
X100372156Y-128377143D01*
X100372155Y-128377142D01*
X100372154Y-128377142D01*
X100169985Y-128311453D01*
X100169983Y-128311452D01*
X100169982Y-128311452D01*
X99996244Y-128283935D01*
X99960029Y-128278199D01*
X99747455Y-128278199D01*
X99718748Y-128282745D01*
X99537499Y-128311452D01*
X99495215Y-128325191D01*
X99425374Y-128327185D01*
X99369218Y-128294940D01*
X93391396Y-122317118D01*
X93357911Y-122255795D01*
X93362895Y-122186103D01*
X93404767Y-122130170D01*
X93470231Y-122105753D01*
X93479077Y-122105437D01*
X97204840Y-122105437D01*
X97271879Y-122125122D01*
G37*
%TD.AperFunction*%
%TA.AperFunction,Conductor*%
G36*
X112324103Y-119752218D02*
G01*
X112353649Y-119774063D01*
X112478771Y-119899184D01*
X112501636Y-119922049D01*
X112535120Y-119983372D01*
X112530136Y-120053064D01*
X112522912Y-120062712D01*
X112518494Y-120093762D01*
X112734975Y-120310243D01*
X112767397Y-120367082D01*
X112769952Y-120377033D01*
X112769952Y-120377034D01*
X112847911Y-120518842D01*
X112847913Y-120518845D01*
X112871563Y-120546535D01*
X113203465Y-120878437D01*
X113231155Y-120902087D01*
X113231157Y-120902088D01*
X113372960Y-120980044D01*
X113372961Y-120980044D01*
X113372966Y-120980047D01*
X113380882Y-120982079D01*
X113382909Y-120982600D01*
X113439756Y-121015024D01*
X113656236Y-121231504D01*
X113680074Y-121228111D01*
X113681146Y-121227046D01*
X113749460Y-121212385D01*
X113814856Y-121236985D01*
X113827950Y-121248363D01*
X114501635Y-121922048D01*
X114535120Y-121983371D01*
X114530136Y-122053063D01*
X114522913Y-122062710D01*
X114518494Y-122093762D01*
X114734975Y-122310243D01*
X114767397Y-122367082D01*
X114769952Y-122377033D01*
X114769952Y-122377034D01*
X114847911Y-122518842D01*
X114847913Y-122518845D01*
X114871563Y-122546535D01*
X114936718Y-122611690D01*
X114951424Y-122638621D01*
X114968013Y-122664435D01*
X114968904Y-122670634D01*
X114970202Y-122673011D01*
X114973036Y-122699370D01*
X114973036Y-122725602D01*
X114953351Y-122792641D01*
X114936717Y-122813283D01*
X114910589Y-122839411D01*
X114936717Y-122865539D01*
X114951420Y-122892466D01*
X114968013Y-122918285D01*
X114968904Y-122924485D01*
X114970202Y-122926862D01*
X114973036Y-122953220D01*
X114973036Y-122986866D01*
X114973035Y-122986884D01*
X114973035Y-123079156D01*
X114953350Y-123146195D01*
X114936716Y-123166837D01*
X114536678Y-123566874D01*
X114536678Y-123566876D01*
X114552626Y-123580498D01*
X114552631Y-123580501D01*
X114694326Y-123658399D01*
X114694336Y-123658402D01*
X114850947Y-123698613D01*
X114850955Y-123698614D01*
X115012653Y-123698614D01*
X115012658Y-123698613D01*
X115169270Y-123658402D01*
X115169276Y-123658399D01*
X115177950Y-123653631D01*
X115203924Y-123647901D01*
X115228847Y-123638606D01*
X115237516Y-123640491D01*
X115246180Y-123638581D01*
X115271130Y-123647804D01*
X115297120Y-123653458D01*
X115307553Y-123661268D01*
X115311715Y-123662807D01*
X115325374Y-123674609D01*
X115363181Y-123712416D01*
X115396666Y-123773739D01*
X115399500Y-123800097D01*
X115399500Y-126199902D01*
X115379815Y-126266941D01*
X115363181Y-126287583D01*
X114490812Y-127159951D01*
X114429489Y-127193436D01*
X114359797Y-127188452D01*
X114306580Y-127150076D01*
X114271638Y-127106716D01*
X113143282Y-125978363D01*
X113143272Y-125978354D01*
X113096600Y-125940741D01*
X113096594Y-125940738D01*
X112965679Y-125880950D01*
X112965680Y-125880950D01*
X112823223Y-125860470D01*
X112680767Y-125880950D01*
X112680765Y-125880951D01*
X112621383Y-125908070D01*
X112599463Y-125911221D01*
X112578718Y-125918959D01*
X112565557Y-125916096D01*
X112552224Y-125918013D01*
X112532080Y-125908813D01*
X112510445Y-125904107D01*
X112492720Y-125890838D01*
X112488669Y-125888988D01*
X112482191Y-125882956D01*
X112415571Y-125816336D01*
X112382086Y-125755013D01*
X112379252Y-125728655D01*
X112379252Y-125582471D01*
X112398937Y-125515432D01*
X112415571Y-125494790D01*
X112449963Y-125460398D01*
X112499774Y-125410587D01*
X112523243Y-125383110D01*
X112600595Y-125242406D01*
X112617204Y-125177715D01*
X112652939Y-125117681D01*
X112706467Y-125088452D01*
X112771158Y-125071843D01*
X112771162Y-125071841D01*
X112911859Y-124994493D01*
X112911859Y-124994492D01*
X112911862Y-124994491D01*
X112939339Y-124971023D01*
X113221022Y-124689339D01*
X113244491Y-124661862D01*
X113321843Y-124521158D01*
X113361774Y-124365638D01*
X113361774Y-124205073D01*
X113321843Y-124049552D01*
X113318532Y-124043530D01*
X113244492Y-123908851D01*
X113244491Y-123908849D01*
X113221023Y-123881372D01*
X113221008Y-123881356D01*
X113035819Y-123696167D01*
X113002334Y-123634844D01*
X112999500Y-123608486D01*
X112999500Y-122737341D01*
X114051386Y-122737341D01*
X114051386Y-122899052D01*
X114091597Y-123055663D01*
X114091600Y-123055673D01*
X114169495Y-123197364D01*
X114169502Y-123197374D01*
X114183122Y-123213321D01*
X114557035Y-122839410D01*
X114557035Y-122839409D01*
X114164940Y-122447316D01*
X114164939Y-122447316D01*
X114091599Y-122580722D01*
X114051386Y-122737341D01*
X112999500Y-122737341D01*
X112999500Y-121798175D01*
X113019185Y-121731136D01*
X113071989Y-121685381D01*
X113092664Y-121678070D01*
X113169274Y-121658400D01*
X113169278Y-121658399D01*
X113302682Y-121585059D01*
X113302683Y-121585059D01*
X112164940Y-120447316D01*
X112164939Y-120447316D01*
X112142614Y-120487926D01*
X112123997Y-120506437D01*
X112108262Y-120527456D01*
X112099613Y-120530681D01*
X112093068Y-120537190D01*
X112067398Y-120542697D01*
X112042798Y-120551873D01*
X112033777Y-120549910D01*
X112024753Y-120551847D01*
X112000179Y-120542601D01*
X111974525Y-120537021D01*
X111963592Y-120528836D01*
X111959359Y-120527244D01*
X111946271Y-120515870D01*
X111778152Y-120347751D01*
X111744667Y-120286428D01*
X111749651Y-120216736D01*
X111767456Y-120184586D01*
X111777848Y-120171044D01*
X111777849Y-120171041D01*
X111782800Y-120164590D01*
X111785246Y-120166467D01*
X111808297Y-120143416D01*
X111806421Y-120140971D01*
X111858404Y-120101082D01*
X111902905Y-120066935D01*
X111902909Y-120066930D01*
X111902914Y-120066927D01*
X112062307Y-119907534D01*
X112062310Y-119907529D01*
X112062315Y-119907525D01*
X112131402Y-119817490D01*
X112131402Y-119817487D01*
X112135208Y-119812529D01*
X112135412Y-119811964D01*
X112160071Y-119786712D01*
X112190489Y-119763372D01*
X112255658Y-119738179D01*
X112324103Y-119752218D01*
G37*
%TD.AperFunction*%
%TA.AperFunction,Conductor*%
G36*
X102432123Y-121120185D02*
G01*
X102452765Y-121136819D01*
X103818201Y-122502255D01*
X103851686Y-122563578D01*
X103846702Y-122633270D01*
X103804830Y-122689203D01*
X103739366Y-122713620D01*
X103699685Y-122710041D01*
X103689100Y-122707323D01*
X103527390Y-122707323D01*
X103370779Y-122747534D01*
X103370769Y-122747537D01*
X103229076Y-122825434D01*
X103229067Y-122825440D01*
X103213119Y-122839060D01*
X103587032Y-123212972D01*
X103587033Y-123212972D01*
X103986777Y-122813225D01*
X103986739Y-122796196D01*
X103991740Y-122788374D01*
X103993075Y-122779186D01*
X104010264Y-122759404D01*
X104024379Y-122737332D01*
X104032813Y-122733456D01*
X104038905Y-122726447D01*
X104064059Y-122719100D01*
X104087867Y-122708161D01*
X104099237Y-122708825D01*
X104105973Y-122706858D01*
X104123161Y-122708080D01*
X104130608Y-122709133D01*
X104218238Y-122732614D01*
X104296622Y-122732614D01*
X104305262Y-122733836D01*
X104329451Y-122744815D01*
X104354936Y-122752299D01*
X104360769Y-122759031D01*
X104368885Y-122762715D01*
X104383300Y-122785033D01*
X104400691Y-122805103D01*
X104401958Y-122813920D01*
X104406794Y-122821406D01*
X104406854Y-122847970D01*
X104410635Y-122874261D01*
X104406937Y-122883911D01*
X104406954Y-122891276D01*
X104399869Y-122902354D01*
X104390999Y-122925505D01*
X104368445Y-122959259D01*
X104349978Y-122986896D01*
X104300942Y-123105280D01*
X104300940Y-123105286D01*
X104283228Y-123194329D01*
X104274462Y-123211084D01*
X104270443Y-123229564D01*
X104251697Y-123254604D01*
X104250842Y-123256240D01*
X104249292Y-123257818D01*
X104116197Y-123390913D01*
X104059357Y-123423335D01*
X104049407Y-123425889D01*
X103907600Y-123503848D01*
X103907596Y-123503851D01*
X103879909Y-123527498D01*
X103879905Y-123527502D01*
X103826910Y-123580498D01*
X103665352Y-123742056D01*
X103548008Y-123859399D01*
X103548004Y-123859403D01*
X103524357Y-123887090D01*
X103524354Y-123887094D01*
X103446395Y-124028901D01*
X103443841Y-124038851D01*
X103411419Y-124095691D01*
X103194936Y-124312173D01*
X103328345Y-124385515D01*
X103351068Y-124391350D01*
X103411106Y-124427088D01*
X103440335Y-124480614D01*
X103446397Y-124504223D01*
X103524354Y-124646027D01*
X103524357Y-124646031D01*
X103548004Y-124673718D01*
X103548020Y-124673735D01*
X103562104Y-124687819D01*
X103595589Y-124749142D01*
X103590605Y-124818834D01*
X103548733Y-124874767D01*
X103483269Y-124899184D01*
X103474423Y-124899500D01*
X101800097Y-124899500D01*
X101733058Y-124879815D01*
X101712416Y-124863181D01*
X100356119Y-123506884D01*
X102727829Y-123506884D01*
X102727829Y-123668595D01*
X102768043Y-123825215D01*
X102768043Y-123825216D01*
X102841382Y-123958619D01*
X102841383Y-123958620D01*
X103233478Y-123566526D01*
X102859566Y-123192614D01*
X102845944Y-123208563D01*
X102768043Y-123350263D01*
X102768040Y-123350273D01*
X102727829Y-123506884D01*
X100356119Y-123506884D01*
X98161416Y-121312181D01*
X98127931Y-121250858D01*
X98132915Y-121181166D01*
X98174787Y-121125233D01*
X98240251Y-121100816D01*
X98249097Y-121100500D01*
X102365084Y-121100500D01*
X102432123Y-121120185D01*
G37*
%TD.AperFunction*%
%TA.AperFunction,Conductor*%
G36*
X100494111Y-111659633D02*
G01*
X100540806Y-111711609D01*
X100551988Y-111780578D01*
X100524107Y-111844644D01*
X100516634Y-111852815D01*
X99131286Y-113238164D01*
X99019481Y-113349968D01*
X99019479Y-113349971D01*
X98969361Y-113436780D01*
X98969359Y-113436782D01*
X98940425Y-113486895D01*
X98940424Y-113486896D01*
X98925592Y-113542251D01*
X98899499Y-113639629D01*
X98899499Y-113639631D01*
X98899499Y-113807732D01*
X98899500Y-113807745D01*
X98899500Y-114071646D01*
X98899499Y-114071664D01*
X98899499Y-114237370D01*
X98899498Y-114237370D01*
X98940424Y-114390105D01*
X98940425Y-114390106D01*
X98961884Y-114427273D01*
X98961885Y-114427275D01*
X99019475Y-114527025D01*
X99019481Y-114527033D01*
X99191010Y-114698562D01*
X99224495Y-114759885D01*
X99227329Y-114786243D01*
X99227329Y-114805052D01*
X99267573Y-114961793D01*
X99345532Y-115103601D01*
X99345535Y-115103605D01*
X99369182Y-115131292D01*
X99369198Y-115131309D01*
X99701070Y-115463181D01*
X99701087Y-115463197D01*
X99710316Y-115471079D01*
X99728776Y-115486846D01*
X99870587Y-115564806D01*
X99993748Y-115596427D01*
X100050587Y-115628849D01*
X100332946Y-115911209D01*
X100332953Y-115911215D01*
X100394152Y-115952106D01*
X100394154Y-115952107D01*
X100394157Y-115952109D01*
X100439494Y-115982402D01*
X100557877Y-116031438D01*
X100557881Y-116031438D01*
X100557882Y-116031439D01*
X100683549Y-116056437D01*
X100683552Y-116056437D01*
X100716547Y-116056437D01*
X100783586Y-116076122D01*
X100804228Y-116092756D01*
X102029727Y-117318255D01*
X102063212Y-117379578D01*
X102058228Y-117449270D01*
X102029727Y-117493617D01*
X101083468Y-118439876D01*
X101083462Y-118439883D01*
X101014376Y-118529917D01*
X100956390Y-118669911D01*
X100956389Y-118669915D01*
X100936610Y-118820150D01*
X100956388Y-118970384D01*
X100956390Y-118970389D01*
X101014375Y-119110381D01*
X101014377Y-119110384D01*
X101083464Y-119200418D01*
X101083472Y-119200427D01*
X101242865Y-119359820D01*
X101242873Y-119359827D01*
X101339358Y-119433864D01*
X101337484Y-119436305D01*
X101360550Y-119459355D01*
X101362983Y-119457489D01*
X101437018Y-119553972D01*
X101437026Y-119553981D01*
X101570864Y-119687819D01*
X101604349Y-119749142D01*
X101599365Y-119818834D01*
X101557493Y-119874767D01*
X101492029Y-119899184D01*
X101483183Y-119899500D01*
X92204508Y-119899500D01*
X92137469Y-119879815D01*
X92095321Y-119833232D01*
X92095216Y-119833297D01*
X92094872Y-119832736D01*
X92094026Y-119831801D01*
X92092675Y-119829149D01*
X92092672Y-119829145D01*
X92092672Y-119829144D01*
X92058760Y-119782469D01*
X91990857Y-119689009D01*
X91868371Y-119566523D01*
X91785418Y-119506254D01*
X91742754Y-119450925D01*
X91736775Y-119381311D01*
X91769381Y-119319516D01*
X91785415Y-119305622D01*
X91868371Y-119245352D01*
X91990857Y-119122866D01*
X92092675Y-118982726D01*
X92171316Y-118828383D01*
X92224845Y-118663639D01*
X92251943Y-118492549D01*
X92251943Y-118319327D01*
X92224845Y-118148237D01*
X92171316Y-117983493D01*
X92092675Y-117829150D01*
X91990857Y-117689010D01*
X91882951Y-117581104D01*
X91849466Y-117519781D01*
X91854450Y-117450089D01*
X91896322Y-117394156D01*
X91905536Y-117387884D01*
X91969786Y-117348254D01*
X92093758Y-117224282D01*
X92185799Y-117075061D01*
X92185801Y-117075056D01*
X92240948Y-116908634D01*
X92240949Y-116908627D01*
X92251442Y-116805923D01*
X92251443Y-116805910D01*
X92251443Y-116655937D01*
X91156773Y-116655937D01*
X91176518Y-116636192D01*
X91225887Y-116550682D01*
X91251443Y-116455307D01*
X91251443Y-116356567D01*
X91225887Y-116261192D01*
X91176518Y-116175682D01*
X91156773Y-116155937D01*
X92251442Y-116155937D01*
X92251442Y-116005965D01*
X92251441Y-116005950D01*
X92240948Y-115903239D01*
X92185801Y-115736817D01*
X92185799Y-115736812D01*
X92093758Y-115587591D01*
X91969788Y-115463621D01*
X91820567Y-115371580D01*
X91820562Y-115371578D01*
X91654140Y-115316431D01*
X91654133Y-115316430D01*
X91551429Y-115305937D01*
X91126443Y-115305937D01*
X91126443Y-116125607D01*
X91106698Y-116105862D01*
X91021188Y-116056493D01*
X90925813Y-116030937D01*
X90827073Y-116030937D01*
X90731698Y-116056493D01*
X90646188Y-116105862D01*
X90626443Y-116125607D01*
X90626443Y-115305937D01*
X90201471Y-115305937D01*
X90201455Y-115305938D01*
X90098745Y-115316431D01*
X89932323Y-115371578D01*
X89932318Y-115371580D01*
X89783097Y-115463621D01*
X89659127Y-115587591D01*
X89567086Y-115736812D01*
X89567084Y-115736817D01*
X89511937Y-115903239D01*
X89511936Y-115903246D01*
X89501443Y-116005950D01*
X89501443Y-116155937D01*
X90596113Y-116155937D01*
X90576368Y-116175682D01*
X90526999Y-116261192D01*
X90501443Y-116356567D01*
X90501443Y-116455307D01*
X90526999Y-116550682D01*
X90576368Y-116636192D01*
X90596113Y-116655937D01*
X89501444Y-116655937D01*
X89501444Y-116805923D01*
X89511937Y-116908634D01*
X89567084Y-117075056D01*
X89567086Y-117075061D01*
X89659127Y-117224282D01*
X89783097Y-117348252D01*
X89847350Y-117387884D01*
X89894074Y-117439832D01*
X89905296Y-117508795D01*
X89877453Y-117572877D01*
X89869935Y-117581104D01*
X89762028Y-117689011D01*
X89660211Y-117829149D01*
X89581571Y-117983490D01*
X89528040Y-118148240D01*
X89500943Y-118319327D01*
X89500943Y-118492548D01*
X89528040Y-118663636D01*
X89563776Y-118773619D01*
X89565771Y-118843460D01*
X89533526Y-118899618D01*
X89331729Y-119101416D01*
X89219924Y-119213220D01*
X89219922Y-119213222D01*
X89192240Y-119261170D01*
X89180539Y-119281438D01*
X89149251Y-119335629D01*
X89142367Y-119347554D01*
X89140866Y-119350153D01*
X89099942Y-119502881D01*
X89099942Y-119502883D01*
X89099942Y-119670984D01*
X89099943Y-119670997D01*
X89099943Y-120890473D01*
X89099942Y-120890491D01*
X89099942Y-121056197D01*
X89099941Y-121056197D01*
X89140866Y-121208928D01*
X89151326Y-121227046D01*
X89164868Y-121250500D01*
X89214990Y-121337314D01*
X89219922Y-121345857D01*
X89219924Y-121345860D01*
X89317820Y-121443756D01*
X89351305Y-121505079D01*
X89346321Y-121574771D01*
X89304449Y-121630704D01*
X89238985Y-121655121D01*
X89230139Y-121655437D01*
X87768167Y-121655437D01*
X87701128Y-121635752D01*
X87680486Y-121619118D01*
X86286819Y-120225451D01*
X86253334Y-120164128D01*
X86250500Y-120137770D01*
X86250500Y-115908980D01*
X86270185Y-115841941D01*
X86286819Y-115821299D01*
X87958431Y-114149687D01*
X93315596Y-114149687D01*
X93315596Y-114325008D01*
X93356029Y-114495609D01*
X93434717Y-114652290D01*
X93499916Y-114732326D01*
X93499932Y-114732344D01*
X93535266Y-114767678D01*
X93535267Y-114767678D01*
X94224695Y-114078248D01*
X93694365Y-113547918D01*
X93499926Y-113742358D01*
X93434714Y-113822411D01*
X93356029Y-113979086D01*
X93315596Y-114149687D01*
X87958431Y-114149687D01*
X89649548Y-112458570D01*
X89710871Y-112425085D01*
X89737229Y-112422251D01*
X91387769Y-112422251D01*
X91454808Y-112441936D01*
X91475451Y-112458569D01*
X91767330Y-112750447D01*
X91847437Y-112815706D01*
X92004219Y-112894443D01*
X92174931Y-112934904D01*
X92174934Y-112934904D01*
X92350370Y-112934904D01*
X92350373Y-112934904D01*
X92502099Y-112898943D01*
X92521077Y-112894445D01*
X92521077Y-112894444D01*
X92521085Y-112894443D01*
X92521091Y-112894439D01*
X92521922Y-112894138D01*
X92522541Y-112894098D01*
X92528113Y-112892778D01*
X92528338Y-112893729D01*
X92553293Y-112892141D01*
X92584507Y-112888306D01*
X92588537Y-112889898D01*
X92591650Y-112889700D01*
X92618160Y-112898943D01*
X92626003Y-112902721D01*
X92644505Y-112915084D01*
X92692355Y-112934904D01*
X92781088Y-112971659D01*
X92897241Y-112994763D01*
X92916468Y-112998587D01*
X92926081Y-113000500D01*
X93942420Y-113000500D01*
X94009459Y-113020185D01*
X94055214Y-113072989D01*
X94065158Y-113142147D01*
X94047918Y-113179897D01*
X94047918Y-113194365D01*
X94578248Y-113724695D01*
X95267677Y-113035266D01*
X95232340Y-112999929D01*
X95232333Y-112999923D01*
X95152284Y-112934714D01*
X94995608Y-112856028D01*
X94977135Y-112851650D01*
X94916443Y-112817033D01*
X94884101Y-112755100D01*
X94890377Y-112685513D01*
X94918051Y-112643315D01*
X95247628Y-112313737D01*
X95308949Y-112280254D01*
X95374901Y-112283911D01*
X95406521Y-112294565D01*
X95595837Y-112315155D01*
X95684111Y-112305554D01*
X95752884Y-112317874D01*
X95804080Y-112365421D01*
X95821443Y-112433099D01*
X95820790Y-112442233D01*
X95811190Y-112530507D01*
X95811190Y-112530509D01*
X95831779Y-112719823D01*
X95831781Y-112719830D01*
X95853090Y-112783073D01*
X95855842Y-112852889D01*
X95838687Y-112891551D01*
X95834915Y-112897196D01*
X95834914Y-112897197D01*
X95778343Y-113033773D01*
X95778340Y-113033783D01*
X95749500Y-113178770D01*
X95749500Y-113264819D01*
X95729815Y-113331858D01*
X95677011Y-113377613D01*
X95625500Y-113388819D01*
X95621230Y-113388819D01*
X94755026Y-114255026D01*
X93888820Y-115121231D01*
X93924157Y-115156568D01*
X93924164Y-115156574D01*
X94004213Y-115221783D01*
X94160888Y-115300468D01*
X94331490Y-115340902D01*
X94506810Y-115340902D01*
X94510231Y-115340091D01*
X94512656Y-115340219D01*
X94513985Y-115340064D01*
X94514011Y-115340290D01*
X94580003Y-115343779D01*
X94636706Y-115384603D01*
X94662335Y-115449602D01*
X94659496Y-115489335D01*
X94658599Y-115493117D01*
X94658598Y-115493132D01*
X94658598Y-115668567D01*
X94658599Y-115668578D01*
X94699058Y-115839282D01*
X94777795Y-115996064D01*
X94806611Y-116031437D01*
X94843053Y-116076172D01*
X95267330Y-116500447D01*
X95267334Y-116500450D01*
X95267336Y-116500452D01*
X95279448Y-116510319D01*
X95347437Y-116565706D01*
X95504219Y-116644443D01*
X95674931Y-116684904D01*
X95674934Y-116684904D01*
X95850370Y-116684904D01*
X95850373Y-116684904D01*
X95972590Y-116655937D01*
X96021082Y-116644444D01*
X96021083Y-116644443D01*
X96021085Y-116644443D01*
X96177866Y-116565706D01*
X96257974Y-116500449D01*
X97000447Y-115757974D01*
X97065706Y-115677866D01*
X97144443Y-115521085D01*
X97158164Y-115463196D01*
X97164826Y-115435084D01*
X97184904Y-115350373D01*
X97184904Y-115175812D01*
X97189265Y-115143216D01*
X97191332Y-115135628D01*
X97191849Y-115134381D01*
X97221659Y-115062414D01*
X97248890Y-114925514D01*
X97250500Y-114917420D01*
X97250500Y-114049666D01*
X97270185Y-113982627D01*
X97322989Y-113936872D01*
X97361092Y-113926393D01*
X97411499Y-113920911D01*
X97591962Y-113860106D01*
X97755136Y-113761927D01*
X97787427Y-113733738D01*
X98778963Y-112742200D01*
X98807154Y-112709909D01*
X98905333Y-112546735D01*
X98966138Y-112366272D01*
X98986728Y-112176955D01*
X98966138Y-111987639D01*
X98966137Y-111987635D01*
X98966137Y-111987633D01*
X98955485Y-111956021D01*
X98954859Y-111940150D01*
X98949309Y-111925269D01*
X98953510Y-111905955D01*
X98952732Y-111886206D01*
X98960967Y-111871682D01*
X98964162Y-111856997D01*
X98985314Y-111828743D01*
X99027242Y-111786817D01*
X99088566Y-111753333D01*
X99114921Y-111750500D01*
X100073920Y-111750500D01*
X100171462Y-111731096D01*
X100218913Y-111721658D01*
X100355495Y-111665084D01*
X100360056Y-111662036D01*
X100426730Y-111641154D01*
X100494111Y-111659633D01*
G37*
%TD.AperFunction*%
%TA.AperFunction,Conductor*%
G36*
X118759096Y-114967978D02*
G01*
X118764458Y-114966892D01*
X118792262Y-114977717D01*
X118820886Y-114986122D01*
X118825820Y-114990782D01*
X118829567Y-114992241D01*
X118854165Y-115017551D01*
X118856918Y-115021340D01*
X118856919Y-115021342D01*
X118972615Y-115180583D01*
X119111797Y-115319765D01*
X119271038Y-115435461D01*
X119394435Y-115498334D01*
X119447656Y-115525452D01*
X119498452Y-115573426D01*
X119515247Y-115641247D01*
X119492710Y-115707382D01*
X119447656Y-115746422D01*
X119271037Y-115836413D01*
X119111794Y-115952111D01*
X118972617Y-116091288D01*
X118972617Y-116091289D01*
X118972615Y-116091291D01*
X118935641Y-116142181D01*
X118856919Y-116250531D01*
X118767560Y-116425907D01*
X118706733Y-116613110D01*
X118675943Y-116807514D01*
X118675943Y-117004359D01*
X118706733Y-117198763D01*
X118767560Y-117385966D01*
X118822412Y-117493618D01*
X118856919Y-117561342D01*
X118972615Y-117720583D01*
X119111797Y-117859765D01*
X119231227Y-117946537D01*
X119271039Y-117975462D01*
X119448206Y-118065732D01*
X119499003Y-118113706D01*
X119515798Y-118181527D01*
X119493261Y-118247662D01*
X119448207Y-118286702D01*
X119271302Y-118376839D01*
X119236316Y-118402257D01*
X119236315Y-118402257D01*
X119879997Y-119045937D01*
X119873782Y-119045937D01*
X119772049Y-119073196D01*
X119680837Y-119125857D01*
X119606363Y-119200331D01*
X119553702Y-119291543D01*
X119526443Y-119393276D01*
X119526443Y-119399489D01*
X118882763Y-118755809D01*
X118882763Y-118755810D01*
X118857345Y-118790796D01*
X118857342Y-118790800D01*
X118768025Y-118966098D01*
X118707221Y-119153231D01*
X118676443Y-119347554D01*
X118676443Y-119544319D01*
X118707221Y-119738642D01*
X118768024Y-119925772D01*
X118857348Y-120101082D01*
X118882762Y-120136062D01*
X118882763Y-120136062D01*
X119526443Y-119492382D01*
X119526443Y-119498598D01*
X119553702Y-119600331D01*
X119606363Y-119691543D01*
X119680837Y-119766017D01*
X119772049Y-119818678D01*
X119873782Y-119845937D01*
X119879996Y-119845937D01*
X119236316Y-120489614D01*
X119236316Y-120489615D01*
X119271301Y-120515033D01*
X119446607Y-120604355D01*
X119633737Y-120665158D01*
X119828061Y-120695937D01*
X120024824Y-120695937D01*
X120158816Y-120674714D01*
X120228110Y-120683668D01*
X120281562Y-120728664D01*
X120302202Y-120795416D01*
X120283477Y-120862729D01*
X120265896Y-120884868D01*
X119626995Y-121523770D01*
X119565672Y-121557255D01*
X119539314Y-121560089D01*
X116144067Y-121560089D01*
X116077028Y-121540404D01*
X116056390Y-121523774D01*
X115975357Y-121442741D01*
X115947667Y-121419091D01*
X115947665Y-121419090D01*
X115947664Y-121419089D01*
X115805856Y-121341130D01*
X115649115Y-121300886D01*
X115649112Y-121300886D01*
X115630305Y-121300886D01*
X115563266Y-121281201D01*
X115542624Y-121264567D01*
X114485433Y-120207376D01*
X114451948Y-120146053D01*
X114449114Y-120119695D01*
X114449114Y-120100892D01*
X114449113Y-120100884D01*
X114408869Y-119944143D01*
X114330910Y-119802335D01*
X114330909Y-119802333D01*
X114307259Y-119774643D01*
X114307244Y-119774627D01*
X113975372Y-119442755D01*
X113975360Y-119442744D01*
X113975357Y-119442741D01*
X113959169Y-119428915D01*
X113947668Y-119419091D01*
X113947664Y-119419089D01*
X113805856Y-119341130D01*
X113649115Y-119300886D01*
X113649112Y-119300886D01*
X113630306Y-119300886D01*
X113563267Y-119281201D01*
X113542625Y-119264567D01*
X112877540Y-118599482D01*
X112850660Y-118559253D01*
X112838511Y-118529923D01*
X112838509Y-118529918D01*
X112770411Y-118441171D01*
X112769423Y-118439883D01*
X112769417Y-118439876D01*
X112141721Y-117812181D01*
X112108236Y-117750858D01*
X112113220Y-117681167D01*
X112155091Y-117625233D01*
X112220556Y-117600816D01*
X112229402Y-117600500D01*
X114413331Y-117600500D01*
X114413347Y-117600501D01*
X114420943Y-117600501D01*
X114579054Y-117600501D01*
X114579057Y-117600501D01*
X114731785Y-117559577D01*
X114782255Y-117530438D01*
X114782256Y-117530438D01*
X114868709Y-117480524D01*
X114868708Y-117480524D01*
X114868716Y-117480520D01*
X114980520Y-117368716D01*
X114980520Y-117368714D01*
X114990724Y-117358511D01*
X114990727Y-117358506D01*
X117346480Y-115002756D01*
X117407803Y-114969271D01*
X117434161Y-114966437D01*
X118753847Y-114966437D01*
X118759096Y-114967978D01*
G37*
%TD.AperFunction*%
%TA.AperFunction,Conductor*%
G36*
X121312130Y-117056289D02*
G01*
X121370363Y-117094899D01*
X121398477Y-117158862D01*
X121399500Y-117174755D01*
X121399500Y-119180316D01*
X121379815Y-119247355D01*
X121327011Y-119293110D01*
X121257853Y-119303054D01*
X121194297Y-119274029D01*
X121156523Y-119215251D01*
X121153027Y-119199714D01*
X121145664Y-119153231D01*
X121084861Y-118966101D01*
X120995539Y-118790795D01*
X120970121Y-118755810D01*
X120970120Y-118755810D01*
X120326443Y-119399489D01*
X120326443Y-119393276D01*
X120299184Y-119291543D01*
X120246523Y-119200331D01*
X120172049Y-119125857D01*
X120080837Y-119073196D01*
X119979104Y-119045937D01*
X119972890Y-119045937D01*
X120616568Y-118402257D01*
X120616568Y-118402256D01*
X120581588Y-118376842D01*
X120404678Y-118286702D01*
X120353882Y-118238727D01*
X120337087Y-118170906D01*
X120359625Y-118104771D01*
X120404679Y-118065732D01*
X120406465Y-118064821D01*
X120406468Y-118064821D01*
X120581848Y-117975461D01*
X120741089Y-117859765D01*
X120880271Y-117720583D01*
X120995967Y-117561342D01*
X121085327Y-117385962D01*
X121146152Y-117198763D01*
X121153027Y-117155357D01*
X121182956Y-117092222D01*
X121242268Y-117055291D01*
X121312130Y-117056289D01*
G37*
%TD.AperFunction*%
%TA.AperFunction,Conductor*%
G36*
X105249307Y-108901915D02*
G01*
X105259006Y-108904214D01*
X105259009Y-108904214D01*
X105259012Y-108904215D01*
X105259015Y-108904215D01*
X105304165Y-108904215D01*
X105371204Y-108923900D01*
X105416959Y-108976704D01*
X105428165Y-109028215D01*
X105428165Y-109073368D01*
X105463157Y-109221012D01*
X105466941Y-109236976D01*
X105542395Y-109387219D01*
X105542399Y-109387226D01*
X105604940Y-109464000D01*
X105982074Y-109841134D01*
X106058848Y-109903675D01*
X106209101Y-109979134D01*
X106372706Y-110017909D01*
X106372708Y-110017909D01*
X106540841Y-110017909D01*
X106593417Y-110005448D01*
X106663187Y-110009140D01*
X106709694Y-110038424D01*
X108015352Y-111344082D01*
X108048837Y-111405405D01*
X108043853Y-111475097D01*
X108003158Y-111530138D01*
X107960392Y-111562953D01*
X107960382Y-111562962D01*
X107014124Y-112509221D01*
X106952801Y-112542706D01*
X106883109Y-112537722D01*
X106838762Y-112509221D01*
X105892503Y-111562962D01*
X105892496Y-111562956D01*
X105802461Y-111493870D01*
X105802462Y-111493870D01*
X105662468Y-111435884D01*
X105662466Y-111435883D01*
X105662465Y-111435883D01*
X105512230Y-111416104D01*
X105512229Y-111416104D01*
X105361995Y-111435882D01*
X105361990Y-111435884D01*
X105221998Y-111493869D01*
X105221995Y-111493871D01*
X105131961Y-111562958D01*
X104972552Y-111722367D01*
X104898517Y-111818851D01*
X104896152Y-111817036D01*
X104873076Y-111840112D01*
X104874891Y-111842477D01*
X104778407Y-111916512D01*
X104619006Y-112075913D01*
X104619004Y-112075914D01*
X104544963Y-112172405D01*
X104542597Y-112170590D01*
X104519523Y-112193664D01*
X104521338Y-112196030D01*
X104424847Y-112270071D01*
X104424846Y-112270073D01*
X104265445Y-112429474D01*
X104191410Y-112525958D01*
X104189045Y-112524143D01*
X104165969Y-112547219D01*
X104167784Y-112549584D01*
X104071300Y-112623619D01*
X103911899Y-112783020D01*
X103911897Y-112783021D01*
X103837856Y-112879512D01*
X103835490Y-112877697D01*
X103812416Y-112900771D01*
X103814231Y-112903137D01*
X103717740Y-112977178D01*
X103717739Y-112977180D01*
X103558346Y-113136573D01*
X103558344Y-113136574D01*
X103484303Y-113233065D01*
X103481937Y-113231250D01*
X103458863Y-113254324D01*
X103460678Y-113256690D01*
X103364187Y-113330731D01*
X103364186Y-113330733D01*
X103204785Y-113490134D01*
X103130750Y-113586618D01*
X103128385Y-113584803D01*
X103105309Y-113607879D01*
X103107124Y-113610244D01*
X103010640Y-113684279D01*
X102851239Y-113843680D01*
X102851237Y-113843681D01*
X102777196Y-113940172D01*
X102774830Y-113938357D01*
X102751756Y-113961431D01*
X102753571Y-113963797D01*
X102657080Y-114037838D01*
X102657079Y-114037840D01*
X102497686Y-114197233D01*
X102497684Y-114197234D01*
X102423643Y-114293725D01*
X102421277Y-114291910D01*
X102398203Y-114314984D01*
X102400018Y-114317350D01*
X102303527Y-114391391D01*
X102303526Y-114391393D01*
X102144125Y-114550794D01*
X102070090Y-114647278D01*
X102067725Y-114645463D01*
X102044649Y-114668539D01*
X102046464Y-114670904D01*
X101949980Y-114744939D01*
X101790579Y-114904340D01*
X101790577Y-114904341D01*
X101731259Y-114981645D01*
X101674830Y-115022847D01*
X101605084Y-115027001D01*
X101545203Y-114993838D01*
X101452028Y-114900663D01*
X101452024Y-114900660D01*
X101345482Y-114829472D01*
X101227099Y-114780436D01*
X101227093Y-114780434D01*
X101138049Y-114762722D01*
X101121292Y-114753956D01*
X101102814Y-114749937D01*
X101077777Y-114731194D01*
X101076138Y-114730337D01*
X101074560Y-114728786D01*
X100941467Y-114595693D01*
X100909043Y-114538846D01*
X100906491Y-114528908D01*
X100906490Y-114528903D01*
X100905461Y-114527032D01*
X100828531Y-114387094D01*
X100828530Y-114387092D01*
X100804880Y-114359402D01*
X100804865Y-114359386D01*
X100726610Y-114281131D01*
X100693125Y-114219808D01*
X100698109Y-114150116D01*
X100700122Y-114145062D01*
X100733408Y-114066525D01*
X101119407Y-114066525D01*
X101119407Y-114066526D01*
X101511501Y-114458620D01*
X101511502Y-114458619D01*
X101584842Y-114325215D01*
X101584845Y-114325207D01*
X101625056Y-114168595D01*
X101625057Y-114168590D01*
X101625057Y-114006892D01*
X101625056Y-114006884D01*
X101584845Y-113850273D01*
X101584842Y-113850263D01*
X101506946Y-113708570D01*
X101493317Y-113692613D01*
X101119407Y-114066525D01*
X100733408Y-114066525D01*
X100743066Y-114043738D01*
X100676757Y-113977429D01*
X100643272Y-113916106D01*
X100648256Y-113846414D01*
X100676757Y-113802067D01*
X101139763Y-113339061D01*
X101139763Y-113339059D01*
X101123815Y-113325437D01*
X101123811Y-113325435D01*
X101022478Y-113269727D01*
X100973214Y-113220181D01*
X100958557Y-113151866D01*
X100983160Y-113086472D01*
X100994520Y-113073399D01*
X105133030Y-108934889D01*
X105141984Y-108930000D01*
X105148250Y-108921946D01*
X105172131Y-108913538D01*
X105194351Y-108901406D01*
X105206282Y-108901516D01*
X105214155Y-108898745D01*
X105249307Y-108901915D01*
G37*
%TD.AperFunction*%
%TA.AperFunction,Conductor*%
G36*
X117845649Y-106194976D02*
G01*
X117848530Y-106197765D01*
X119289624Y-107638859D01*
X119323109Y-107700182D01*
X119325943Y-107726540D01*
X119325943Y-110451437D01*
X119306258Y-110518476D01*
X119253454Y-110564231D01*
X119201945Y-110575437D01*
X119128573Y-110575437D01*
X119128566Y-110575438D01*
X119068959Y-110581845D01*
X118934114Y-110632139D01*
X118934107Y-110632143D01*
X118818898Y-110718389D01*
X118818895Y-110718392D01*
X118732649Y-110833601D01*
X118732645Y-110833608D01*
X118682351Y-110968454D01*
X118677098Y-111017322D01*
X118675944Y-111028060D01*
X118675943Y-111028072D01*
X118675943Y-111101437D01*
X118656258Y-111168476D01*
X118603454Y-111214231D01*
X118551943Y-111225437D01*
X117760733Y-111225437D01*
X117760717Y-111225436D01*
X117753121Y-111225436D01*
X117595006Y-111225436D01*
X117518642Y-111245898D01*
X117442277Y-111266360D01*
X117442272Y-111266363D01*
X117305353Y-111345412D01*
X117305345Y-111345418D01*
X114111828Y-114538935D01*
X114091805Y-114549868D01*
X114074397Y-114564616D01*
X114061724Y-114566293D01*
X114050505Y-114572420D01*
X114027747Y-114570792D01*
X114005131Y-114573787D01*
X113989046Y-114568024D01*
X113980813Y-114567436D01*
X113971380Y-114563467D01*
X113966074Y-114560971D01*
X113926395Y-114537506D01*
X113899645Y-114529734D01*
X113890832Y-114525590D01*
X113871683Y-114508619D01*
X113850119Y-114494848D01*
X113845969Y-114485830D01*
X113838542Y-114479248D01*
X113831608Y-114454620D01*
X113820912Y-114431375D01*
X113822296Y-114421546D01*
X113819607Y-114411993D01*
X113827089Y-114387524D01*
X113830658Y-114362189D01*
X113838142Y-114351375D01*
X113840038Y-114345178D01*
X113845828Y-114340272D01*
X113855916Y-114325698D01*
X114685949Y-113495664D01*
X114685954Y-113495661D01*
X114696157Y-113485457D01*
X114696159Y-113485457D01*
X114807963Y-113373653D01*
X114870636Y-113265099D01*
X114872635Y-113261638D01*
X114878557Y-113251380D01*
X114887020Y-113236722D01*
X114927943Y-113083995D01*
X114927943Y-112925880D01*
X114927943Y-111828897D01*
X114927944Y-111828884D01*
X114927944Y-111660781D01*
X114927944Y-111660780D01*
X114887020Y-111508053D01*
X114861753Y-111464289D01*
X114807967Y-111371127D01*
X114807961Y-111371119D01*
X114563262Y-111126420D01*
X114529777Y-111065097D01*
X114526943Y-111038739D01*
X114526943Y-109129936D01*
X114546628Y-109062897D01*
X114599432Y-109017142D01*
X114650943Y-109005936D01*
X114676443Y-109005936D01*
X115176443Y-109005936D01*
X115426415Y-109005936D01*
X115426429Y-109005935D01*
X115529140Y-108995442D01*
X115695562Y-108940295D01*
X115695567Y-108940293D01*
X115844788Y-108848252D01*
X115968758Y-108724282D01*
X116060799Y-108575061D01*
X116060801Y-108575056D01*
X116115948Y-108408634D01*
X116115949Y-108408627D01*
X116126442Y-108305923D01*
X116126443Y-108305910D01*
X116126443Y-108155937D01*
X115176443Y-108155937D01*
X115176443Y-109005936D01*
X114676443Y-109005936D01*
X114676443Y-108029937D01*
X114696128Y-107962898D01*
X114748932Y-107917143D01*
X114800443Y-107905937D01*
X114926443Y-107905937D01*
X114926443Y-107779937D01*
X114946128Y-107712898D01*
X114998932Y-107667143D01*
X115050443Y-107655937D01*
X116177804Y-107655937D01*
X116177804Y-107659492D01*
X116222173Y-107662645D01*
X116253452Y-107682737D01*
X116254899Y-107680873D01*
X116261068Y-107685658D01*
X116400247Y-107767968D01*
X116555532Y-107813082D01*
X116576443Y-107814726D01*
X117076443Y-107814726D01*
X117097353Y-107813082D01*
X117252638Y-107767968D01*
X117391817Y-107685658D01*
X117391826Y-107685651D01*
X117506157Y-107571320D01*
X117506164Y-107571311D01*
X117588474Y-107432132D01*
X117630947Y-107285937D01*
X117076443Y-107285937D01*
X117076443Y-107814726D01*
X116576443Y-107814726D01*
X116576443Y-107159937D01*
X116596128Y-107092898D01*
X116648932Y-107047143D01*
X116700443Y-107035937D01*
X116826443Y-107035937D01*
X116826443Y-106980437D01*
X116846128Y-106913398D01*
X116898932Y-106867643D01*
X116950443Y-106856437D01*
X117061125Y-106856437D01*
X117061133Y-106856437D01*
X117097436Y-106853580D01*
X117097438Y-106853579D01*
X117097440Y-106853579D01*
X117252832Y-106808433D01*
X117252832Y-106808432D01*
X117252838Y-106808431D01*
X117261676Y-106803204D01*
X117324795Y-106785937D01*
X117630947Y-106785937D01*
X117588474Y-106639740D01*
X117576533Y-106619550D01*
X117559349Y-106551826D01*
X117576532Y-106493306D01*
X117588937Y-106472332D01*
X117634086Y-106316930D01*
X117636943Y-106280627D01*
X117636943Y-106280624D01*
X117636944Y-106280604D01*
X117636945Y-106280600D01*
X117637134Y-106278200D01*
X117637737Y-106278247D01*
X117659231Y-106214384D01*
X117713782Y-106170726D01*
X117783276Y-106163491D01*
X117845649Y-106194976D01*
G37*
%TD.AperFunction*%
%TA.AperFunction,Conductor*%
G36*
X111985963Y-111377751D02*
G01*
X112030311Y-111406252D01*
X112174106Y-111550047D01*
X112245595Y-111530725D01*
X112248787Y-111530794D01*
X112251589Y-111529264D01*
X112283476Y-111531544D01*
X112315448Y-111532236D01*
X112318096Y-111534020D01*
X112321281Y-111534248D01*
X112365630Y-111562749D01*
X112854949Y-112052068D01*
X112888434Y-112113391D01*
X112883450Y-112183083D01*
X112854949Y-112227430D01*
X112726610Y-112355769D01*
X112665287Y-112389254D01*
X112595595Y-112384270D01*
X112551248Y-112355769D01*
X112472993Y-112277514D01*
X112472976Y-112277498D01*
X112445289Y-112253851D01*
X112445285Y-112253848D01*
X112303477Y-112175889D01*
X112146736Y-112135645D01*
X112146733Y-112135645D01*
X112103959Y-112135645D01*
X112036920Y-112115960D01*
X112016278Y-112099326D01*
X111765853Y-111848901D01*
X111765852Y-111848901D01*
X111277950Y-112336805D01*
X110942631Y-112672125D01*
X110845638Y-112769118D01*
X110784315Y-112802603D01*
X110757957Y-112805437D01*
X110659559Y-112805437D01*
X110659543Y-112805436D01*
X110651947Y-112805436D01*
X110493832Y-112805436D01*
X110493828Y-112805436D01*
X110492013Y-112805675D01*
X110490480Y-112805436D01*
X110485704Y-112805436D01*
X110485704Y-112804691D01*
X110422978Y-112794909D01*
X110370723Y-112748529D01*
X110351838Y-112681260D01*
X110372319Y-112614459D01*
X110416093Y-112574073D01*
X110445288Y-112558024D01*
X110472978Y-112534374D01*
X110804880Y-112202472D01*
X110828530Y-112174782D01*
X110906490Y-112032971D01*
X110909043Y-112023028D01*
X110941467Y-111966181D01*
X111236688Y-111670960D01*
X111293536Y-111638536D01*
X111303477Y-111635984D01*
X111445288Y-111558024D01*
X111472978Y-111534374D01*
X111551249Y-111456102D01*
X111612570Y-111422619D01*
X111682262Y-111427603D01*
X111726610Y-111456104D01*
X111765853Y-111495347D01*
X111854948Y-111406252D01*
X111916271Y-111372767D01*
X111985963Y-111377751D01*
G37*
%TD.AperFunction*%
%TA.AperFunction,Conductor*%
G36*
X110502664Y-105620185D02*
G01*
X110548419Y-105672989D01*
X110558363Y-105742147D01*
X110529338Y-105805703D01*
X110470560Y-105843477D01*
X110470220Y-105843576D01*
X110400252Y-105863903D01*
X110400247Y-105863905D01*
X110261068Y-105946215D01*
X110261059Y-105946222D01*
X110146728Y-106060553D01*
X110146721Y-106060562D01*
X110064411Y-106199741D01*
X110021939Y-106345937D01*
X110702443Y-106345937D01*
X110711128Y-106348487D01*
X110720090Y-106347199D01*
X110744130Y-106358177D01*
X110769482Y-106365622D01*
X110775409Y-106372462D01*
X110783646Y-106376224D01*
X110797935Y-106398458D01*
X110815237Y-106418426D01*
X110817524Y-106428940D01*
X110821420Y-106435002D01*
X110826443Y-106469937D01*
X110826443Y-106651437D01*
X110806758Y-106718476D01*
X110753954Y-106764231D01*
X110702443Y-106775437D01*
X110591745Y-106775437D01*
X110555451Y-106778293D01*
X110555445Y-106778294D01*
X110400053Y-106823440D01*
X110400048Y-106823443D01*
X110391209Y-106828669D01*
X110328091Y-106845937D01*
X110021939Y-106845937D01*
X110064411Y-106992131D01*
X110076354Y-107012326D01*
X110093535Y-107080050D01*
X110076354Y-107138565D01*
X110063949Y-107159541D01*
X110063947Y-107159546D01*
X110018800Y-107314939D01*
X110018799Y-107314945D01*
X110015943Y-107351239D01*
X110015943Y-107760634D01*
X110018799Y-107796928D01*
X110018800Y-107796934D01*
X110063947Y-107952327D01*
X110063948Y-107952330D01*
X110146324Y-108091621D01*
X110146330Y-108091629D01*
X110260750Y-108206049D01*
X110260754Y-108206052D01*
X110260756Y-108206054D01*
X110400048Y-108288431D01*
X110400055Y-108288433D01*
X110555445Y-108333579D01*
X110555448Y-108333579D01*
X110555450Y-108333580D01*
X110591753Y-108336437D01*
X110591761Y-108336437D01*
X111061125Y-108336437D01*
X111061133Y-108336437D01*
X111097436Y-108333580D01*
X111097438Y-108333579D01*
X111097440Y-108333579D01*
X111252832Y-108288433D01*
X111252832Y-108288432D01*
X111252838Y-108288431D01*
X111341913Y-108235751D01*
X111409633Y-108218570D01*
X111475896Y-108240730D01*
X111519659Y-108295195D01*
X111528389Y-108329883D01*
X111536444Y-108408734D01*
X111536444Y-108408736D01*
X111579392Y-108538342D01*
X111591629Y-108575271D01*
X111683731Y-108724593D01*
X111807787Y-108848649D01*
X111957109Y-108940751D01*
X112040948Y-108968532D01*
X112098391Y-109008303D01*
X112125215Y-109072819D01*
X112125943Y-109086237D01*
X112125943Y-110019267D01*
X112125942Y-110019285D01*
X112125942Y-110184991D01*
X112125941Y-110184991D01*
X112125942Y-110184994D01*
X112166866Y-110337722D01*
X112167557Y-110338918D01*
X112180469Y-110361284D01*
X112180475Y-110361294D01*
X112245918Y-110474646D01*
X112245924Y-110474654D01*
X112289624Y-110518354D01*
X112304327Y-110545281D01*
X112320920Y-110571100D01*
X112321811Y-110577300D01*
X112323109Y-110579677D01*
X112325943Y-110606035D01*
X112325943Y-110632382D01*
X112306258Y-110699421D01*
X112253454Y-110745176D01*
X112184296Y-110755120D01*
X112142207Y-110741045D01*
X112024540Y-110676358D01*
X112024535Y-110676356D01*
X112001815Y-110670523D01*
X111991023Y-110664099D01*
X111978633Y-110662034D01*
X111961567Y-110646565D01*
X111941777Y-110634785D01*
X111935119Y-110622592D01*
X111926865Y-110615110D01*
X111922801Y-110600031D01*
X111912549Y-110581256D01*
X111906490Y-110557655D01*
X111902616Y-110550609D01*
X111851855Y-110458272D01*
X111828530Y-110415844D01*
X111804880Y-110388154D01*
X111804865Y-110388138D01*
X111515419Y-110098692D01*
X111515402Y-110098676D01*
X111487715Y-110075029D01*
X111487711Y-110075026D01*
X111345903Y-109997067D01*
X111189162Y-109956823D01*
X111189159Y-109956823D01*
X111027331Y-109956823D01*
X111027327Y-109956823D01*
X110870586Y-109997067D01*
X110728778Y-110075026D01*
X110728774Y-110075029D01*
X110701087Y-110098676D01*
X110701070Y-110098692D01*
X110369198Y-110430564D01*
X110369182Y-110430581D01*
X110345535Y-110458268D01*
X110345532Y-110458272D01*
X110267573Y-110600080D01*
X110227329Y-110756821D01*
X110227329Y-110775630D01*
X110218685Y-110805066D01*
X110212162Y-110835056D01*
X110208406Y-110840072D01*
X110207644Y-110842669D01*
X110191011Y-110863310D01*
X110133819Y-110920503D01*
X110072496Y-110953989D01*
X110046137Y-110956823D01*
X110027327Y-110956823D01*
X109870586Y-110997067D01*
X109728778Y-111075026D01*
X109728774Y-111075029D01*
X109701092Y-111098672D01*
X109672432Y-111127332D01*
X109611108Y-111160816D01*
X109541417Y-111155830D01*
X109497071Y-111127330D01*
X107558930Y-109189188D01*
X107525445Y-109127865D01*
X107525953Y-109072911D01*
X107538415Y-109020335D01*
X107538415Y-108852200D01*
X107499640Y-108688595D01*
X107424181Y-108538342D01*
X107361640Y-108461568D01*
X106984506Y-108084434D01*
X106907732Y-108021893D01*
X106907727Y-108021890D01*
X106907725Y-108021889D01*
X106757482Y-107946435D01*
X106757480Y-107946434D01*
X106757479Y-107946434D01*
X106593874Y-107907659D01*
X106548721Y-107907659D01*
X106546017Y-107906865D01*
X106543280Y-107907540D01*
X106512688Y-107897078D01*
X106481682Y-107887974D01*
X106479836Y-107885844D01*
X106477169Y-107884932D01*
X106457090Y-107859593D01*
X106435927Y-107835170D01*
X106434992Y-107831707D01*
X106433775Y-107830171D01*
X106431699Y-107819511D01*
X106425327Y-107795903D01*
X106424721Y-107789795D01*
X106424721Y-107738506D01*
X106415965Y-107701564D01*
X106415146Y-107693302D01*
X106420150Y-107666811D01*
X106421575Y-107639884D01*
X106427789Y-107626371D01*
X106428115Y-107624647D01*
X106429023Y-107623686D01*
X106431145Y-107619073D01*
X106486020Y-107524027D01*
X106526944Y-107371300D01*
X106526944Y-107213185D01*
X106526944Y-107205590D01*
X106526943Y-107205572D01*
X106526943Y-106826880D01*
X106524011Y-106815938D01*
X106521197Y-106805437D01*
X106495743Y-106710440D01*
X106906443Y-106710440D01*
X107052638Y-106667968D01*
X107191817Y-106585658D01*
X107191826Y-106585651D01*
X107306157Y-106471320D01*
X107306164Y-106471311D01*
X107388474Y-106332132D01*
X107388476Y-106332127D01*
X107433587Y-106176855D01*
X107433588Y-106176849D01*
X107435233Y-106155937D01*
X106906443Y-106155937D01*
X106906443Y-106710440D01*
X106495743Y-106710440D01*
X106486020Y-106674152D01*
X106427832Y-106573368D01*
X106426604Y-106571242D01*
X106423050Y-106565084D01*
X106406443Y-106503094D01*
X106406443Y-106404289D01*
X106423710Y-106341170D01*
X106428937Y-106332332D01*
X106433413Y-106316928D01*
X106474085Y-106176934D01*
X106474086Y-106176928D01*
X106474092Y-106176849D01*
X106476943Y-106140627D01*
X106476943Y-106029937D01*
X106496628Y-105962898D01*
X106549432Y-105917143D01*
X106600943Y-105905937D01*
X106656443Y-105905937D01*
X106656443Y-105846534D01*
X106665087Y-105817093D01*
X106671611Y-105787107D01*
X106675365Y-105782091D01*
X106676128Y-105779495D01*
X106692762Y-105758853D01*
X106759359Y-105692256D01*
X106820682Y-105658771D01*
X106847040Y-105655937D01*
X107435233Y-105655937D01*
X107449664Y-105640326D01*
X107509626Y-105604461D01*
X107540718Y-105600500D01*
X110435625Y-105600500D01*
X110502664Y-105620185D01*
G37*
%TD.AperFunction*%
%TA.AperFunction,Conductor*%
G36*
X99810151Y-94020185D02*
G01*
X99855906Y-94072989D01*
X99865850Y-94142147D01*
X99836825Y-94205703D01*
X99830793Y-94212181D01*
X99812986Y-94229987D01*
X99812986Y-94229988D01*
X99812984Y-94229990D01*
X99781810Y-94272897D01*
X99674158Y-94421066D01*
X99566934Y-94631503D01*
X99493947Y-94856131D01*
X99457001Y-95089402D01*
X99457001Y-95325597D01*
X99493947Y-95558868D01*
X99566934Y-95783496D01*
X99674158Y-95993933D01*
X99812984Y-96185010D01*
X99979991Y-96352017D01*
X100171068Y-96490843D01*
X100270492Y-96541502D01*
X100381504Y-96598066D01*
X100381506Y-96598066D01*
X100381509Y-96598068D01*
X100501913Y-96637189D01*
X100606132Y-96671053D01*
X100839404Y-96708000D01*
X100839409Y-96708000D01*
X101075598Y-96708000D01*
X101308869Y-96671053D01*
X101533493Y-96598068D01*
X101743934Y-96490843D01*
X101935011Y-96352017D01*
X102102018Y-96185010D01*
X102240844Y-95993933D01*
X102348069Y-95783492D01*
X102421054Y-95558868D01*
X102433151Y-95482491D01*
X102458001Y-95325597D01*
X102458001Y-95089402D01*
X102421054Y-94856131D01*
X102348067Y-94631503D01*
X102240843Y-94421066D01*
X102199068Y-94363568D01*
X102102018Y-94229990D01*
X102084209Y-94212181D01*
X102050724Y-94150858D01*
X102055708Y-94081166D01*
X102097580Y-94025233D01*
X102163044Y-94000816D01*
X102171890Y-94000500D01*
X111743112Y-94000500D01*
X111810151Y-94020185D01*
X111855906Y-94072989D01*
X111865850Y-94142147D01*
X111836825Y-94205703D01*
X111830793Y-94212181D01*
X111812986Y-94229987D01*
X111812986Y-94229988D01*
X111812984Y-94229990D01*
X111781810Y-94272897D01*
X111674158Y-94421066D01*
X111566934Y-94631503D01*
X111493947Y-94856131D01*
X111457001Y-95089402D01*
X111457001Y-95325597D01*
X111493947Y-95558868D01*
X111566934Y-95783496D01*
X111674158Y-95993933D01*
X111812984Y-96185010D01*
X111979991Y-96352017D01*
X112171068Y-96490843D01*
X112270492Y-96541502D01*
X112381504Y-96598066D01*
X112381506Y-96598066D01*
X112381509Y-96598068D01*
X112501913Y-96637189D01*
X112606132Y-96671053D01*
X112839404Y-96708000D01*
X112839409Y-96708000D01*
X113075598Y-96708000D01*
X113308869Y-96671053D01*
X113533493Y-96598068D01*
X113743934Y-96490843D01*
X113935011Y-96352017D01*
X114102018Y-96185010D01*
X114240844Y-95993933D01*
X114348069Y-95783492D01*
X114421054Y-95558868D01*
X114433151Y-95482491D01*
X114458001Y-95325597D01*
X114458001Y-95089402D01*
X114421054Y-94856131D01*
X114348067Y-94631503D01*
X114240843Y-94421066D01*
X114199068Y-94363568D01*
X114102018Y-94229990D01*
X114084209Y-94212181D01*
X114050724Y-94150858D01*
X114055708Y-94081166D01*
X114097580Y-94025233D01*
X114163044Y-94000816D01*
X114171890Y-94000500D01*
X121434108Y-94000500D01*
X121495933Y-94000500D01*
X121504043Y-94000765D01*
X121752895Y-94017075D01*
X121768953Y-94019190D01*
X121976105Y-94060395D01*
X122009535Y-94067045D01*
X122025202Y-94071243D01*
X122194947Y-94128863D01*
X122257481Y-94150091D01*
X122272458Y-94156294D01*
X122385786Y-94212181D01*
X122492460Y-94264787D01*
X122506508Y-94272897D01*
X122710464Y-94409177D01*
X122723328Y-94419048D01*
X122907749Y-94580781D01*
X122919218Y-94592250D01*
X123080951Y-94776671D01*
X123090825Y-94789539D01*
X123227102Y-94993492D01*
X123235212Y-95007539D01*
X123343702Y-95227534D01*
X123349909Y-95242520D01*
X123428756Y-95474797D01*
X123432954Y-95490464D01*
X123480807Y-95731035D01*
X123482925Y-95747116D01*
X123499235Y-95995956D01*
X123499500Y-96004066D01*
X123499500Y-130995933D01*
X123499235Y-131004043D01*
X123482925Y-131252883D01*
X123480807Y-131268964D01*
X123432954Y-131509535D01*
X123428756Y-131525202D01*
X123349909Y-131757479D01*
X123343702Y-131772465D01*
X123235212Y-131992460D01*
X123227102Y-132006507D01*
X123090825Y-132210460D01*
X123080951Y-132223328D01*
X122919218Y-132407749D01*
X122907749Y-132419218D01*
X122723328Y-132580951D01*
X122710460Y-132590825D01*
X122506507Y-132727102D01*
X122492460Y-132735212D01*
X122272465Y-132843702D01*
X122257479Y-132849909D01*
X122025202Y-132928756D01*
X122009535Y-132932954D01*
X121768964Y-132980807D01*
X121752883Y-132982925D01*
X121504043Y-132999235D01*
X121495933Y-132999500D01*
X86504067Y-132999500D01*
X86495957Y-132999235D01*
X86247116Y-132982925D01*
X86231035Y-132980807D01*
X85990464Y-132932954D01*
X85974797Y-132928756D01*
X85742520Y-132849909D01*
X85727534Y-132843702D01*
X85507539Y-132735212D01*
X85493492Y-132727102D01*
X85289539Y-132590825D01*
X85276671Y-132580951D01*
X85092250Y-132419218D01*
X85080781Y-132407749D01*
X84919048Y-132223328D01*
X84909174Y-132210460D01*
X84835700Y-132100499D01*
X84772897Y-132006507D01*
X84764787Y-131992460D01*
X84703763Y-131868716D01*
X84656294Y-131772458D01*
X84650090Y-131757479D01*
X84571243Y-131525202D01*
X84567045Y-131509535D01*
X84559186Y-131470026D01*
X84519190Y-131268953D01*
X84517075Y-131252895D01*
X84500765Y-131004043D01*
X84500500Y-130995933D01*
X84500500Y-128784648D01*
X87075943Y-128784648D01*
X87075943Y-129027225D01*
X87106688Y-129260765D01*
X87107605Y-129267726D01*
X87121438Y-129319352D01*
X87170390Y-129502041D01*
X87222854Y-129628699D01*
X87263219Y-129726149D01*
X87384507Y-129936226D01*
X87384509Y-129936229D01*
X87384510Y-129936230D01*
X87532176Y-130128673D01*
X87532182Y-130128680D01*
X87703699Y-130300197D01*
X87703706Y-130300203D01*
X87750686Y-130336252D01*
X87896154Y-130447873D01*
X88106231Y-130569161D01*
X88301712Y-130650132D01*
X88322658Y-130658808D01*
X88330343Y-130661991D01*
X88564654Y-130724775D01*
X88710442Y-130743968D01*
X88805154Y-130756437D01*
X88805155Y-130756437D01*
X89047732Y-130756437D01*
X89095831Y-130750104D01*
X89288232Y-130724775D01*
X89522543Y-130661991D01*
X89746655Y-130569161D01*
X89956732Y-130447873D01*
X90149181Y-130300202D01*
X90320708Y-130128675D01*
X90468379Y-129936226D01*
X90589667Y-129726149D01*
X90682497Y-129502037D01*
X90745281Y-129267726D01*
X90776943Y-129027225D01*
X90776943Y-128784649D01*
X90745281Y-128544148D01*
X90682497Y-128309837D01*
X90676326Y-128294940D01*
X90628836Y-128180287D01*
X90589667Y-128085725D01*
X90468379Y-127875648D01*
X90320708Y-127683199D01*
X90320703Y-127683193D01*
X90149186Y-127511676D01*
X90149179Y-127511670D01*
X89956736Y-127364004D01*
X89956735Y-127364003D01*
X89956732Y-127364001D01*
X89746655Y-127242713D01*
X89627690Y-127193436D01*
X89522547Y-127149884D01*
X89288228Y-127087098D01*
X89047732Y-127055437D01*
X89047731Y-127055437D01*
X88805155Y-127055437D01*
X88805154Y-127055437D01*
X88564657Y-127087098D01*
X88330338Y-127149884D01*
X88106237Y-127242710D01*
X88106228Y-127242714D01*
X87896149Y-127364004D01*
X87703706Y-127511670D01*
X87703699Y-127511676D01*
X87532182Y-127683193D01*
X87532176Y-127683200D01*
X87384510Y-127875643D01*
X87263220Y-128085722D01*
X87263216Y-128085731D01*
X87170390Y-128309832D01*
X87107604Y-128544151D01*
X87075943Y-128784648D01*
X84500500Y-128784648D01*
X84500500Y-120573920D01*
X84749499Y-120573920D01*
X84778340Y-120718907D01*
X84778343Y-120718917D01*
X84834912Y-120855488D01*
X84834916Y-120855495D01*
X84851988Y-120881045D01*
X84851989Y-120881048D01*
X84917046Y-120978414D01*
X84917052Y-120978421D01*
X86927521Y-122988889D01*
X86927523Y-122988891D01*
X86935881Y-122994475D01*
X87001207Y-123038123D01*
X87050442Y-123071021D01*
X87050443Y-123071021D01*
X87050444Y-123071022D01*
X87050446Y-123071023D01*
X87187019Y-123127593D01*
X87187024Y-123127595D01*
X87187028Y-123127595D01*
X87187029Y-123127596D01*
X87332016Y-123156437D01*
X87332019Y-123156437D01*
X87332020Y-123156437D01*
X87479854Y-123156437D01*
X89744239Y-123156437D01*
X89811278Y-123176122D01*
X89831920Y-123192756D01*
X89884515Y-123245351D01*
X90024655Y-123347169D01*
X90178998Y-123425810D01*
X90343742Y-123479339D01*
X90514832Y-123506437D01*
X90514833Y-123506437D01*
X91238053Y-123506437D01*
X91238054Y-123506437D01*
X91409144Y-123479339D01*
X91573888Y-123425810D01*
X91728231Y-123347169D01*
X91868371Y-123245351D01*
X91990857Y-123122865D01*
X92038311Y-123057550D01*
X92042642Y-123054210D01*
X92044915Y-123049234D01*
X92070014Y-123033103D01*
X92093640Y-123014886D01*
X92100311Y-123013633D01*
X92103693Y-123011460D01*
X92138628Y-123006437D01*
X92330883Y-123006437D01*
X92397922Y-123026122D01*
X92418564Y-123042756D01*
X98519983Y-129144175D01*
X98553468Y-129205498D01*
X98550234Y-129270172D01*
X98536495Y-129312456D01*
X98503242Y-129522412D01*
X98503242Y-129734985D01*
X98535115Y-129936226D01*
X98536496Y-129944942D01*
X98596196Y-130128680D01*
X98602186Y-130147113D01*
X98698693Y-130336519D01*
X98823632Y-130508485D01*
X98973955Y-130658808D01*
X99145921Y-130783747D01*
X99145923Y-130783748D01*
X99145926Y-130783750D01*
X99335330Y-130880256D01*
X99537499Y-130945945D01*
X99747455Y-130979199D01*
X99747456Y-130979199D01*
X99960028Y-130979199D01*
X99960029Y-130979199D01*
X100169985Y-130945945D01*
X100212265Y-130932206D01*
X100282104Y-130930210D01*
X100338264Y-130962456D01*
X101240182Y-131864374D01*
X101240192Y-131864385D01*
X101244522Y-131868715D01*
X101244523Y-131868716D01*
X101356327Y-131980520D01*
X101443138Y-132030639D01*
X101443140Y-132030641D01*
X101493256Y-132059576D01*
X101493258Y-132059577D01*
X101645985Y-132100500D01*
X101645986Y-132100500D01*
X101645987Y-132100500D01*
X105420939Y-132100500D01*
X105420943Y-132100501D01*
X105579057Y-132100501D01*
X105579061Y-132100500D01*
X108663331Y-132100500D01*
X108663347Y-132100501D01*
X108670943Y-132100501D01*
X108829054Y-132100501D01*
X108829057Y-132100501D01*
X108981785Y-132059577D01*
X109031904Y-132030639D01*
X109118716Y-131980520D01*
X109230520Y-131868716D01*
X109230520Y-131868714D01*
X109240728Y-131858507D01*
X109240730Y-131858504D01*
X111779883Y-129319350D01*
X111841204Y-129285867D01*
X111910896Y-129290851D01*
X111914990Y-129292461D01*
X111933713Y-129300217D01*
X112060879Y-129334291D01*
X112153279Y-129346455D01*
X112191711Y-129351515D01*
X112191712Y-129351515D01*
X112323360Y-129351515D01*
X112323364Y-129351515D01*
X112342652Y-129348975D01*
X112411683Y-129359739D01*
X112446518Y-129384232D01*
X112542806Y-129480520D01*
X112542808Y-129480521D01*
X112542812Y-129480524D01*
X112679731Y-129559573D01*
X112679738Y-129559577D01*
X112791541Y-129589534D01*
X112832464Y-129600500D01*
X112832465Y-129600500D01*
X113413331Y-129600500D01*
X113413347Y-129600501D01*
X113420943Y-129600501D01*
X113579054Y-129600501D01*
X113579057Y-129600501D01*
X113731785Y-129559577D01*
X113796156Y-129522412D01*
X113868716Y-129480520D01*
X113980520Y-129368716D01*
X113980520Y-129368714D01*
X113990724Y-129358511D01*
X113990728Y-129358506D01*
X114564586Y-128784648D01*
X117075943Y-128784648D01*
X117075943Y-129027225D01*
X117106688Y-129260765D01*
X117107605Y-129267726D01*
X117121438Y-129319352D01*
X117170390Y-129502041D01*
X117222854Y-129628699D01*
X117263219Y-129726149D01*
X117384507Y-129936226D01*
X117384509Y-129936229D01*
X117384510Y-129936230D01*
X117532176Y-130128673D01*
X117532182Y-130128680D01*
X117703699Y-130300197D01*
X117703706Y-130300203D01*
X117750686Y-130336252D01*
X117896154Y-130447873D01*
X118106231Y-130569161D01*
X118301712Y-130650132D01*
X118322658Y-130658808D01*
X118330343Y-130661991D01*
X118564654Y-130724775D01*
X118710442Y-130743968D01*
X118805154Y-130756437D01*
X118805155Y-130756437D01*
X119047732Y-130756437D01*
X119095831Y-130750104D01*
X119288232Y-130724775D01*
X119522543Y-130661991D01*
X119746655Y-130569161D01*
X119956732Y-130447873D01*
X120149181Y-130300202D01*
X120320708Y-130128675D01*
X120468379Y-129936226D01*
X120589667Y-129726149D01*
X120682497Y-129502037D01*
X120745281Y-129267726D01*
X120776943Y-129027225D01*
X120776943Y-128784649D01*
X120745281Y-128544148D01*
X120682497Y-128309837D01*
X120676326Y-128294940D01*
X120628836Y-128180287D01*
X120589667Y-128085725D01*
X120468379Y-127875648D01*
X120320708Y-127683199D01*
X120320703Y-127683193D01*
X120149186Y-127511676D01*
X120149179Y-127511670D01*
X119956736Y-127364004D01*
X119956735Y-127364003D01*
X119956732Y-127364001D01*
X119746655Y-127242713D01*
X119627690Y-127193436D01*
X119522547Y-127149884D01*
X119288228Y-127087098D01*
X119047732Y-127055437D01*
X119047731Y-127055437D01*
X118805155Y-127055437D01*
X118805154Y-127055437D01*
X118564657Y-127087098D01*
X118330338Y-127149884D01*
X118106237Y-127242710D01*
X118106228Y-127242714D01*
X117896149Y-127364004D01*
X117703706Y-127511670D01*
X117703699Y-127511676D01*
X117532182Y-127683193D01*
X117532176Y-127683200D01*
X117384510Y-127875643D01*
X117263220Y-128085722D01*
X117263216Y-128085731D01*
X117170390Y-128309832D01*
X117107604Y-128544151D01*
X117075943Y-128784648D01*
X114564586Y-128784648D01*
X116358506Y-126990728D01*
X116358511Y-126990724D01*
X116368714Y-126980520D01*
X116368716Y-126980520D01*
X116480520Y-126868716D01*
X116551492Y-126745788D01*
X116559577Y-126731785D01*
X116600501Y-126579057D01*
X116600501Y-126420943D01*
X116600501Y-126413348D01*
X116600500Y-126413330D01*
X116600500Y-123420945D01*
X116600500Y-123420943D01*
X116580732Y-123347169D01*
X116559577Y-123268215D01*
X116509682Y-123181795D01*
X116480520Y-123131284D01*
X116368716Y-123019480D01*
X116368715Y-123019479D01*
X116364385Y-123015149D01*
X116364374Y-123015139D01*
X116322005Y-122972770D01*
X116288520Y-122911447D01*
X116293504Y-122841755D01*
X116335376Y-122785822D01*
X116400840Y-122761405D01*
X116409686Y-122761089D01*
X119752742Y-122761089D01*
X119752758Y-122761090D01*
X119760354Y-122761090D01*
X119918465Y-122761090D01*
X119918468Y-122761090D01*
X120071196Y-122720166D01*
X120158910Y-122669524D01*
X120208127Y-122641109D01*
X120319931Y-122529305D01*
X120319931Y-122529303D01*
X120330135Y-122519100D01*
X120330139Y-122519095D01*
X122358506Y-120490728D01*
X122358511Y-120490724D01*
X122368714Y-120480520D01*
X122368716Y-120480520D01*
X122480520Y-120368716D01*
X122541719Y-120262716D01*
X122559577Y-120231785D01*
X122600500Y-120079058D01*
X122600500Y-119920943D01*
X122600500Y-112589059D01*
X122600501Y-112589046D01*
X122600501Y-112420945D01*
X122600501Y-112420943D01*
X122559577Y-112268215D01*
X122559576Y-112268214D01*
X122559576Y-112268212D01*
X122559575Y-112268211D01*
X122511672Y-112185241D01*
X122511671Y-112185240D01*
X122480521Y-112131286D01*
X122480520Y-112131284D01*
X122368716Y-112019480D01*
X122368715Y-112019479D01*
X122364385Y-112015149D01*
X122364374Y-112015139D01*
X121813527Y-111464292D01*
X121813525Y-111464289D01*
X121694654Y-111345418D01*
X121694653Y-111345417D01*
X121607841Y-111295297D01*
X121607841Y-111295296D01*
X121607837Y-111295295D01*
X121557722Y-111266360D01*
X121404994Y-111225436D01*
X121300942Y-111225436D01*
X121233903Y-111205751D01*
X121188148Y-111152947D01*
X121176942Y-111101436D01*
X121176942Y-111028066D01*
X121176941Y-111028060D01*
X121176940Y-111028053D01*
X121170534Y-110968454D01*
X121166403Y-110957379D01*
X121120240Y-110833608D01*
X121120236Y-110833601D01*
X121033990Y-110718392D01*
X121033987Y-110718389D01*
X120918778Y-110632143D01*
X120918771Y-110632139D01*
X120783925Y-110581845D01*
X120783926Y-110581845D01*
X120724326Y-110575438D01*
X120724324Y-110575437D01*
X120724316Y-110575437D01*
X120724308Y-110575437D01*
X120650943Y-110575437D01*
X120583904Y-110555752D01*
X120538149Y-110502948D01*
X120526943Y-110451437D01*
X120526943Y-107515503D01*
X120526944Y-107515490D01*
X120526944Y-107347387D01*
X120518251Y-107314944D01*
X120486020Y-107194659D01*
X120470103Y-107167090D01*
X120406967Y-107057733D01*
X120406961Y-107057725D01*
X119213139Y-105863903D01*
X117987589Y-104638354D01*
X117987588Y-104638352D01*
X117868717Y-104519481D01*
X117868716Y-104519480D01*
X117781904Y-104469360D01*
X117781904Y-104469359D01*
X117781900Y-104469358D01*
X117731785Y-104440423D01*
X117579057Y-104399499D01*
X117420943Y-104399499D01*
X117413347Y-104399499D01*
X117413331Y-104399500D01*
X106523320Y-104399500D01*
X106482399Y-104410464D01*
X106482399Y-104410465D01*
X106445131Y-104420451D01*
X106370594Y-104440423D01*
X106370589Y-104440426D01*
X106233670Y-104519475D01*
X106233662Y-104519481D01*
X106121858Y-104631286D01*
X105694027Y-105059118D01*
X105632704Y-105092603D01*
X105606346Y-105095437D01*
X105491745Y-105095437D01*
X105455451Y-105098293D01*
X105455445Y-105098294D01*
X105300052Y-105143441D01*
X105300049Y-105143442D01*
X105160758Y-105225818D01*
X105160750Y-105225824D01*
X105046330Y-105340244D01*
X105046323Y-105340253D01*
X104981232Y-105450318D01*
X104930163Y-105498001D01*
X104861421Y-105510505D01*
X104796832Y-105483860D01*
X104756902Y-105426524D01*
X104750500Y-105387197D01*
X104750500Y-102777230D01*
X104770185Y-102710191D01*
X104786814Y-102689554D01*
X106648695Y-100827672D01*
X106710016Y-100794189D01*
X106755766Y-100792882D01*
X106851214Y-100808000D01*
X106851216Y-100808000D01*
X107063787Y-100808000D01*
X107063788Y-100808000D01*
X107273744Y-100774746D01*
X107475913Y-100709057D01*
X107665317Y-100612551D01*
X107687290Y-100596586D01*
X107837287Y-100487609D01*
X107837289Y-100487606D01*
X107837293Y-100487604D01*
X107987605Y-100337292D01*
X107987607Y-100337288D01*
X107987610Y-100337286D01*
X108112549Y-100165320D01*
X108112548Y-100165320D01*
X108112552Y-100165316D01*
X108209058Y-99975912D01*
X108274747Y-99773743D01*
X108308001Y-99563787D01*
X108308001Y-99351213D01*
X109607001Y-99351213D01*
X109607001Y-99563786D01*
X109635535Y-99743946D01*
X109640255Y-99773743D01*
X109689127Y-99924156D01*
X109705945Y-99975914D01*
X109802452Y-100165320D01*
X109927391Y-100337286D01*
X110077714Y-100487609D01*
X110249680Y-100612548D01*
X110249682Y-100612549D01*
X110249685Y-100612551D01*
X110439089Y-100709057D01*
X110641258Y-100774746D01*
X110851214Y-100808000D01*
X110851215Y-100808000D01*
X111063787Y-100808000D01*
X111063788Y-100808000D01*
X111273744Y-100774746D01*
X111327040Y-100757428D01*
X111396878Y-100755434D01*
X111456711Y-100791514D01*
X111487540Y-100854215D01*
X111487829Y-100894758D01*
X111457001Y-101089401D01*
X111457001Y-101325596D01*
X111493947Y-101558867D01*
X111566934Y-101783495D01*
X111644938Y-101936585D01*
X111674158Y-101993932D01*
X111812984Y-102185009D01*
X111979991Y-102352016D01*
X112171068Y-102490842D01*
X112270492Y-102541501D01*
X112381504Y-102598065D01*
X112381506Y-102598065D01*
X112381509Y-102598067D01*
X112501913Y-102637188D01*
X112606132Y-102671052D01*
X112839404Y-102707999D01*
X112839409Y-102707999D01*
X113075598Y-102707999D01*
X113308869Y-102671052D01*
X113336762Y-102661989D01*
X113533493Y-102598067D01*
X113743934Y-102490842D01*
X113935011Y-102352016D01*
X114102018Y-102185009D01*
X114240844Y-101993932D01*
X114348069Y-101783491D01*
X114421054Y-101558867D01*
X114430055Y-101502037D01*
X114458001Y-101325596D01*
X114458001Y-101089401D01*
X114421054Y-100856130D01*
X114408960Y-100818909D01*
X114397828Y-100784648D01*
X117075943Y-100784648D01*
X117075943Y-101027225D01*
X117107604Y-101267722D01*
X117170390Y-101502041D01*
X117193929Y-101558868D01*
X117263219Y-101726149D01*
X117384507Y-101936226D01*
X117384509Y-101936229D01*
X117384510Y-101936230D01*
X117532176Y-102128673D01*
X117532182Y-102128680D01*
X117703699Y-102300197D01*
X117703706Y-102300203D01*
X117771228Y-102352014D01*
X117896154Y-102447873D01*
X118106231Y-102569161D01*
X118330343Y-102661991D01*
X118564654Y-102724775D01*
X118745029Y-102748521D01*
X118805154Y-102756437D01*
X118805155Y-102756437D01*
X119047732Y-102756437D01*
X119095831Y-102750104D01*
X119288232Y-102724775D01*
X119522543Y-102661991D01*
X119746655Y-102569161D01*
X119956732Y-102447873D01*
X120149181Y-102300202D01*
X120320708Y-102128675D01*
X120468379Y-101936226D01*
X120589667Y-101726149D01*
X120682497Y-101502037D01*
X120745281Y-101267726D01*
X120776943Y-101027225D01*
X120776943Y-100784649D01*
X120773359Y-100757429D01*
X120745281Y-100544151D01*
X120745281Y-100544148D01*
X120682497Y-100309837D01*
X120589667Y-100085725D01*
X120468379Y-99875648D01*
X120350198Y-99721631D01*
X120320709Y-99683200D01*
X120320703Y-99683193D01*
X120149186Y-99511676D01*
X120149179Y-99511670D01*
X119956736Y-99364004D01*
X119956735Y-99364003D01*
X119956732Y-99364001D01*
X119746655Y-99242713D01*
X119746648Y-99242710D01*
X119522547Y-99149884D01*
X119288228Y-99087098D01*
X119047732Y-99055437D01*
X119047731Y-99055437D01*
X118805155Y-99055437D01*
X118805154Y-99055437D01*
X118564657Y-99087098D01*
X118330338Y-99149884D01*
X118106237Y-99242710D01*
X118106228Y-99242714D01*
X117924294Y-99347754D01*
X117918304Y-99351213D01*
X117896149Y-99364004D01*
X117703706Y-99511670D01*
X117703699Y-99511676D01*
X117532182Y-99683193D01*
X117532176Y-99683200D01*
X117384510Y-99875643D01*
X117384507Y-99875647D01*
X117384507Y-99875648D01*
X117368260Y-99903788D01*
X117263220Y-100085722D01*
X117263216Y-100085731D01*
X117170390Y-100309832D01*
X117107604Y-100544151D01*
X117075943Y-100784648D01*
X114397828Y-100784648D01*
X114387016Y-100751372D01*
X114348069Y-100631507D01*
X114348067Y-100631503D01*
X114348067Y-100631502D01*
X114274747Y-100487604D01*
X114240844Y-100421066D01*
X114102018Y-100229989D01*
X113935011Y-100062982D01*
X113743934Y-99924156D01*
X113533497Y-99816932D01*
X113308869Y-99743945D01*
X113075598Y-99706999D01*
X113075593Y-99706999D01*
X112839409Y-99706999D01*
X112839404Y-99706999D01*
X112606131Y-99743946D01*
X112606128Y-99743946D01*
X112454188Y-99793315D01*
X112384347Y-99795310D01*
X112324514Y-99759230D01*
X112293686Y-99696529D01*
X112293397Y-99655992D01*
X112308001Y-99563787D01*
X112308001Y-99351213D01*
X112274747Y-99141257D01*
X112209058Y-98939088D01*
X112112552Y-98749684D01*
X112112550Y-98749681D01*
X112112549Y-98749679D01*
X111987610Y-98577713D01*
X111837287Y-98427390D01*
X111665321Y-98302451D01*
X111475915Y-98205944D01*
X111475914Y-98205943D01*
X111475913Y-98205943D01*
X111273744Y-98140254D01*
X111273742Y-98140253D01*
X111273741Y-98140253D01*
X111112458Y-98114708D01*
X111063788Y-98107000D01*
X110851214Y-98107000D01*
X110802543Y-98114708D01*
X110641261Y-98140253D01*
X110439086Y-98205944D01*
X110249680Y-98302451D01*
X110077714Y-98427390D01*
X109927391Y-98577713D01*
X109802452Y-98749679D01*
X109705945Y-98939085D01*
X109640254Y-99141260D01*
X109607001Y-99351213D01*
X108308001Y-99351213D01*
X108274747Y-99141257D01*
X108209058Y-98939088D01*
X108112552Y-98749684D01*
X108112550Y-98749681D01*
X108112549Y-98749679D01*
X107987610Y-98577713D01*
X107837287Y-98427390D01*
X107665321Y-98302451D01*
X107475915Y-98205944D01*
X107475914Y-98205943D01*
X107475913Y-98205943D01*
X107273744Y-98140254D01*
X107273742Y-98140253D01*
X107273741Y-98140253D01*
X107112458Y-98114708D01*
X107063788Y-98107000D01*
X106851214Y-98107000D01*
X106802543Y-98114708D01*
X106641261Y-98140253D01*
X106439086Y-98205944D01*
X106249680Y-98302451D01*
X106077714Y-98427390D01*
X105927391Y-98577713D01*
X105802452Y-98749679D01*
X105705945Y-98939085D01*
X105640254Y-99141260D01*
X105607001Y-99351213D01*
X105607001Y-99563791D01*
X105622117Y-99659226D01*
X105613163Y-99728520D01*
X105587325Y-99766306D01*
X103417048Y-101936584D01*
X103397826Y-101965353D01*
X103378731Y-101993932D01*
X103334914Y-102059508D01*
X103278343Y-102196083D01*
X103278340Y-102196093D01*
X103249500Y-102341080D01*
X103249500Y-106637770D01*
X103229815Y-106704809D01*
X103213181Y-106725451D01*
X102771541Y-107167090D01*
X102710218Y-107200575D01*
X102640526Y-107195591D01*
X102584593Y-107153719D01*
X102560176Y-107088255D01*
X102560495Y-107066872D01*
X102576549Y-106909010D01*
X102556847Y-106715262D01*
X102555963Y-106706570D01*
X102495051Y-106512430D01*
X102495049Y-106512427D01*
X102495048Y-106512422D01*
X102396297Y-106334508D01*
X102396294Y-106334504D01*
X102319397Y-106242598D01*
X102319384Y-106242584D01*
X100257408Y-104180610D01*
X100165498Y-104103708D01*
X100165494Y-104103705D01*
X100165492Y-104103703D01*
X99987578Y-104004952D01*
X99987575Y-104004951D01*
X99987569Y-104004948D01*
X99793429Y-103944036D01*
X99590990Y-103923451D01*
X99388550Y-103944036D01*
X99194410Y-104004948D01*
X99194400Y-104004953D01*
X99016487Y-104103703D01*
X99016484Y-104103705D01*
X98924578Y-104180602D01*
X98924564Y-104180615D01*
X98135382Y-104969799D01*
X98058480Y-105061709D01*
X98058473Y-105061719D01*
X97959725Y-105239628D01*
X97959720Y-105239638D01*
X97898808Y-105433778D01*
X97878223Y-105636218D01*
X97898808Y-105838657D01*
X97959720Y-106032797D01*
X97959723Y-106032803D01*
X97959724Y-106032806D01*
X98016169Y-106134500D01*
X98058475Y-106210720D01*
X98058477Y-106210723D01*
X98135374Y-106302629D01*
X98135387Y-106302643D01*
X98548006Y-106715262D01*
X98581491Y-106776585D01*
X98576507Y-106846277D01*
X98548006Y-106890624D01*
X96297598Y-109141032D01*
X96236275Y-109174517D01*
X96170325Y-109170860D01*
X96154540Y-109165541D01*
X96138711Y-109160208D01*
X96138704Y-109160206D01*
X95949391Y-109139617D01*
X95949389Y-109139617D01*
X95860607Y-109149272D01*
X95791832Y-109136951D01*
X95740637Y-109089403D01*
X95723275Y-109021725D01*
X95723928Y-109012591D01*
X95733535Y-108924263D01*
X95712957Y-108735057D01*
X95712956Y-108735054D01*
X95652184Y-108554693D01*
X95554061Y-108391609D01*
X95525907Y-108359359D01*
X95383705Y-108217157D01*
X95383704Y-108217157D01*
X94323045Y-109277818D01*
X93262384Y-110338478D01*
X93404586Y-110480680D01*
X93436836Y-110508834D01*
X93599920Y-110606957D01*
X93780281Y-110667729D01*
X93780284Y-110667730D01*
X93969490Y-110688307D01*
X94057819Y-110678701D01*
X94126594Y-110691021D01*
X94177790Y-110738568D01*
X94195153Y-110806246D01*
X94194500Y-110815380D01*
X94184845Y-110904160D01*
X94184845Y-110904163D01*
X94205434Y-111093477D01*
X94205436Y-111093484D01*
X94216088Y-111125097D01*
X94218840Y-111194912D01*
X94186260Y-111252371D01*
X93975451Y-111463181D01*
X93948523Y-111477884D01*
X93922705Y-111494477D01*
X93916504Y-111495368D01*
X93914128Y-111496666D01*
X93887770Y-111499500D01*
X93800624Y-111499500D01*
X93733585Y-111479815D01*
X93687830Y-111427011D01*
X93679967Y-111404098D01*
X93644443Y-111254219D01*
X93565706Y-111097437D01*
X93517889Y-111038739D01*
X93500449Y-111017330D01*
X93076172Y-110593055D01*
X93062411Y-110581845D01*
X93029057Y-110554673D01*
X92996065Y-110527796D01*
X92996063Y-110527795D01*
X92996062Y-110527794D01*
X92839282Y-110449058D01*
X92668578Y-110408599D01*
X92668573Y-110408598D01*
X92668571Y-110408598D01*
X92493129Y-110408598D01*
X92493127Y-110408598D01*
X92493117Y-110408599D01*
X92489335Y-110409496D01*
X92486661Y-110409354D01*
X92485954Y-110409437D01*
X92485939Y-110409316D01*
X92419563Y-110405798D01*
X92362867Y-110364966D01*
X92337246Y-110299963D01*
X92340091Y-110260231D01*
X92340902Y-110256810D01*
X92340902Y-110081489D01*
X92300468Y-109910888D01*
X92221780Y-109754207D01*
X92156581Y-109674171D01*
X92156565Y-109674153D01*
X92121231Y-109638819D01*
X92121230Y-109638819D01*
X91342706Y-110417344D01*
X91281383Y-110450829D01*
X91211692Y-110445845D01*
X91167344Y-110417344D01*
X91078249Y-110328249D01*
X90989153Y-110417345D01*
X90927830Y-110450829D01*
X90858138Y-110445845D01*
X90813791Y-110417344D01*
X90194365Y-109797918D01*
X89999926Y-109992358D01*
X89934714Y-110072411D01*
X89856029Y-110229086D01*
X89815596Y-110399687D01*
X89815596Y-110575008D01*
X89856030Y-110745615D01*
X89858499Y-110752397D01*
X89856134Y-110753257D01*
X89866512Y-110810340D01*
X89839861Y-110874927D01*
X89782523Y-110914853D01*
X89743205Y-110921251D01*
X89301076Y-110921251D01*
X89272242Y-110926985D01*
X89272243Y-110926986D01*
X89156092Y-110950090D01*
X89156086Y-110950092D01*
X89104313Y-110971538D01*
X89104309Y-110971539D01*
X89099027Y-110973728D01*
X89019505Y-111006667D01*
X88957182Y-111048310D01*
X88951822Y-111051890D01*
X88951813Y-111051896D01*
X88896582Y-111088800D01*
X88896579Y-111088803D01*
X84917050Y-115068331D01*
X84917044Y-115068339D01*
X84867812Y-115142019D01*
X84867813Y-115142020D01*
X84834921Y-115191247D01*
X84834914Y-115191259D01*
X84778342Y-115327837D01*
X84778340Y-115327843D01*
X84749500Y-115472830D01*
X84749500Y-115472833D01*
X84749500Y-120573918D01*
X84749500Y-120573920D01*
X84749499Y-120573920D01*
X84500500Y-120573920D01*
X84500500Y-107353713D01*
X85374500Y-107353713D01*
X85374500Y-107566287D01*
X85379067Y-107595124D01*
X85405281Y-107760634D01*
X85407754Y-107776243D01*
X85468402Y-107962898D01*
X85473444Y-107978414D01*
X85569951Y-108167820D01*
X85694890Y-108339786D01*
X85808818Y-108453714D01*
X85842303Y-108515037D01*
X85837319Y-108584729D01*
X85795447Y-108640662D01*
X85764471Y-108657577D01*
X85632912Y-108706646D01*
X85632906Y-108706649D01*
X85517812Y-108792809D01*
X85517809Y-108792812D01*
X85431649Y-108907906D01*
X85431645Y-108907913D01*
X85381403Y-109042620D01*
X85381401Y-109042627D01*
X85375000Y-109102155D01*
X85375000Y-109750000D01*
X86291988Y-109750000D01*
X86259075Y-109807007D01*
X86225000Y-109934174D01*
X86225000Y-110065826D01*
X86259075Y-110192993D01*
X86291988Y-110250000D01*
X85375000Y-110250000D01*
X85375000Y-110897844D01*
X85381401Y-110957372D01*
X85381403Y-110957379D01*
X85431645Y-111092086D01*
X85431649Y-111092093D01*
X85517809Y-111207187D01*
X85517812Y-111207190D01*
X85632906Y-111293350D01*
X85632913Y-111293354D01*
X85767620Y-111343596D01*
X85767627Y-111343598D01*
X85827155Y-111349999D01*
X85827172Y-111350000D01*
X86475000Y-111350000D01*
X86475000Y-110433012D01*
X86532007Y-110465925D01*
X86659174Y-110500000D01*
X86790826Y-110500000D01*
X86917993Y-110465925D01*
X86975000Y-110433012D01*
X86975000Y-111350000D01*
X87622828Y-111350000D01*
X87622844Y-111349999D01*
X87682372Y-111343598D01*
X87682379Y-111343596D01*
X87817086Y-111293354D01*
X87817093Y-111293350D01*
X87932187Y-111207190D01*
X87932190Y-111207187D01*
X88018350Y-111092093D01*
X88018354Y-111092086D01*
X88068596Y-110957379D01*
X88068598Y-110957372D01*
X88074999Y-110897844D01*
X88075000Y-110897827D01*
X88075000Y-110250000D01*
X87158012Y-110250000D01*
X87190925Y-110192993D01*
X87225000Y-110065826D01*
X87225000Y-109934174D01*
X87190925Y-109807007D01*
X87158012Y-109750000D01*
X88075000Y-109750000D01*
X88075000Y-109444364D01*
X90547918Y-109444364D01*
X90547918Y-109444365D01*
X91078248Y-109974695D01*
X91767677Y-109285266D01*
X91760228Y-109277817D01*
X92559001Y-109277817D01*
X92559001Y-109277818D01*
X92579578Y-109467024D01*
X92579579Y-109467027D01*
X92640351Y-109647388D01*
X92738474Y-109810472D01*
X92766628Y-109842722D01*
X92908830Y-109984924D01*
X93792714Y-109101040D01*
X93792714Y-109101039D01*
X93085607Y-108393934D01*
X93085606Y-108393934D01*
X92766641Y-108712899D01*
X92766635Y-108712906D01*
X92738473Y-108745165D01*
X92640352Y-108908243D01*
X92640351Y-108908244D01*
X92579579Y-109088607D01*
X92579578Y-109088610D01*
X92559001Y-109277817D01*
X91760228Y-109277817D01*
X91732340Y-109249929D01*
X91732333Y-109249923D01*
X91652284Y-109184714D01*
X91495609Y-109106029D01*
X91325008Y-109065596D01*
X91149688Y-109065596D01*
X90979086Y-109106029D01*
X90822405Y-109184717D01*
X90742364Y-109249920D01*
X90742345Y-109249937D01*
X90547918Y-109444364D01*
X88075000Y-109444364D01*
X88075000Y-109102172D01*
X88074999Y-109102155D01*
X88068598Y-109042627D01*
X88068596Y-109042620D01*
X88018354Y-108907913D01*
X88018350Y-108907906D01*
X87932190Y-108792812D01*
X87932187Y-108792809D01*
X87817093Y-108706649D01*
X87817088Y-108706646D01*
X87685528Y-108657577D01*
X87629595Y-108615705D01*
X87605178Y-108550241D01*
X87620030Y-108481968D01*
X87641175Y-108453720D01*
X87755104Y-108339792D01*
X87787506Y-108295195D01*
X87880048Y-108167820D01*
X87880047Y-108167820D01*
X87880051Y-108167816D01*
X87944983Y-108040379D01*
X93439161Y-108040379D01*
X93439161Y-108040380D01*
X94146266Y-108747487D01*
X94146267Y-108747487D01*
X95030151Y-107863603D01*
X94887949Y-107721401D01*
X94855699Y-107693247D01*
X94692615Y-107595124D01*
X94512254Y-107534352D01*
X94512251Y-107534351D01*
X94323045Y-107513774D01*
X94323044Y-107513774D01*
X94133837Y-107534351D01*
X94133834Y-107534352D01*
X93953471Y-107595124D01*
X93953470Y-107595125D01*
X93790392Y-107693246D01*
X93758133Y-107721408D01*
X93758126Y-107721414D01*
X93439161Y-108040379D01*
X87944983Y-108040379D01*
X87976557Y-107978412D01*
X88042246Y-107776243D01*
X88075500Y-107566287D01*
X88075500Y-107353713D01*
X88060382Y-107258267D01*
X88069336Y-107188978D01*
X88095171Y-107151194D01*
X88959548Y-106286819D01*
X89020871Y-106253334D01*
X89047229Y-106250500D01*
X91073920Y-106250500D01*
X91171462Y-106231096D01*
X91218913Y-106221658D01*
X91355495Y-106165084D01*
X91404729Y-106132186D01*
X91478416Y-106082952D01*
X97317048Y-100244318D01*
X97378371Y-100210834D01*
X97404729Y-100208000D01*
X99585596Y-100208000D01*
X99652635Y-100227685D01*
X99698390Y-100280489D01*
X99708334Y-100349647D01*
X99685915Y-100404885D01*
X99674157Y-100421067D01*
X99566934Y-100631503D01*
X99493947Y-100856131D01*
X99457001Y-101089402D01*
X99457001Y-101325597D01*
X99493947Y-101558868D01*
X99566934Y-101783496D01*
X99674156Y-101993930D01*
X99674158Y-101993933D01*
X99812984Y-102185010D01*
X99979991Y-102352017D01*
X100171068Y-102490843D01*
X100270492Y-102541502D01*
X100381504Y-102598066D01*
X100381506Y-102598066D01*
X100381509Y-102598068D01*
X100501913Y-102637189D01*
X100606132Y-102671053D01*
X100839404Y-102708000D01*
X100839409Y-102708000D01*
X101075598Y-102708000D01*
X101308869Y-102671053D01*
X101336765Y-102661989D01*
X101533493Y-102598068D01*
X101743934Y-102490843D01*
X101935011Y-102352017D01*
X102102018Y-102185010D01*
X102240844Y-101993933D01*
X102348069Y-101783492D01*
X102421054Y-101558868D01*
X102421054Y-101558867D01*
X102458001Y-101325597D01*
X102458001Y-101089403D01*
X102441740Y-100986744D01*
X102427171Y-100894755D01*
X102436125Y-100825464D01*
X102481121Y-100772012D01*
X102547873Y-100751372D01*
X102587955Y-100757426D01*
X102641258Y-100774746D01*
X102851214Y-100808000D01*
X102851215Y-100808000D01*
X103063787Y-100808000D01*
X103063788Y-100808000D01*
X103273744Y-100774746D01*
X103475913Y-100709057D01*
X103665317Y-100612551D01*
X103687290Y-100596586D01*
X103837287Y-100487609D01*
X103837289Y-100487606D01*
X103837293Y-100487604D01*
X103987605Y-100337292D01*
X103987607Y-100337288D01*
X103987610Y-100337286D01*
X104112549Y-100165320D01*
X104112548Y-100165320D01*
X104112552Y-100165316D01*
X104209058Y-99975912D01*
X104274747Y-99773743D01*
X104308001Y-99563787D01*
X104308001Y-99351213D01*
X104274747Y-99141257D01*
X104209058Y-98939088D01*
X104112552Y-98749684D01*
X104112550Y-98749681D01*
X104112549Y-98749679D01*
X103987610Y-98577713D01*
X103837287Y-98427390D01*
X103665321Y-98302451D01*
X103475915Y-98205944D01*
X103475914Y-98205943D01*
X103475913Y-98205943D01*
X103273744Y-98140254D01*
X103273742Y-98140253D01*
X103273741Y-98140253D01*
X103112458Y-98114708D01*
X103063788Y-98107000D01*
X102851214Y-98107000D01*
X102802543Y-98114708D01*
X102641261Y-98140253D01*
X102439086Y-98205944D01*
X102249680Y-98302451D01*
X102077714Y-98427390D01*
X101927393Y-98577711D01*
X101870598Y-98655885D01*
X101815268Y-98698551D01*
X101770280Y-98707000D01*
X96968580Y-98707000D01*
X96823592Y-98735840D01*
X96823582Y-98735843D01*
X96687011Y-98792412D01*
X96686998Y-98792419D01*
X96564084Y-98874548D01*
X96564080Y-98874551D01*
X90725451Y-104713181D01*
X90664128Y-104746666D01*
X90637770Y-104749500D01*
X88611076Y-104749500D01*
X88582242Y-104755234D01*
X88582243Y-104755235D01*
X88466093Y-104778339D01*
X88466083Y-104778342D01*
X88386081Y-104811479D01*
X88386082Y-104811480D01*
X88329505Y-104834915D01*
X88247372Y-104889795D01*
X88206585Y-104917047D01*
X88206581Y-104917050D01*
X87033807Y-106089824D01*
X86972484Y-106123309D01*
X86926728Y-106124616D01*
X86831292Y-106109500D01*
X86831287Y-106109500D01*
X86618713Y-106109500D01*
X86570042Y-106117208D01*
X86408760Y-106142753D01*
X86206585Y-106208444D01*
X86017179Y-106304951D01*
X85845213Y-106429890D01*
X85694890Y-106580213D01*
X85569951Y-106752179D01*
X85473444Y-106941585D01*
X85407753Y-107143760D01*
X85385235Y-107285937D01*
X85374500Y-107353713D01*
X84500500Y-107353713D01*
X84500500Y-100784648D01*
X87075943Y-100784648D01*
X87075943Y-101027225D01*
X87107604Y-101267722D01*
X87170390Y-101502041D01*
X87193929Y-101558868D01*
X87263219Y-101726149D01*
X87384507Y-101936226D01*
X87384509Y-101936229D01*
X87384510Y-101936230D01*
X87532176Y-102128673D01*
X87532182Y-102128680D01*
X87703699Y-102300197D01*
X87703706Y-102300203D01*
X87771228Y-102352014D01*
X87896154Y-102447873D01*
X88106231Y-102569161D01*
X88330343Y-102661991D01*
X88564654Y-102724775D01*
X88745029Y-102748521D01*
X88805154Y-102756437D01*
X88805155Y-102756437D01*
X89047732Y-102756437D01*
X89095831Y-102750104D01*
X89288232Y-102724775D01*
X89522543Y-102661991D01*
X89746655Y-102569161D01*
X89956732Y-102447873D01*
X90149181Y-102300202D01*
X90320708Y-102128675D01*
X90468379Y-101936226D01*
X90589667Y-101726149D01*
X90682497Y-101502037D01*
X90745281Y-101267726D01*
X90776943Y-101027225D01*
X90776943Y-100784649D01*
X90773359Y-100757429D01*
X90745281Y-100544151D01*
X90745281Y-100544148D01*
X90682497Y-100309837D01*
X90589667Y-100085725D01*
X90468379Y-99875648D01*
X90350198Y-99721631D01*
X90320709Y-99683200D01*
X90320703Y-99683193D01*
X90149186Y-99511676D01*
X90149179Y-99511670D01*
X89956736Y-99364004D01*
X89956735Y-99364003D01*
X89956732Y-99364001D01*
X89746655Y-99242713D01*
X89746648Y-99242710D01*
X89522547Y-99149884D01*
X89288228Y-99087098D01*
X89047732Y-99055437D01*
X89047731Y-99055437D01*
X88805155Y-99055437D01*
X88805154Y-99055437D01*
X88564657Y-99087098D01*
X88330338Y-99149884D01*
X88106237Y-99242710D01*
X88106228Y-99242714D01*
X87924294Y-99347754D01*
X87918304Y-99351213D01*
X87896149Y-99364004D01*
X87703706Y-99511670D01*
X87703699Y-99511676D01*
X87532182Y-99683193D01*
X87532176Y-99683200D01*
X87384510Y-99875643D01*
X87384507Y-99875647D01*
X87384507Y-99875648D01*
X87368260Y-99903788D01*
X87263220Y-100085722D01*
X87263216Y-100085731D01*
X87170390Y-100309832D01*
X87107604Y-100544151D01*
X87075943Y-100784648D01*
X84500500Y-100784648D01*
X84500500Y-96004066D01*
X84500765Y-95995956D01*
X84504819Y-95934108D01*
X84517075Y-95747102D01*
X84519190Y-95731048D01*
X84567045Y-95490462D01*
X84571243Y-95474797D01*
X84594337Y-95406762D01*
X84650093Y-95242512D01*
X84656291Y-95227547D01*
X84764790Y-95007533D01*
X84772893Y-94993498D01*
X84909182Y-94789527D01*
X84919039Y-94776681D01*
X85080786Y-94592244D01*
X85092244Y-94580786D01*
X85276681Y-94419039D01*
X85289527Y-94409182D01*
X85493498Y-94272893D01*
X85507533Y-94264790D01*
X85727547Y-94156291D01*
X85742512Y-94150093D01*
X85906762Y-94094337D01*
X85974797Y-94071243D01*
X85990464Y-94067045D01*
X86231048Y-94019190D01*
X86247102Y-94017075D01*
X86495957Y-94000765D01*
X86504067Y-94000500D01*
X86565892Y-94000500D01*
X87434108Y-94000500D01*
X99743112Y-94000500D01*
X99810151Y-94020185D01*
G37*
%TD.AperFunction*%
%TD*%
M02*
