%TF.GenerationSoftware,KiCad,Pcbnew,9.0.5*%
%TF.CreationDate,2025-10-25T18:26:15+02:00*%
%TF.ProjectId,humidity_sensor,68756d69-6469-4747-995f-73656e736f72,rev?*%
%TF.SameCoordinates,Original*%
%TF.FileFunction,Copper,L2,Bot*%
%TF.FilePolarity,Positive*%
%FSLAX46Y46*%
G04 Gerber Fmt 4.6, Leading zero omitted, Abs format (unit mm)*
G04 Created by KiCad (PCBNEW 9.0.5) date 2025-10-25 18:26:15*
%MOMM*%
%LPD*%
G01*
G04 APERTURE LIST*
G04 Aperture macros list*
%AMRoundRect*
0 Rectangle with rounded corners*
0 $1 Rounding radius*
0 $2 $3 $4 $5 $6 $7 $8 $9 X,Y pos of 4 corners*
0 Add a 4 corners polygon primitive as box body*
4,1,4,$2,$3,$4,$5,$6,$7,$8,$9,$2,$3,0*
0 Add four circle primitives for the rounded corners*
1,1,$1+$1,$2,$3*
1,1,$1+$1,$4,$5*
1,1,$1+$1,$6,$7*
1,1,$1+$1,$8,$9*
0 Add four rect primitives between the rounded corners*
20,1,$1+$1,$2,$3,$4,$5,0*
20,1,$1+$1,$4,$5,$6,$7,0*
20,1,$1+$1,$6,$7,$8,$9,0*
20,1,$1+$1,$8,$9,$2,$3,0*%
G04 Aperture macros list end*
%TA.AperFunction,ComponentPad*%
%ADD10R,1.500000X1.500000*%
%TD*%
%TA.AperFunction,ComponentPad*%
%ADD11C,1.500000*%
%TD*%
%TA.AperFunction,ComponentPad*%
%ADD12C,2.000000*%
%TD*%
%TA.AperFunction,ComponentPad*%
%ADD13C,1.700000*%
%TD*%
%TA.AperFunction,ComponentPad*%
%ADD14RoundRect,0.250000X-0.625000X0.350000X-0.625000X-0.350000X0.625000X-0.350000X0.625000X0.350000X0*%
%TD*%
%TA.AperFunction,ComponentPad*%
%ADD15O,1.750000X1.200000*%
%TD*%
%TA.AperFunction,ComponentPad*%
%ADD16R,1.700000X1.700000*%
%TD*%
%TA.AperFunction,ViaPad*%
%ADD17C,0.600000*%
%TD*%
G04 APERTURE END LIST*
D10*
%TO.P,U2,1,VDD*%
%TO.N,+3.3V*%
X119926443Y-111825937D03*
D11*
%TO.P,U2,2,DATA*%
%TO.N,/CZUJNIK*%
X119926443Y-114365937D03*
%TO.P,U2,3,NC*%
%TO.N,unconnected-(U2-NC-Pad3)*%
X119926443Y-116905937D03*
%TO.P,U2,4,GND*%
%TO.N,GND*%
X119926443Y-119445937D03*
%TD*%
D12*
%TO.P,SW1,*%
%TO.N,*%
X112957501Y-101207499D03*
X112957501Y-95207500D03*
X100957501Y-101207500D03*
X100957501Y-95207500D03*
D13*
%TO.P,SW1,1,A*%
%TO.N,unconnected-(SW1-A-Pad1)*%
X110957501Y-99457500D03*
%TO.P,SW1,2,B*%
%TO.N,Net-(SW1-B)*%
X106957501Y-99457500D03*
%TO.P,SW1,3,C*%
%TO.N,Net-(J3-Pin_2)*%
X102957501Y-99457500D03*
%TD*%
D14*
%TO.P,J1,1,Pin_1*%
%TO.N,GND*%
X90876443Y-116405937D03*
D15*
%TO.P,J1,2,Pin_2*%
%TO.N,/SWCLK*%
X90876443Y-118405938D03*
%TO.P,J1,3,Pin_3*%
%TO.N,/SWDIO*%
X90876443Y-120405937D03*
%TO.P,J1,4,Pin_4*%
%TO.N,+3.3V*%
X90876443Y-122405937D03*
%TD*%
D16*
%TO.P,J3,1,Pin_1*%
%TO.N,GND*%
X86725000Y-110000000D03*
D13*
%TO.P,J3,2,Pin_2*%
%TO.N,Net-(J3-Pin_2)*%
X86725000Y-107460000D03*
%TD*%
D16*
%TO.P,J2,1,Pin_1*%
%TO.N,/SDA*%
X107473742Y-129628699D03*
D13*
%TO.P,J2,2,Pin_2*%
%TO.N,/SCK*%
X104933742Y-129628699D03*
%TO.P,J2,3,Pin_3*%
%TO.N,GND*%
X102393743Y-129628699D03*
%TO.P,J2,4,Pin_4*%
%TO.N,+3.3V*%
X99853742Y-129628699D03*
%TD*%
D17*
%TO.N,GND*%
X122000000Y-105500000D03*
X86500000Y-131000000D03*
X94000000Y-98000000D03*
X85500000Y-104000000D03*
X108000000Y-107500000D03*
X87500000Y-118500000D03*
X103500000Y-112000000D03*
X115500000Y-118500000D03*
X96500000Y-106500000D03*
X114500000Y-124500000D03*
X96500000Y-124000000D03*
X85000000Y-112000000D03*
X89500000Y-95500000D03*
X121500000Y-125500000D03*
X93500000Y-117500000D03*
X115000000Y-131500000D03*
X110000000Y-103500000D03*
X116000000Y-110000000D03*
X100500000Y-127000000D03*
X101500000Y-122500000D03*
X115000000Y-115500000D03*
X117000000Y-96000000D03*
X90500000Y-107500000D03*
X102000000Y-104500000D03*
X93500000Y-127000000D03*
X94500000Y-130500000D03*
X99000000Y-97000000D03*
X89000000Y-125500000D03*
X86000000Y-98500000D03*
X85500000Y-127000000D03*
X97500000Y-102000000D03*
X111500000Y-109500000D03*
X98000000Y-118000000D03*
%TD*%
%TA.AperFunction,Conductor*%
%TO.N,GND*%
G36*
X99810151Y-94020185D02*
G01*
X99855906Y-94072989D01*
X99865850Y-94142147D01*
X99836825Y-94205703D01*
X99830793Y-94212181D01*
X99812986Y-94229987D01*
X99812986Y-94229988D01*
X99812984Y-94229990D01*
X99781810Y-94272897D01*
X99674158Y-94421066D01*
X99566934Y-94631503D01*
X99493947Y-94856131D01*
X99457001Y-95089402D01*
X99457001Y-95325597D01*
X99493947Y-95558868D01*
X99566934Y-95783496D01*
X99674158Y-95993933D01*
X99812984Y-96185010D01*
X99979991Y-96352017D01*
X100171068Y-96490843D01*
X100270492Y-96541502D01*
X100381504Y-96598066D01*
X100381506Y-96598066D01*
X100381509Y-96598068D01*
X100501913Y-96637189D01*
X100606132Y-96671053D01*
X100839404Y-96708000D01*
X100839409Y-96708000D01*
X101075598Y-96708000D01*
X101308869Y-96671053D01*
X101533493Y-96598068D01*
X101743934Y-96490843D01*
X101935011Y-96352017D01*
X102102018Y-96185010D01*
X102240844Y-95993933D01*
X102348069Y-95783492D01*
X102421054Y-95558868D01*
X102433151Y-95482491D01*
X102458001Y-95325597D01*
X102458001Y-95089402D01*
X102421054Y-94856131D01*
X102348067Y-94631503D01*
X102240843Y-94421066D01*
X102199068Y-94363568D01*
X102102018Y-94229990D01*
X102084209Y-94212181D01*
X102050724Y-94150858D01*
X102055708Y-94081166D01*
X102097580Y-94025233D01*
X102163044Y-94000816D01*
X102171890Y-94000500D01*
X111743112Y-94000500D01*
X111810151Y-94020185D01*
X111855906Y-94072989D01*
X111865850Y-94142147D01*
X111836825Y-94205703D01*
X111830793Y-94212181D01*
X111812986Y-94229987D01*
X111812986Y-94229988D01*
X111812984Y-94229990D01*
X111781810Y-94272897D01*
X111674158Y-94421066D01*
X111566934Y-94631503D01*
X111493947Y-94856131D01*
X111457001Y-95089402D01*
X111457001Y-95325597D01*
X111493947Y-95558868D01*
X111566934Y-95783496D01*
X111674158Y-95993933D01*
X111812984Y-96185010D01*
X111979991Y-96352017D01*
X112171068Y-96490843D01*
X112270492Y-96541502D01*
X112381504Y-96598066D01*
X112381506Y-96598066D01*
X112381509Y-96598068D01*
X112501913Y-96637189D01*
X112606132Y-96671053D01*
X112839404Y-96708000D01*
X112839409Y-96708000D01*
X113075598Y-96708000D01*
X113308869Y-96671053D01*
X113533493Y-96598068D01*
X113743934Y-96490843D01*
X113935011Y-96352017D01*
X114102018Y-96185010D01*
X114240844Y-95993933D01*
X114348069Y-95783492D01*
X114421054Y-95558868D01*
X114433151Y-95482491D01*
X114458001Y-95325597D01*
X114458001Y-95089402D01*
X114421054Y-94856131D01*
X114348067Y-94631503D01*
X114240843Y-94421066D01*
X114199068Y-94363568D01*
X114102018Y-94229990D01*
X114084209Y-94212181D01*
X114050724Y-94150858D01*
X114055708Y-94081166D01*
X114097580Y-94025233D01*
X114163044Y-94000816D01*
X114171890Y-94000500D01*
X121434108Y-94000500D01*
X121495933Y-94000500D01*
X121504043Y-94000765D01*
X121752895Y-94017075D01*
X121768953Y-94019190D01*
X121976105Y-94060395D01*
X122009535Y-94067045D01*
X122025202Y-94071243D01*
X122194947Y-94128863D01*
X122257481Y-94150091D01*
X122272458Y-94156294D01*
X122385786Y-94212181D01*
X122492460Y-94264787D01*
X122506508Y-94272897D01*
X122710464Y-94409177D01*
X122723328Y-94419048D01*
X122907749Y-94580781D01*
X122919218Y-94592250D01*
X123080951Y-94776671D01*
X123090825Y-94789539D01*
X123227102Y-94993492D01*
X123235212Y-95007539D01*
X123343702Y-95227534D01*
X123349909Y-95242520D01*
X123428756Y-95474797D01*
X123432954Y-95490464D01*
X123480807Y-95731035D01*
X123482925Y-95747116D01*
X123499235Y-95995956D01*
X123499500Y-96004066D01*
X123499500Y-130995933D01*
X123499235Y-131004043D01*
X123482925Y-131252883D01*
X123480807Y-131268964D01*
X123432954Y-131509535D01*
X123428756Y-131525202D01*
X123349909Y-131757479D01*
X123343702Y-131772465D01*
X123235212Y-131992460D01*
X123227102Y-132006507D01*
X123090825Y-132210460D01*
X123080951Y-132223328D01*
X122919218Y-132407749D01*
X122907749Y-132419218D01*
X122723328Y-132580951D01*
X122710460Y-132590825D01*
X122506507Y-132727102D01*
X122492460Y-132735212D01*
X122272465Y-132843702D01*
X122257479Y-132849909D01*
X122025202Y-132928756D01*
X122009535Y-132932954D01*
X121768964Y-132980807D01*
X121752883Y-132982925D01*
X121504043Y-132999235D01*
X121495933Y-132999500D01*
X86504067Y-132999500D01*
X86495957Y-132999235D01*
X86247116Y-132982925D01*
X86231035Y-132980807D01*
X85990464Y-132932954D01*
X85974797Y-132928756D01*
X85742520Y-132849909D01*
X85727534Y-132843702D01*
X85507539Y-132735212D01*
X85493492Y-132727102D01*
X85289539Y-132590825D01*
X85276671Y-132580951D01*
X85092250Y-132419218D01*
X85080781Y-132407749D01*
X84919048Y-132223328D01*
X84909174Y-132210460D01*
X84772897Y-132006507D01*
X84764787Y-131992460D01*
X84658855Y-131777652D01*
X84656294Y-131772458D01*
X84650090Y-131757479D01*
X84571243Y-131525202D01*
X84567045Y-131509535D01*
X84559186Y-131470026D01*
X84519190Y-131268953D01*
X84517075Y-131252895D01*
X84500765Y-131004043D01*
X84500500Y-130995933D01*
X84500500Y-128784649D01*
X87075943Y-128784649D01*
X87075943Y-129027225D01*
X87107605Y-129267726D01*
X87119591Y-129312459D01*
X87170390Y-129502041D01*
X87222854Y-129628699D01*
X87263219Y-129726149D01*
X87384507Y-129936226D01*
X87384509Y-129936229D01*
X87384510Y-129936230D01*
X87532176Y-130128673D01*
X87532182Y-130128680D01*
X87703699Y-130300197D01*
X87703706Y-130300203D01*
X87750686Y-130336252D01*
X87896154Y-130447873D01*
X88106231Y-130569161D01*
X88301712Y-130650132D01*
X88322658Y-130658808D01*
X88330343Y-130661991D01*
X88564654Y-130724775D01*
X88745029Y-130748521D01*
X88805154Y-130756437D01*
X88805155Y-130756437D01*
X89047732Y-130756437D01*
X89095831Y-130750104D01*
X89288232Y-130724775D01*
X89522543Y-130661991D01*
X89746655Y-130569161D01*
X89956732Y-130447873D01*
X90149181Y-130300202D01*
X90320708Y-130128675D01*
X90468379Y-129936226D01*
X90589667Y-129726149D01*
X90674057Y-129522412D01*
X98503242Y-129522412D01*
X98503242Y-129734985D01*
X98535115Y-129936226D01*
X98536496Y-129944942D01*
X98596196Y-130128680D01*
X98602186Y-130147113D01*
X98698693Y-130336519D01*
X98823632Y-130508485D01*
X98973955Y-130658808D01*
X99145921Y-130783747D01*
X99145923Y-130783748D01*
X99145926Y-130783750D01*
X99335330Y-130880256D01*
X99537499Y-130945945D01*
X99747455Y-130979199D01*
X99747456Y-130979199D01*
X99960028Y-130979199D01*
X99960029Y-130979199D01*
X100169985Y-130945945D01*
X100372154Y-130880256D01*
X100561558Y-130783750D01*
X100647880Y-130721034D01*
X100733528Y-130658808D01*
X100733530Y-130658805D01*
X100733534Y-130658803D01*
X100883846Y-130508491D01*
X100883848Y-130508487D01*
X100883851Y-130508485D01*
X101008790Y-130336519D01*
X101008792Y-130336516D01*
X101008793Y-130336515D01*
X101013537Y-130327203D01*
X101061509Y-130276407D01*
X101129329Y-130259610D01*
X101195465Y-130282145D01*
X101234508Y-130327202D01*
X101239116Y-130336246D01*
X101278471Y-130390415D01*
X101910780Y-129758107D01*
X101927818Y-129821692D01*
X101993644Y-129935706D01*
X102086736Y-130028798D01*
X102200750Y-130094624D01*
X102264333Y-130111661D01*
X101632025Y-130743968D01*
X101632025Y-130743969D01*
X101686192Y-130783323D01*
X101875525Y-130879794D01*
X102077613Y-130945456D01*
X102287497Y-130978699D01*
X102499989Y-130978699D01*
X102709870Y-130945456D01*
X102709873Y-130945456D01*
X102911960Y-130879794D01*
X103101297Y-130783321D01*
X103155459Y-130743969D01*
X103155460Y-130743969D01*
X102523151Y-130111661D01*
X102586736Y-130094624D01*
X102700750Y-130028798D01*
X102793842Y-129935706D01*
X102859668Y-129821692D01*
X102876705Y-129758107D01*
X103509013Y-130390416D01*
X103509013Y-130390415D01*
X103548366Y-130336252D01*
X103552973Y-130327210D01*
X103600944Y-130276411D01*
X103668764Y-130259611D01*
X103734900Y-130282145D01*
X103773944Y-130327200D01*
X103778691Y-130336516D01*
X103903632Y-130508485D01*
X104053955Y-130658808D01*
X104225921Y-130783747D01*
X104225923Y-130783748D01*
X104225926Y-130783750D01*
X104415330Y-130880256D01*
X104617499Y-130945945D01*
X104827455Y-130979199D01*
X104827456Y-130979199D01*
X105040028Y-130979199D01*
X105040029Y-130979199D01*
X105249985Y-130945945D01*
X105452154Y-130880256D01*
X105641558Y-130783750D01*
X105813534Y-130658803D01*
X105927071Y-130545265D01*
X105988390Y-130511783D01*
X106058082Y-130516767D01*
X106114016Y-130558638D01*
X106130931Y-130589616D01*
X106179944Y-130721027D01*
X106179948Y-130721034D01*
X106266194Y-130836243D01*
X106266197Y-130836246D01*
X106381406Y-130922492D01*
X106381413Y-130922496D01*
X106516259Y-130972790D01*
X106516258Y-130972790D01*
X106523186Y-130973534D01*
X106575869Y-130979199D01*
X108371614Y-130979198D01*
X108431225Y-130972790D01*
X108566073Y-130922495D01*
X108681288Y-130836245D01*
X108767538Y-130721030D01*
X108817833Y-130586182D01*
X108824242Y-130526572D01*
X108824241Y-128784649D01*
X117075943Y-128784649D01*
X117075943Y-129027225D01*
X117107605Y-129267726D01*
X117119591Y-129312459D01*
X117170390Y-129502041D01*
X117222854Y-129628699D01*
X117263219Y-129726149D01*
X117384507Y-129936226D01*
X117384509Y-129936229D01*
X117384510Y-129936230D01*
X117532176Y-130128673D01*
X117532182Y-130128680D01*
X117703699Y-130300197D01*
X117703706Y-130300203D01*
X117750686Y-130336252D01*
X117896154Y-130447873D01*
X118106231Y-130569161D01*
X118301712Y-130650132D01*
X118322658Y-130658808D01*
X118330343Y-130661991D01*
X118564654Y-130724775D01*
X118745029Y-130748521D01*
X118805154Y-130756437D01*
X118805155Y-130756437D01*
X119047732Y-130756437D01*
X119095831Y-130750104D01*
X119288232Y-130724775D01*
X119522543Y-130661991D01*
X119746655Y-130569161D01*
X119956732Y-130447873D01*
X120149181Y-130300202D01*
X120320708Y-130128675D01*
X120468379Y-129936226D01*
X120589667Y-129726149D01*
X120682497Y-129502037D01*
X120745281Y-129267726D01*
X120776943Y-129027225D01*
X120776943Y-128784649D01*
X120745281Y-128544148D01*
X120682497Y-128309837D01*
X120589667Y-128085725D01*
X120468379Y-127875648D01*
X120320708Y-127683199D01*
X120320703Y-127683193D01*
X120149186Y-127511676D01*
X120149179Y-127511670D01*
X119956736Y-127364004D01*
X119956735Y-127364003D01*
X119956732Y-127364001D01*
X119746655Y-127242713D01*
X119746648Y-127242710D01*
X119522547Y-127149884D01*
X119288228Y-127087098D01*
X119047732Y-127055437D01*
X119047731Y-127055437D01*
X118805155Y-127055437D01*
X118805154Y-127055437D01*
X118564657Y-127087098D01*
X118330338Y-127149884D01*
X118106237Y-127242710D01*
X118106228Y-127242714D01*
X117896149Y-127364004D01*
X117703706Y-127511670D01*
X117703699Y-127511676D01*
X117532182Y-127683193D01*
X117532176Y-127683200D01*
X117384510Y-127875643D01*
X117263220Y-128085722D01*
X117263216Y-128085731D01*
X117170390Y-128309832D01*
X117107604Y-128544151D01*
X117082706Y-128733280D01*
X117075943Y-128784649D01*
X108824241Y-128784649D01*
X108824241Y-128730827D01*
X108817833Y-128671216D01*
X108816552Y-128667782D01*
X108767539Y-128536370D01*
X108767535Y-128536363D01*
X108681289Y-128421154D01*
X108681286Y-128421151D01*
X108566077Y-128334905D01*
X108566070Y-128334901D01*
X108431224Y-128284607D01*
X108431225Y-128284607D01*
X108371625Y-128278200D01*
X108371623Y-128278199D01*
X108371615Y-128278199D01*
X108371606Y-128278199D01*
X106575871Y-128278199D01*
X106575865Y-128278200D01*
X106516258Y-128284607D01*
X106381413Y-128334901D01*
X106381406Y-128334905D01*
X106266197Y-128421151D01*
X106266194Y-128421154D01*
X106179948Y-128536363D01*
X106179945Y-128536368D01*
X106130931Y-128667782D01*
X106089059Y-128723715D01*
X106023595Y-128748132D01*
X105955322Y-128733280D01*
X105927068Y-128712129D01*
X105813528Y-128598589D01*
X105641562Y-128473650D01*
X105452156Y-128377143D01*
X105452155Y-128377142D01*
X105452154Y-128377142D01*
X105249985Y-128311453D01*
X105249983Y-128311452D01*
X105249982Y-128311452D01*
X105088699Y-128285907D01*
X105040029Y-128278199D01*
X104827455Y-128278199D01*
X104778784Y-128285907D01*
X104617502Y-128311452D01*
X104415327Y-128377143D01*
X104225921Y-128473650D01*
X104053955Y-128598589D01*
X103903632Y-128748912D01*
X103778692Y-128920880D01*
X103773943Y-128930200D01*
X103725965Y-128980993D01*
X103658144Y-128997785D01*
X103592010Y-128975244D01*
X103552974Y-128930190D01*
X103548367Y-128921148D01*
X103509013Y-128866981D01*
X103509012Y-128866981D01*
X102876705Y-129499289D01*
X102859668Y-129435706D01*
X102793842Y-129321692D01*
X102700750Y-129228600D01*
X102586736Y-129162774D01*
X102523152Y-129145736D01*
X103155459Y-128513427D01*
X103101293Y-128474074D01*
X102911960Y-128377603D01*
X102709872Y-128311941D01*
X102499989Y-128278699D01*
X102287497Y-128278699D01*
X102077615Y-128311941D01*
X102077612Y-128311941D01*
X101875525Y-128377603D01*
X101686182Y-128474079D01*
X101632025Y-128513426D01*
X101632025Y-128513427D01*
X102264334Y-129145736D01*
X102200750Y-129162774D01*
X102086736Y-129228600D01*
X101993644Y-129321692D01*
X101927818Y-129435706D01*
X101910780Y-129499290D01*
X101278471Y-128866981D01*
X101278470Y-128866981D01*
X101239123Y-128921139D01*
X101234505Y-128930202D01*
X101186527Y-128980995D01*
X101118706Y-128997787D01*
X101052572Y-128975246D01*
X101013538Y-128930195D01*
X101008792Y-128920881D01*
X100883851Y-128748912D01*
X100733528Y-128598589D01*
X100561562Y-128473650D01*
X100372156Y-128377143D01*
X100372155Y-128377142D01*
X100372154Y-128377142D01*
X100169985Y-128311453D01*
X100169983Y-128311452D01*
X100169982Y-128311452D01*
X100008699Y-128285907D01*
X99960029Y-128278199D01*
X99747455Y-128278199D01*
X99698784Y-128285907D01*
X99537502Y-128311452D01*
X99335327Y-128377143D01*
X99145921Y-128473650D01*
X98973955Y-128598589D01*
X98823632Y-128748912D01*
X98698693Y-128920878D01*
X98602186Y-129110284D01*
X98536495Y-129312459D01*
X98503242Y-129522412D01*
X90674057Y-129522412D01*
X90682497Y-129502037D01*
X90745281Y-129267726D01*
X90776943Y-129027225D01*
X90776943Y-128784649D01*
X90745281Y-128544148D01*
X90682497Y-128309837D01*
X90589667Y-128085725D01*
X90468379Y-127875648D01*
X90320708Y-127683199D01*
X90320703Y-127683193D01*
X90149186Y-127511676D01*
X90149179Y-127511670D01*
X89956736Y-127364004D01*
X89956735Y-127364003D01*
X89956732Y-127364001D01*
X89746655Y-127242713D01*
X89746648Y-127242710D01*
X89522547Y-127149884D01*
X89288228Y-127087098D01*
X89047732Y-127055437D01*
X89047731Y-127055437D01*
X88805155Y-127055437D01*
X88805154Y-127055437D01*
X88564657Y-127087098D01*
X88330338Y-127149884D01*
X88106237Y-127242710D01*
X88106228Y-127242714D01*
X87896149Y-127364004D01*
X87703706Y-127511670D01*
X87703699Y-127511676D01*
X87532182Y-127683193D01*
X87532176Y-127683200D01*
X87384510Y-127875643D01*
X87263220Y-128085722D01*
X87263216Y-128085731D01*
X87170390Y-128309832D01*
X87107604Y-128544151D01*
X87082706Y-128733280D01*
X87075943Y-128784649D01*
X84500500Y-128784649D01*
X84500500Y-118319327D01*
X89500943Y-118319327D01*
X89500943Y-118492549D01*
X89528041Y-118663639D01*
X89581570Y-118828383D01*
X89660211Y-118982726D01*
X89762029Y-119122866D01*
X89884515Y-119245352D01*
X89967467Y-119305620D01*
X90010131Y-119360949D01*
X90016110Y-119430562D01*
X89983504Y-119492357D01*
X89967466Y-119506254D01*
X89884521Y-119566518D01*
X89884512Y-119566525D01*
X89762031Y-119689006D01*
X89762031Y-119689007D01*
X89762029Y-119689009D01*
X89760188Y-119691543D01*
X89660211Y-119829148D01*
X89581571Y-119983489D01*
X89528040Y-120148239D01*
X89500943Y-120319326D01*
X89500943Y-120492548D01*
X89528041Y-120663638D01*
X89581570Y-120828382D01*
X89660211Y-120982725D01*
X89762029Y-121122865D01*
X89884515Y-121245351D01*
X89884521Y-121245355D01*
X89967466Y-121305620D01*
X90010132Y-121360950D01*
X90016110Y-121430563D01*
X89983504Y-121492358D01*
X89967466Y-121506254D01*
X89884521Y-121566518D01*
X89884512Y-121566525D01*
X89762031Y-121689006D01*
X89762031Y-121689007D01*
X89762029Y-121689009D01*
X89718302Y-121749193D01*
X89660211Y-121829148D01*
X89581571Y-121983489D01*
X89528040Y-122148239D01*
X89500943Y-122319326D01*
X89500943Y-122492548D01*
X89528041Y-122663638D01*
X89581570Y-122828382D01*
X89660211Y-122982725D01*
X89762029Y-123122865D01*
X89884515Y-123245351D01*
X90024655Y-123347169D01*
X90178998Y-123425810D01*
X90343742Y-123479339D01*
X90514832Y-123506437D01*
X90514833Y-123506437D01*
X91238053Y-123506437D01*
X91238054Y-123506437D01*
X91409144Y-123479339D01*
X91573888Y-123425810D01*
X91728231Y-123347169D01*
X91868371Y-123245351D01*
X91990857Y-123122865D01*
X92092675Y-122982725D01*
X92171316Y-122828382D01*
X92224845Y-122663638D01*
X92251943Y-122492548D01*
X92251943Y-122319326D01*
X92224845Y-122148236D01*
X92171316Y-121983492D01*
X92092675Y-121829149D01*
X91990857Y-121689009D01*
X91868371Y-121566523D01*
X91785418Y-121506254D01*
X91742754Y-121450925D01*
X91736775Y-121381311D01*
X91769381Y-121319516D01*
X91785419Y-121305619D01*
X91868371Y-121245351D01*
X91990857Y-121122865D01*
X92092675Y-120982725D01*
X92171316Y-120828382D01*
X92224845Y-120663638D01*
X92251943Y-120492548D01*
X92251943Y-120319326D01*
X92224845Y-120148236D01*
X92171316Y-119983492D01*
X92092675Y-119829149D01*
X91990857Y-119689009D01*
X91868371Y-119566523D01*
X91785418Y-119506254D01*
X91768244Y-119483981D01*
X91748643Y-119463818D01*
X91747197Y-119456686D01*
X91742754Y-119450925D01*
X91740347Y-119422908D01*
X91734758Y-119395342D01*
X91737397Y-119388559D01*
X91736775Y-119381311D01*
X91749897Y-119356440D01*
X91760099Y-119330229D01*
X91767548Y-119322988D01*
X91769381Y-119319516D01*
X91785399Y-119305634D01*
X91868371Y-119245352D01*
X91990857Y-119122866D01*
X92092675Y-118982726D01*
X92171316Y-118828383D01*
X92224845Y-118663639D01*
X92251943Y-118492549D01*
X92251943Y-118319327D01*
X92224845Y-118148237D01*
X92171316Y-117983493D01*
X92092675Y-117829150D01*
X91990857Y-117689010D01*
X91882951Y-117581104D01*
X91849466Y-117519781D01*
X91854450Y-117450089D01*
X91896322Y-117394156D01*
X91905536Y-117387884D01*
X91969786Y-117348254D01*
X92093758Y-117224282D01*
X92185799Y-117075061D01*
X92185801Y-117075056D01*
X92240948Y-116908634D01*
X92240949Y-116908627D01*
X92251442Y-116805923D01*
X92251443Y-116805910D01*
X92251443Y-116655937D01*
X91156773Y-116655937D01*
X91176518Y-116636192D01*
X91225887Y-116550682D01*
X91251443Y-116455307D01*
X91251443Y-116356567D01*
X91225887Y-116261192D01*
X91176518Y-116175682D01*
X91156773Y-116155937D01*
X92251442Y-116155937D01*
X92251442Y-116005965D01*
X92251441Y-116005950D01*
X92240948Y-115903239D01*
X92185801Y-115736817D01*
X92185799Y-115736812D01*
X92093758Y-115587591D01*
X91969788Y-115463621D01*
X91820567Y-115371580D01*
X91820562Y-115371578D01*
X91654140Y-115316431D01*
X91654133Y-115316430D01*
X91551429Y-115305937D01*
X91126443Y-115305937D01*
X91126443Y-116125607D01*
X91106698Y-116105862D01*
X91021188Y-116056493D01*
X90925813Y-116030937D01*
X90827073Y-116030937D01*
X90731698Y-116056493D01*
X90646188Y-116105862D01*
X90626443Y-116125607D01*
X90626443Y-115305937D01*
X90201471Y-115305937D01*
X90201455Y-115305938D01*
X90098745Y-115316431D01*
X89932323Y-115371578D01*
X89932318Y-115371580D01*
X89783097Y-115463621D01*
X89659127Y-115587591D01*
X89567086Y-115736812D01*
X89567084Y-115736817D01*
X89511937Y-115903239D01*
X89511936Y-115903246D01*
X89501443Y-116005950D01*
X89501443Y-116155937D01*
X90596113Y-116155937D01*
X90576368Y-116175682D01*
X90526999Y-116261192D01*
X90501443Y-116356567D01*
X90501443Y-116455307D01*
X90526999Y-116550682D01*
X90576368Y-116636192D01*
X90596113Y-116655937D01*
X89501444Y-116655937D01*
X89501444Y-116805923D01*
X89511937Y-116908634D01*
X89567084Y-117075056D01*
X89567086Y-117075061D01*
X89659127Y-117224282D01*
X89783097Y-117348252D01*
X89847350Y-117387884D01*
X89894074Y-117439832D01*
X89905296Y-117508795D01*
X89877453Y-117572877D01*
X89869935Y-117581104D01*
X89762028Y-117689011D01*
X89660211Y-117829149D01*
X89581571Y-117983490D01*
X89528040Y-118148240D01*
X89506110Y-118286702D01*
X89500943Y-118319327D01*
X84500500Y-118319327D01*
X84500500Y-107353713D01*
X85374500Y-107353713D01*
X85374500Y-107566286D01*
X85407753Y-107776239D01*
X85473444Y-107978414D01*
X85569951Y-108167820D01*
X85694890Y-108339786D01*
X85808818Y-108453714D01*
X85842303Y-108515037D01*
X85837319Y-108584729D01*
X85795447Y-108640662D01*
X85764471Y-108657577D01*
X85632912Y-108706646D01*
X85632906Y-108706649D01*
X85517812Y-108792809D01*
X85517809Y-108792812D01*
X85431649Y-108907906D01*
X85431645Y-108907913D01*
X85381403Y-109042620D01*
X85381401Y-109042627D01*
X85375000Y-109102155D01*
X85375000Y-109750000D01*
X86291988Y-109750000D01*
X86259075Y-109807007D01*
X86225000Y-109934174D01*
X86225000Y-110065826D01*
X86259075Y-110192993D01*
X86291988Y-110250000D01*
X85375000Y-110250000D01*
X85375000Y-110897844D01*
X85381401Y-110957372D01*
X85381403Y-110957379D01*
X85431645Y-111092086D01*
X85431649Y-111092093D01*
X85517809Y-111207187D01*
X85517812Y-111207190D01*
X85632906Y-111293350D01*
X85632913Y-111293354D01*
X85767620Y-111343596D01*
X85767627Y-111343598D01*
X85827155Y-111349999D01*
X85827172Y-111350000D01*
X86475000Y-111350000D01*
X86475000Y-110433012D01*
X86532007Y-110465925D01*
X86659174Y-110500000D01*
X86790826Y-110500000D01*
X86917993Y-110465925D01*
X86975000Y-110433012D01*
X86975000Y-111350000D01*
X87622828Y-111350000D01*
X87622844Y-111349999D01*
X87682372Y-111343598D01*
X87682379Y-111343596D01*
X87817086Y-111293354D01*
X87817093Y-111293350D01*
X87932187Y-111207190D01*
X87932190Y-111207187D01*
X88018350Y-111092093D01*
X88018354Y-111092086D01*
X88042230Y-111028072D01*
X118675943Y-111028072D01*
X118675943Y-112623807D01*
X118675944Y-112623813D01*
X118682351Y-112683420D01*
X118732645Y-112818265D01*
X118732649Y-112818272D01*
X118818895Y-112933481D01*
X118818898Y-112933484D01*
X118934107Y-113019730D01*
X118934114Y-113019734D01*
X119068960Y-113070028D01*
X119068959Y-113070028D01*
X119075887Y-113070772D01*
X119128570Y-113076437D01*
X119192176Y-113076436D01*
X119259213Y-113096120D01*
X119304969Y-113148923D01*
X119314913Y-113218081D01*
X119285889Y-113281637D01*
X119265062Y-113300753D01*
X119111797Y-113412108D01*
X118972617Y-113551288D01*
X118972617Y-113551289D01*
X118972615Y-113551291D01*
X118922928Y-113619678D01*
X118856919Y-113710531D01*
X118767560Y-113885907D01*
X118706733Y-114073110D01*
X118675943Y-114267514D01*
X118675943Y-114464359D01*
X118706733Y-114658763D01*
X118767560Y-114845966D01*
X118856919Y-115021342D01*
X118972615Y-115180583D01*
X119111797Y-115319765D01*
X119271038Y-115435461D01*
X119394435Y-115498334D01*
X119447656Y-115525452D01*
X119498452Y-115573426D01*
X119515247Y-115641247D01*
X119492710Y-115707382D01*
X119447656Y-115746422D01*
X119271037Y-115836413D01*
X119180184Y-115902422D01*
X119111797Y-115952109D01*
X119111795Y-115952111D01*
X119111794Y-115952111D01*
X118972617Y-116091288D01*
X118972617Y-116091289D01*
X118972615Y-116091291D01*
X118925647Y-116155937D01*
X118856919Y-116250531D01*
X118767560Y-116425907D01*
X118706733Y-116613110D01*
X118675943Y-116807514D01*
X118675943Y-117004359D01*
X118706733Y-117198763D01*
X118767560Y-117385966D01*
X118830145Y-117508795D01*
X118856919Y-117561342D01*
X118972615Y-117720583D01*
X119111797Y-117859765D01*
X119231227Y-117946537D01*
X119271039Y-117975462D01*
X119448206Y-118065732D01*
X119499003Y-118113706D01*
X119515798Y-118181527D01*
X119493261Y-118247662D01*
X119448207Y-118286702D01*
X119271302Y-118376839D01*
X119236316Y-118402257D01*
X119236315Y-118402257D01*
X119879997Y-119045937D01*
X119873782Y-119045937D01*
X119772049Y-119073196D01*
X119680837Y-119125857D01*
X119606363Y-119200331D01*
X119553702Y-119291543D01*
X119526443Y-119393276D01*
X119526443Y-119399489D01*
X118882763Y-118755809D01*
X118882763Y-118755810D01*
X118857345Y-118790796D01*
X118857342Y-118790800D01*
X118768025Y-118966098D01*
X118707221Y-119153231D01*
X118676443Y-119347554D01*
X118676443Y-119544319D01*
X118707221Y-119738642D01*
X118768024Y-119925772D01*
X118857348Y-120101082D01*
X118882762Y-120136062D01*
X118882763Y-120136062D01*
X119526443Y-119492382D01*
X119526443Y-119498598D01*
X119553702Y-119600331D01*
X119606363Y-119691543D01*
X119680837Y-119766017D01*
X119772049Y-119818678D01*
X119873782Y-119845937D01*
X119879996Y-119845937D01*
X119236316Y-120489614D01*
X119236316Y-120489615D01*
X119271301Y-120515033D01*
X119446607Y-120604355D01*
X119633737Y-120665158D01*
X119828061Y-120695937D01*
X120024825Y-120695937D01*
X120219148Y-120665158D01*
X120406278Y-120604355D01*
X120581586Y-120515032D01*
X120616568Y-120489615D01*
X120616569Y-120489615D01*
X119972891Y-119845937D01*
X119979104Y-119845937D01*
X120080837Y-119818678D01*
X120172049Y-119766017D01*
X120246523Y-119691543D01*
X120299184Y-119600331D01*
X120326443Y-119498598D01*
X120326443Y-119492385D01*
X120970121Y-120136063D01*
X120970121Y-120136062D01*
X120995538Y-120101080D01*
X121084861Y-119925772D01*
X121145664Y-119738642D01*
X121176443Y-119544319D01*
X121176443Y-119347554D01*
X121145664Y-119153231D01*
X121084861Y-118966101D01*
X120995539Y-118790795D01*
X120970121Y-118755810D01*
X120970120Y-118755810D01*
X120326443Y-119399488D01*
X120326443Y-119393276D01*
X120299184Y-119291543D01*
X120246523Y-119200331D01*
X120172049Y-119125857D01*
X120080837Y-119073196D01*
X119979104Y-119045937D01*
X119972890Y-119045937D01*
X120616568Y-118402257D01*
X120616568Y-118402256D01*
X120581588Y-118376842D01*
X120404678Y-118286702D01*
X120353882Y-118238727D01*
X120337087Y-118170906D01*
X120359625Y-118104771D01*
X120404679Y-118065732D01*
X120406465Y-118064821D01*
X120406468Y-118064821D01*
X120581848Y-117975461D01*
X120741089Y-117859765D01*
X120880271Y-117720583D01*
X120995967Y-117561342D01*
X121085327Y-117385962D01*
X121146152Y-117198763D01*
X121176943Y-117004359D01*
X121176943Y-116807514D01*
X121146152Y-116613110D01*
X121085325Y-116425907D01*
X121038186Y-116333392D01*
X120995967Y-116250532D01*
X120880271Y-116091291D01*
X120741089Y-115952109D01*
X120661468Y-115894261D01*
X120581846Y-115836411D01*
X120405230Y-115746422D01*
X120354433Y-115698448D01*
X120337638Y-115630627D01*
X120360175Y-115564492D01*
X120405230Y-115525452D01*
X120581846Y-115435462D01*
X120581845Y-115435462D01*
X120581848Y-115435461D01*
X120741089Y-115319765D01*
X120880271Y-115180583D01*
X120995967Y-115021342D01*
X121085327Y-114845962D01*
X121146152Y-114658763D01*
X121176943Y-114464359D01*
X121176943Y-114267514D01*
X121146152Y-114073110D01*
X121085325Y-113885907D01*
X120995966Y-113710531D01*
X120880271Y-113551291D01*
X120741089Y-113412109D01*
X120587820Y-113300752D01*
X120545157Y-113245424D01*
X120539178Y-113175810D01*
X120571784Y-113114015D01*
X120632623Y-113079658D01*
X120660707Y-113076436D01*
X120724315Y-113076436D01*
X120783926Y-113070028D01*
X120918774Y-113019733D01*
X121033989Y-112933483D01*
X121120239Y-112818268D01*
X121170534Y-112683420D01*
X121176943Y-112623810D01*
X121176942Y-111028065D01*
X121170534Y-110968454D01*
X121166403Y-110957379D01*
X121120240Y-110833608D01*
X121120236Y-110833601D01*
X121033990Y-110718392D01*
X121033987Y-110718389D01*
X120918778Y-110632143D01*
X120918771Y-110632139D01*
X120783925Y-110581845D01*
X120783926Y-110581845D01*
X120724326Y-110575438D01*
X120724324Y-110575437D01*
X120724316Y-110575437D01*
X120724307Y-110575437D01*
X119128572Y-110575437D01*
X119128566Y-110575438D01*
X119068959Y-110581845D01*
X118934114Y-110632139D01*
X118934107Y-110632143D01*
X118818898Y-110718389D01*
X118818895Y-110718392D01*
X118732649Y-110833601D01*
X118732645Y-110833608D01*
X118682351Y-110968454D01*
X118675944Y-111028053D01*
X118675944Y-111028060D01*
X118675943Y-111028072D01*
X88042230Y-111028072D01*
X88059634Y-110981410D01*
X88068596Y-110957379D01*
X88068598Y-110957372D01*
X88074999Y-110897844D01*
X88075000Y-110897827D01*
X88075000Y-110250000D01*
X87158012Y-110250000D01*
X87190925Y-110192993D01*
X87225000Y-110065826D01*
X87225000Y-109934174D01*
X87190925Y-109807007D01*
X87158012Y-109750000D01*
X88075000Y-109750000D01*
X88075000Y-109102172D01*
X88074999Y-109102155D01*
X88068598Y-109042627D01*
X88068596Y-109042620D01*
X88018354Y-108907913D01*
X88018350Y-108907906D01*
X87932190Y-108792812D01*
X87932187Y-108792809D01*
X87817093Y-108706649D01*
X87817088Y-108706646D01*
X87685528Y-108657577D01*
X87629595Y-108615705D01*
X87605178Y-108550241D01*
X87620030Y-108481968D01*
X87641175Y-108453720D01*
X87755104Y-108339792D01*
X87880051Y-108167816D01*
X87976557Y-107978412D01*
X88042246Y-107776243D01*
X88075500Y-107566287D01*
X88075500Y-107353713D01*
X88042246Y-107143757D01*
X87976557Y-106941588D01*
X87880051Y-106752184D01*
X87880049Y-106752181D01*
X87880048Y-106752179D01*
X87755109Y-106580213D01*
X87604786Y-106429890D01*
X87432820Y-106304951D01*
X87243414Y-106208444D01*
X87243413Y-106208443D01*
X87243412Y-106208443D01*
X87041243Y-106142754D01*
X87041241Y-106142753D01*
X87041240Y-106142753D01*
X86879957Y-106117208D01*
X86831287Y-106109500D01*
X86618713Y-106109500D01*
X86570042Y-106117208D01*
X86408760Y-106142753D01*
X86206585Y-106208444D01*
X86017179Y-106304951D01*
X85845213Y-106429890D01*
X85694890Y-106580213D01*
X85569951Y-106752179D01*
X85473444Y-106941585D01*
X85407753Y-107143760D01*
X85374500Y-107353713D01*
X84500500Y-107353713D01*
X84500500Y-100784648D01*
X87075943Y-100784648D01*
X87075943Y-101027225D01*
X87107604Y-101267722D01*
X87170390Y-101502041D01*
X87193929Y-101558868D01*
X87263219Y-101726149D01*
X87384507Y-101936226D01*
X87384509Y-101936229D01*
X87384510Y-101936230D01*
X87532176Y-102128673D01*
X87532182Y-102128680D01*
X87703699Y-102300197D01*
X87703706Y-102300203D01*
X87771228Y-102352014D01*
X87896154Y-102447873D01*
X88106231Y-102569161D01*
X88330343Y-102661991D01*
X88564654Y-102724775D01*
X88745029Y-102748521D01*
X88805154Y-102756437D01*
X88805155Y-102756437D01*
X89047732Y-102756437D01*
X89095831Y-102750104D01*
X89288232Y-102724775D01*
X89522543Y-102661991D01*
X89746655Y-102569161D01*
X89956732Y-102447873D01*
X90149181Y-102300202D01*
X90320708Y-102128675D01*
X90468379Y-101936226D01*
X90589667Y-101726149D01*
X90682497Y-101502037D01*
X90745281Y-101267726D01*
X90768757Y-101089403D01*
X90768757Y-101089402D01*
X99457001Y-101089402D01*
X99457001Y-101325597D01*
X99493947Y-101558868D01*
X99566934Y-101783496D01*
X99644755Y-101936226D01*
X99674158Y-101993933D01*
X99812984Y-102185010D01*
X99979991Y-102352017D01*
X100171068Y-102490843D01*
X100270492Y-102541502D01*
X100381504Y-102598066D01*
X100381506Y-102598066D01*
X100381509Y-102598068D01*
X100501913Y-102637189D01*
X100606132Y-102671053D01*
X100839404Y-102708000D01*
X100839409Y-102708000D01*
X101075598Y-102708000D01*
X101308869Y-102671053D01*
X101336765Y-102661989D01*
X101533493Y-102598068D01*
X101743934Y-102490843D01*
X101935011Y-102352017D01*
X102102018Y-102185010D01*
X102240844Y-101993933D01*
X102348069Y-101783492D01*
X102421054Y-101558868D01*
X102421054Y-101558867D01*
X102458001Y-101325597D01*
X102458001Y-101089403D01*
X102441740Y-100986744D01*
X102427171Y-100894755D01*
X102436125Y-100825464D01*
X102481121Y-100772012D01*
X102547873Y-100751372D01*
X102587955Y-100757426D01*
X102641258Y-100774746D01*
X102851214Y-100808000D01*
X102851215Y-100808000D01*
X103063787Y-100808000D01*
X103063788Y-100808000D01*
X103273744Y-100774746D01*
X103475913Y-100709057D01*
X103665317Y-100612551D01*
X103687290Y-100596586D01*
X103837287Y-100487609D01*
X103837289Y-100487606D01*
X103837293Y-100487604D01*
X103987605Y-100337292D01*
X103987607Y-100337288D01*
X103987610Y-100337286D01*
X104112549Y-100165320D01*
X104112548Y-100165320D01*
X104112552Y-100165316D01*
X104209058Y-99975912D01*
X104274747Y-99773743D01*
X104308001Y-99563787D01*
X104308001Y-99351213D01*
X105607001Y-99351213D01*
X105607001Y-99563786D01*
X105635535Y-99743947D01*
X105640255Y-99773743D01*
X105689127Y-99924156D01*
X105705945Y-99975914D01*
X105802452Y-100165320D01*
X105927391Y-100337286D01*
X106077714Y-100487609D01*
X106249680Y-100612548D01*
X106249682Y-100612549D01*
X106249685Y-100612551D01*
X106439089Y-100709057D01*
X106641258Y-100774746D01*
X106851214Y-100808000D01*
X106851215Y-100808000D01*
X107063787Y-100808000D01*
X107063788Y-100808000D01*
X107273744Y-100774746D01*
X107475913Y-100709057D01*
X107665317Y-100612551D01*
X107687290Y-100596586D01*
X107837287Y-100487609D01*
X107837289Y-100487606D01*
X107837293Y-100487604D01*
X107987605Y-100337292D01*
X107987607Y-100337288D01*
X107987610Y-100337286D01*
X108112549Y-100165320D01*
X108112548Y-100165320D01*
X108112552Y-100165316D01*
X108209058Y-99975912D01*
X108274747Y-99773743D01*
X108308001Y-99563787D01*
X108308001Y-99351213D01*
X109607001Y-99351213D01*
X109607001Y-99563786D01*
X109635535Y-99743947D01*
X109640255Y-99773743D01*
X109689127Y-99924156D01*
X109705945Y-99975914D01*
X109802452Y-100165320D01*
X109927391Y-100337286D01*
X110077714Y-100487609D01*
X110249680Y-100612548D01*
X110249682Y-100612549D01*
X110249685Y-100612551D01*
X110439089Y-100709057D01*
X110641258Y-100774746D01*
X110851214Y-100808000D01*
X110851215Y-100808000D01*
X111063787Y-100808000D01*
X111063788Y-100808000D01*
X111273744Y-100774746D01*
X111327040Y-100757428D01*
X111396878Y-100755434D01*
X111456711Y-100791514D01*
X111487540Y-100854215D01*
X111487829Y-100894758D01*
X111457001Y-101089401D01*
X111457001Y-101325596D01*
X111493947Y-101558867D01*
X111566934Y-101783495D01*
X111644755Y-101936226D01*
X111674158Y-101993932D01*
X111812984Y-102185009D01*
X111979991Y-102352016D01*
X112171068Y-102490842D01*
X112270492Y-102541501D01*
X112381504Y-102598065D01*
X112381506Y-102598065D01*
X112381509Y-102598067D01*
X112501913Y-102637188D01*
X112606132Y-102671052D01*
X112839404Y-102707999D01*
X112839409Y-102707999D01*
X113075598Y-102707999D01*
X113308869Y-102671052D01*
X113336762Y-102661989D01*
X113533493Y-102598067D01*
X113743934Y-102490842D01*
X113935011Y-102352016D01*
X114102018Y-102185009D01*
X114240844Y-101993932D01*
X114348069Y-101783491D01*
X114421054Y-101558867D01*
X114430055Y-101502037D01*
X114458001Y-101325596D01*
X114458001Y-101089401D01*
X114421054Y-100856130D01*
X114408960Y-100818909D01*
X114397828Y-100784648D01*
X117075943Y-100784648D01*
X117075943Y-101027225D01*
X117107604Y-101267722D01*
X117170390Y-101502041D01*
X117193929Y-101558868D01*
X117263219Y-101726149D01*
X117384507Y-101936226D01*
X117384509Y-101936229D01*
X117384510Y-101936230D01*
X117532176Y-102128673D01*
X117532182Y-102128680D01*
X117703699Y-102300197D01*
X117703706Y-102300203D01*
X117771228Y-102352014D01*
X117896154Y-102447873D01*
X118106231Y-102569161D01*
X118330343Y-102661991D01*
X118564654Y-102724775D01*
X118745029Y-102748521D01*
X118805154Y-102756437D01*
X118805155Y-102756437D01*
X119047732Y-102756437D01*
X119095831Y-102750104D01*
X119288232Y-102724775D01*
X119522543Y-102661991D01*
X119746655Y-102569161D01*
X119956732Y-102447873D01*
X120149181Y-102300202D01*
X120320708Y-102128675D01*
X120468379Y-101936226D01*
X120589667Y-101726149D01*
X120682497Y-101502037D01*
X120745281Y-101267726D01*
X120776943Y-101027225D01*
X120776943Y-100784649D01*
X120773359Y-100757429D01*
X120745281Y-100544151D01*
X120745281Y-100544148D01*
X120682497Y-100309837D01*
X120589667Y-100085725D01*
X120468379Y-99875648D01*
X120379049Y-99759230D01*
X120320709Y-99683200D01*
X120320703Y-99683193D01*
X120149186Y-99511676D01*
X120149179Y-99511670D01*
X119956736Y-99364004D01*
X119956735Y-99364003D01*
X119956732Y-99364001D01*
X119746655Y-99242713D01*
X119746648Y-99242710D01*
X119522547Y-99149884D01*
X119288228Y-99087098D01*
X119047732Y-99055437D01*
X119047731Y-99055437D01*
X118805155Y-99055437D01*
X118805154Y-99055437D01*
X118564657Y-99087098D01*
X118330338Y-99149884D01*
X118106237Y-99242710D01*
X118106228Y-99242714D01*
X117924294Y-99347754D01*
X117918304Y-99351213D01*
X117896149Y-99364004D01*
X117703706Y-99511670D01*
X117703699Y-99511676D01*
X117532182Y-99683193D01*
X117532176Y-99683200D01*
X117384510Y-99875643D01*
X117384507Y-99875647D01*
X117384507Y-99875648D01*
X117375822Y-99890691D01*
X117263220Y-100085722D01*
X117263216Y-100085731D01*
X117170390Y-100309832D01*
X117107604Y-100544151D01*
X117075943Y-100784648D01*
X114397828Y-100784648D01*
X114387016Y-100751372D01*
X114348069Y-100631507D01*
X114348067Y-100631503D01*
X114348067Y-100631502D01*
X114274747Y-100487604D01*
X114240844Y-100421066D01*
X114102018Y-100229989D01*
X113935011Y-100062982D01*
X113743934Y-99924156D01*
X113533497Y-99816932D01*
X113308869Y-99743945D01*
X113075598Y-99706999D01*
X113075593Y-99706999D01*
X112839409Y-99706999D01*
X112839404Y-99706999D01*
X112606131Y-99743946D01*
X112606128Y-99743946D01*
X112454188Y-99793315D01*
X112384347Y-99795310D01*
X112324514Y-99759230D01*
X112293686Y-99696529D01*
X112293397Y-99655992D01*
X112308001Y-99563787D01*
X112308001Y-99351213D01*
X112274747Y-99141257D01*
X112209058Y-98939088D01*
X112112552Y-98749684D01*
X112112550Y-98749681D01*
X112112549Y-98749679D01*
X111987610Y-98577713D01*
X111837287Y-98427390D01*
X111665321Y-98302451D01*
X111475915Y-98205944D01*
X111475914Y-98205943D01*
X111475913Y-98205943D01*
X111273744Y-98140254D01*
X111273742Y-98140253D01*
X111273741Y-98140253D01*
X111112458Y-98114708D01*
X111063788Y-98107000D01*
X110851214Y-98107000D01*
X110802543Y-98114708D01*
X110641261Y-98140253D01*
X110439086Y-98205944D01*
X110249680Y-98302451D01*
X110077714Y-98427390D01*
X109927391Y-98577713D01*
X109802452Y-98749679D01*
X109705945Y-98939085D01*
X109640254Y-99141260D01*
X109607001Y-99351213D01*
X108308001Y-99351213D01*
X108274747Y-99141257D01*
X108209058Y-98939088D01*
X108112552Y-98749684D01*
X108112550Y-98749681D01*
X108112549Y-98749679D01*
X107987610Y-98577713D01*
X107837287Y-98427390D01*
X107665321Y-98302451D01*
X107475915Y-98205944D01*
X107475914Y-98205943D01*
X107475913Y-98205943D01*
X107273744Y-98140254D01*
X107273742Y-98140253D01*
X107273741Y-98140253D01*
X107112458Y-98114708D01*
X107063788Y-98107000D01*
X106851214Y-98107000D01*
X106802543Y-98114708D01*
X106641261Y-98140253D01*
X106439086Y-98205944D01*
X106249680Y-98302451D01*
X106077714Y-98427390D01*
X105927391Y-98577713D01*
X105802452Y-98749679D01*
X105705945Y-98939085D01*
X105640254Y-99141260D01*
X105607001Y-99351213D01*
X104308001Y-99351213D01*
X104274747Y-99141257D01*
X104209058Y-98939088D01*
X104112552Y-98749684D01*
X104112550Y-98749681D01*
X104112549Y-98749679D01*
X103987610Y-98577713D01*
X103837287Y-98427390D01*
X103665321Y-98302451D01*
X103475915Y-98205944D01*
X103475914Y-98205943D01*
X103475913Y-98205943D01*
X103273744Y-98140254D01*
X103273742Y-98140253D01*
X103273741Y-98140253D01*
X103112458Y-98114708D01*
X103063788Y-98107000D01*
X102851214Y-98107000D01*
X102802543Y-98114708D01*
X102641261Y-98140253D01*
X102439086Y-98205944D01*
X102249680Y-98302451D01*
X102077714Y-98427390D01*
X101927391Y-98577713D01*
X101802452Y-98749679D01*
X101705945Y-98939085D01*
X101640254Y-99141260D01*
X101607001Y-99351213D01*
X101607001Y-99563786D01*
X101621604Y-99655987D01*
X101612649Y-99725281D01*
X101567653Y-99778733D01*
X101500901Y-99799372D01*
X101460813Y-99793316D01*
X101308871Y-99743947D01*
X101075598Y-99707000D01*
X101075593Y-99707000D01*
X100839409Y-99707000D01*
X100839404Y-99707000D01*
X100606132Y-99743946D01*
X100381504Y-99816933D01*
X100171067Y-99924157D01*
X100062051Y-100003362D01*
X99979991Y-100062983D01*
X99979989Y-100062985D01*
X99979988Y-100062985D01*
X99812986Y-100229987D01*
X99812986Y-100229988D01*
X99812984Y-100229990D01*
X99754975Y-100309832D01*
X99674158Y-100421066D01*
X99566934Y-100631503D01*
X99493947Y-100856131D01*
X99457001Y-101089402D01*
X90768757Y-101089402D01*
X90771529Y-101068351D01*
X90776943Y-101027225D01*
X90776943Y-100784648D01*
X90745281Y-100544151D01*
X90745281Y-100544148D01*
X90682497Y-100309837D01*
X90589667Y-100085725D01*
X90468379Y-99875648D01*
X90379049Y-99759230D01*
X90320709Y-99683200D01*
X90320703Y-99683193D01*
X90149186Y-99511676D01*
X90149179Y-99511670D01*
X89956736Y-99364004D01*
X89956735Y-99364003D01*
X89956732Y-99364001D01*
X89746655Y-99242713D01*
X89746648Y-99242710D01*
X89522547Y-99149884D01*
X89288228Y-99087098D01*
X89047732Y-99055437D01*
X89047731Y-99055437D01*
X88805155Y-99055437D01*
X88805154Y-99055437D01*
X88564657Y-99087098D01*
X88330338Y-99149884D01*
X88106237Y-99242710D01*
X88106228Y-99242714D01*
X87924294Y-99347754D01*
X87918304Y-99351213D01*
X87896149Y-99364004D01*
X87703706Y-99511670D01*
X87703699Y-99511676D01*
X87532182Y-99683193D01*
X87532176Y-99683200D01*
X87384510Y-99875643D01*
X87384507Y-99875647D01*
X87384507Y-99875648D01*
X87375822Y-99890691D01*
X87263220Y-100085722D01*
X87263216Y-100085731D01*
X87170390Y-100309832D01*
X87107604Y-100544151D01*
X87075943Y-100784648D01*
X84500500Y-100784648D01*
X84500500Y-96004066D01*
X84500765Y-95995956D01*
X84504819Y-95934108D01*
X84517075Y-95747102D01*
X84519190Y-95731048D01*
X84567045Y-95490462D01*
X84571243Y-95474797D01*
X84594337Y-95406762D01*
X84650093Y-95242512D01*
X84656291Y-95227547D01*
X84764790Y-95007533D01*
X84772893Y-94993498D01*
X84909182Y-94789527D01*
X84919039Y-94776681D01*
X85080786Y-94592244D01*
X85092244Y-94580786D01*
X85276681Y-94419039D01*
X85289527Y-94409182D01*
X85493498Y-94272893D01*
X85507533Y-94264790D01*
X85727547Y-94156291D01*
X85742512Y-94150093D01*
X85906762Y-94094337D01*
X85974797Y-94071243D01*
X85990464Y-94067045D01*
X86231048Y-94019190D01*
X86247102Y-94017075D01*
X86495957Y-94000765D01*
X86504067Y-94000500D01*
X86565892Y-94000500D01*
X87434108Y-94000500D01*
X99743112Y-94000500D01*
X99810151Y-94020185D01*
G37*
%TD.AperFunction*%
%TD*%
M02*
