%TF.GenerationSoftware,KiCad,Pcbnew,9.0.5*%
%TF.CreationDate,2025-10-25T18:26:15+02:00*%
%TF.ProjectId,humidity_sensor,68756d69-6469-4747-995f-73656e736f72,rev?*%
%TF.SameCoordinates,Original*%
%TF.FileFunction,Legend,Bot*%
%TF.FilePolarity,Positive*%
%FSLAX46Y46*%
G04 Gerber Fmt 4.6, Leading zero omitted, Abs format (unit mm)*
G04 Created by KiCad (PCBNEW 9.0.5) date 2025-10-25 18:26:15*
%MOMM*%
%LPD*%
G01*
G04 APERTURE LIST*
%ADD10C,0.150000*%
%ADD11C,0.120000*%
G04 APERTURE END LIST*
D10*
X109698561Y-129295365D02*
X110412846Y-129295365D01*
X110412846Y-129295365D02*
X110555703Y-129247746D01*
X110555703Y-129247746D02*
X110650942Y-129152508D01*
X110650942Y-129152508D02*
X110698561Y-129009651D01*
X110698561Y-129009651D02*
X110698561Y-128914413D01*
X109793799Y-129723937D02*
X109746180Y-129771556D01*
X109746180Y-129771556D02*
X109698561Y-129866794D01*
X109698561Y-129866794D02*
X109698561Y-130104889D01*
X109698561Y-130104889D02*
X109746180Y-130200127D01*
X109746180Y-130200127D02*
X109793799Y-130247746D01*
X109793799Y-130247746D02*
X109889037Y-130295365D01*
X109889037Y-130295365D02*
X109984275Y-130295365D01*
X109984275Y-130295365D02*
X110127132Y-130247746D01*
X110127132Y-130247746D02*
X110698561Y-129676318D01*
X110698561Y-129676318D02*
X110698561Y-130295365D01*
D11*
%TO.C,J2*%
X98523742Y-130958699D02*
X98523742Y-128298699D01*
X106203741Y-128298699D02*
X98523742Y-128298699D01*
X106203741Y-130958699D02*
X98523742Y-130958699D01*
X106203741Y-130958699D02*
X106203741Y-128298699D01*
X108803742Y-128298699D02*
X107473742Y-128298699D01*
X108803742Y-129628699D02*
X108803742Y-128298699D01*
%TD*%
M02*
