%TF.GenerationSoftware,KiCad,Pcbnew,9.0.5*%
%TF.CreationDate,2025-10-25T18:26:15+02:00*%
%TF.ProjectId,humidity_sensor,68756d69-6469-4747-995f-73656e736f72,rev?*%
%TF.SameCoordinates,Original*%
%TF.FileFunction,Paste,Top*%
%TF.FilePolarity,Positive*%
%FSLAX46Y46*%
G04 Gerber Fmt 4.6, Leading zero omitted, Abs format (unit mm)*
G04 Created by KiCad (PCBNEW 9.0.5) date 2025-10-25 18:26:15*
%MOMM*%
%LPD*%
G01*
G04 APERTURE LIST*
G04 Aperture macros list*
%AMRoundRect*
0 Rectangle with rounded corners*
0 $1 Rounding radius*
0 $2 $3 $4 $5 $6 $7 $8 $9 X,Y pos of 4 corners*
0 Add a 4 corners polygon primitive as box body*
4,1,4,$2,$3,$4,$5,$6,$7,$8,$9,$2,$3,0*
0 Add four circle primitives for the rounded corners*
1,1,$1+$1,$2,$3*
1,1,$1+$1,$4,$5*
1,1,$1+$1,$6,$7*
1,1,$1+$1,$8,$9*
0 Add four rect primitives between the rounded corners*
20,1,$1+$1,$2,$3,$4,$5,0*
20,1,$1+$1,$4,$5,$6,$7,0*
20,1,$1+$1,$6,$7,$8,$9,0*
20,1,$1+$1,$8,$9,$2,$3,0*%
G04 Aperture macros list end*
%ADD10RoundRect,0.250000X0.450000X0.350000X-0.450000X0.350000X-0.450000X-0.350000X0.450000X-0.350000X0*%
%ADD11RoundRect,0.218750X0.335876X0.026517X0.026517X0.335876X-0.335876X-0.026517X-0.026517X-0.335876X0*%
%ADD12RoundRect,0.140000X-0.170000X0.140000X-0.170000X-0.140000X0.170000X-0.140000X0.170000X0.140000X0*%
%ADD13RoundRect,0.250000X0.512652X0.159099X0.159099X0.512652X-0.512652X-0.159099X-0.159099X-0.512652X0*%
%ADD14RoundRect,0.135000X-0.135000X-0.185000X0.135000X-0.185000X0.135000X0.185000X-0.135000X0.185000X0*%
%ADD15RoundRect,0.140000X-0.219203X-0.021213X-0.021213X-0.219203X0.219203X0.021213X0.021213X0.219203X0*%
%ADD16RoundRect,0.140000X-0.021213X0.219203X-0.219203X0.021213X0.021213X-0.219203X0.219203X-0.021213X0*%
%ADD17RoundRect,0.375000X-0.176777X-0.707107X0.707107X0.176777X0.176777X0.707107X-0.707107X-0.176777X0*%
%ADD18RoundRect,0.500000X0.636396X-1.343503X1.343503X-0.636396X-0.636396X1.343503X-1.343503X0.636396X0*%
%ADD19RoundRect,0.135000X0.035355X-0.226274X0.226274X-0.035355X-0.035355X0.226274X-0.226274X0.035355X0*%
%ADD20RoundRect,0.140000X-0.140000X-0.170000X0.140000X-0.170000X0.140000X0.170000X-0.140000X0.170000X0*%
%ADD21RoundRect,0.140000X0.021213X-0.219203X0.219203X-0.021213X-0.021213X0.219203X-0.219203X0.021213X0*%
%ADD22RoundRect,0.140000X0.170000X-0.140000X0.170000X0.140000X-0.170000X0.140000X-0.170000X-0.140000X0*%
%ADD23RoundRect,0.140000X0.219203X0.021213X0.021213X0.219203X-0.219203X-0.021213X-0.021213X-0.219203X0*%
%ADD24RoundRect,0.075000X0.415425X0.521491X-0.521491X-0.415425X-0.415425X-0.521491X0.521491X0.415425X0*%
%ADD25RoundRect,0.075000X-0.415425X0.521491X-0.521491X0.415425X0.415425X-0.521491X0.521491X-0.415425X0*%
%ADD26RoundRect,0.135000X0.135000X0.185000X-0.135000X0.185000X-0.135000X-0.185000X0.135000X-0.185000X0*%
G04 APERTURE END LIST*
D10*
%TO.C,Y1*%
X114926443Y-106205937D03*
X112726443Y-106205937D03*
X112726443Y-107905937D03*
X114926443Y-107905937D03*
%TD*%
D11*
%TO.C,FB1*%
X106483290Y-108962784D03*
X105369596Y-107849090D03*
%TD*%
D12*
%TO.C,C11*%
X110826443Y-106595937D03*
X110826443Y-107555937D03*
%TD*%
D13*
%TO.C,C12*%
X95921751Y-115421751D03*
X94578249Y-114078249D03*
%TD*%
D14*
%TO.C,R3*%
X104490001Y-126750000D03*
X105509999Y-126750000D03*
%TD*%
D15*
%TO.C,C6*%
X110087032Y-111816526D03*
X110765854Y-112495348D03*
%TD*%
D13*
%TO.C,C13*%
X92421751Y-111671751D03*
X91078249Y-110328249D03*
%TD*%
D16*
%TO.C,C9*%
X112765854Y-112316526D03*
X112087032Y-112995348D03*
%TD*%
D17*
%TO.C,U4*%
X94146268Y-109101041D03*
X95772614Y-110727386D03*
D18*
X100227386Y-106272614D03*
D17*
X97398959Y-112353732D03*
%TD*%
D15*
%TO.C,C8*%
X111087032Y-110816526D03*
X111765854Y-111495348D03*
%TD*%
D19*
%TO.C,R1*%
X111778752Y-124971248D03*
X112500000Y-124250000D03*
%TD*%
D20*
%TO.C,C7*%
X105696443Y-105905937D03*
X106656443Y-105905937D03*
%TD*%
D21*
%TO.C,C1*%
X100087032Y-114745348D03*
X100765854Y-114066526D03*
%TD*%
D22*
%TO.C,C10*%
X116826443Y-107035937D03*
X116826443Y-106075937D03*
%TD*%
D16*
%TO.C,C2*%
X113589411Y-120160589D03*
X112910589Y-120839411D03*
%TD*%
D12*
%TO.C,C4*%
X113500000Y-115270000D03*
X113500000Y-116230000D03*
%TD*%
D16*
%TO.C,C5*%
X115589411Y-122160589D03*
X114910589Y-122839411D03*
%TD*%
D23*
%TO.C,C3*%
X104265854Y-124245348D03*
X103587032Y-123566526D03*
%TD*%
D24*
%TO.C,U1*%
X111814319Y-116407149D03*
X111460765Y-116053595D03*
X111107212Y-115700042D03*
X110753658Y-115346488D03*
X110400105Y-114992935D03*
X110046552Y-114639382D03*
X109692998Y-114285828D03*
X109339445Y-113932275D03*
X108985892Y-113578722D03*
X108632338Y-113225168D03*
X108278785Y-112871615D03*
X107925231Y-112518061D03*
D25*
X105927655Y-112518061D03*
X105574101Y-112871615D03*
X105220548Y-113225168D03*
X104866994Y-113578722D03*
X104513441Y-113932275D03*
X104159888Y-114285828D03*
X103806334Y-114639382D03*
X103452781Y-114992935D03*
X103099228Y-115346488D03*
X102745674Y-115700042D03*
X102392121Y-116053595D03*
X102038567Y-116407149D03*
D24*
X102038567Y-118404725D03*
X102392121Y-118758279D03*
X102745674Y-119111832D03*
X103099228Y-119465386D03*
X103452781Y-119818939D03*
X103806334Y-120172492D03*
X104159888Y-120526046D03*
X104513441Y-120879599D03*
X104866994Y-121233152D03*
X105220548Y-121586706D03*
X105574101Y-121940259D03*
X105927655Y-122293813D03*
D25*
X107925231Y-122293813D03*
X108278785Y-121940259D03*
X108632338Y-121586706D03*
X108985892Y-121233152D03*
X109339445Y-120879599D03*
X109692998Y-120526046D03*
X110046552Y-120172492D03*
X110400105Y-119818939D03*
X110753658Y-119465386D03*
X111107212Y-119111832D03*
X111460765Y-118758279D03*
X111814319Y-118404725D03*
%TD*%
D26*
%TO.C,R2*%
X108509999Y-126750000D03*
X107490001Y-126750000D03*
%TD*%
M02*
